<svg width="147" height="138" viewBox="0 0 147 138" fill="none" xmlns="http://www.w3.org/2000/svg">
<defs>
<clipPath id="clip0">
<rect width="147" height="138" fill="white"/>
</clipPath>
</defs>
<g clip-path="url(#clip0)">
<path d="M72.1216 138C96.3053 138 115.91 134.972 115.91 131.237C115.91 127.501 96.3053 124.473 72.1216 124.473C47.9378 124.473 28.333 127.501 28.333 131.237C28.333 134.972 47.9378 138 72.1216 138Z" fill="#3F3D56"/>
<path d="M70.9623 28.6542C70.9623 28.6542 72.0312 33.562 68.397 35.4825C68.397 35.4825 69.2521 46.3652 74.8102 46.5786C80.3684 46.792 80.3684 40.8172 80.3684 40.8172L79.5133 37.6164C79.5133 37.6164 75.4516 35.2691 78.0169 30.788L70.9623 28.6542Z" fill="#A0616A"/>
<path d="M75.5584 31.3215C81.1075 31.3215 85.6059 26.8313 85.6059 21.2924C85.6059 15.7534 81.1075 11.2632 75.5584 11.2632C70.0094 11.2632 65.511 15.7534 65.511 21.2924C65.511 26.8313 70.0094 31.3215 75.5584 31.3215Z" fill="#2F2E41"/>
<path d="M64.9767 51.4864V63.436L82.72 62.7959L81.4372 51.0597L64.9767 51.4864Z" fill="#A0616A"/>
<path d="M75.6653 32.0684C79.2073 32.0684 82.0786 29.2023 82.0786 25.6668C82.0786 22.1313 79.2073 19.2652 75.6653 19.2652C72.1234 19.2652 69.2521 22.1313 69.2521 25.6668C69.2521 29.2023 72.1234 32.0684 75.6653 32.0684Z" fill="#A0616A"/>
<path d="M67.7557 35.4825C67.7557 35.4825 64.1215 34.8424 62.8388 35.4825C61.5562 36.1227 60.0597 35.9093 58.5633 42.0975L55.7842 54.9006C55.7842 54.9006 55.3567 58.7416 58.5633 58.3148C61.7699 57.888 61.5562 52.34 61.5562 52.34L63.6939 47.4321L67.5419 43.1644L67.7557 35.4825Z" fill="#A0616A"/>
<path d="M79.9409 38.0432C79.9409 38.0432 85.0715 38.6833 85.499 41.4573C85.9266 44.2313 83.575 55.5408 83.575 55.5408L79.9409 51.9132L81.8648 44.8715L79.9409 38.0432Z" fill="#A0616A"/>
<path d="M66.7937 35.3759L66.9006 39.3235L63.9077 45.7251L64.549 53.6204L81.7028 53.672L81.6511 49.9928C81.6511 49.9928 84.0026 47.0054 82.72 44.4448C81.4373 41.8841 80.4753 37.9365 80.4753 37.9365L78.7651 36.8696C78.7651 36.8696 81.6511 43.5912 75.6654 42.5243C69.6797 41.4574 69.359 34.7357 69.359 34.7357L66.7937 35.3759Z" fill="#D0CDE1"/>
<path d="M61.7699 78.373L58.7771 95.2305L55.3567 119.77L53.8602 122.544L55.1429 125.318L58.7771 123.611L60.2735 116.996C60.2735 116.996 65.4041 110.808 64.549 102.912L73.7414 80.9337L61.7699 78.373Z" fill="#A0616A"/>
<path d="M76.5204 80.0802L78.6582 100.992C78.6582 100.992 78.2306 106.753 79.5133 111.875C80.796 116.996 81.6511 125.958 81.6511 125.958H85.9266L85.0715 99.7117L87.8506 78.3731L76.5204 80.0802Z" fill="#A0616A"/>
<path d="M73.5276 60.8755C73.5276 60.8755 64.549 60.2353 64.549 61.3022V63.4361C64.549 63.4361 62.8388 66.2101 63.0526 68.7707C63.2664 71.3314 54.9291 77.0928 60.2735 79.6534C65.6179 82.214 72.6725 83.0676 73.7414 82.214C74.8103 81.3605 75.4516 77.9463 75.4516 77.9463C75.4516 77.9463 75.4516 81.7873 77.3756 82.0007C79.2996 82.214 90.8434 79.8668 90.8434 77.9463C90.8434 76.0259 82.2885 58.8483 82.2885 58.8483C82.2885 58.8483 76.0929 61.0889 73.5276 60.8755Z" fill="#2F2E41"/>
<path d="M54.9291 122.757C54.9291 122.757 54.074 121.264 53.2189 122.331C52.3638 123.397 49.1572 125.958 49.1572 125.958C49.1572 125.958 41.2475 128.092 46.5919 131.293C46.5919 131.293 51.295 131.293 53.2189 129.799C55.1429 128.305 57.0669 128.946 57.0669 128.946C57.0669 128.946 60.0598 128.732 60.2735 127.452C60.4873 126.172 59.1537 121.946 59.1537 121.946C59.1537 121.946 57.7082 123.824 54.9291 122.757Z" fill="#2F2E41"/>
<path d="M83.3613 124.038C83.3613 124.038 80.796 123.397 80.796 124.038C80.796 124.678 77.1618 128.519 80.1547 130.226C83.1475 131.933 83.5751 131.506 83.7888 133.213C84.0026 134.92 89.5608 136.201 90.4159 135.134C91.271 134.067 91.9123 132.146 90.8434 131.293C89.7746 130.439 86.3542 125.105 86.3542 124.038C86.3542 122.971 83.3613 124.038 83.3613 124.038Z" fill="#2F2E41"/>
<path d="M78.1794 41.2071C78.5939 41.2071 78.9299 41.0394 78.9299 40.8325C78.9299 40.6256 78.5939 40.4579 78.1794 40.4579C77.765 40.4579 77.429 40.6256 77.429 40.8325C77.429 41.0394 77.765 41.2071 78.1794 41.2071Z" fill="#3F3D56"/>
<path d="M78.2648 42.4159C79.1126 42.4159 79.7999 42.0653 79.7999 41.6327C79.7999 41.2002 79.1126 40.8495 78.2648 40.8495C77.417 40.8495 76.7297 41.2002 76.7297 41.6327C76.7297 42.0653 77.417 42.4159 78.2648 42.4159Z" fill="#6C63FF"/>
<path d="M80.0728 42.1094H76.3885V44.7995H80.0728V42.1094Z" fill="#6C63FF"/>
<path d="M82.5801 46.3147H73.8471V59.4924H82.5801V46.3147Z" fill="#6C63FF"/>
<path d="M82.9724 46.1615C82.9724 47.4591 80.8306 47.0127 78.2307 47.0127C75.6307 47.0127 73.4207 47.425 73.4207 46.1274C73.4207 44.8298 75.6307 43.4714 78.2307 43.4714C80.8306 43.4714 82.9724 44.8639 82.9724 46.1615Z" fill="#6C63FF"/>
<path d="M82.9723 47.5576H73.523V48.5791H82.9723V47.5576Z" fill="#3F3D56"/>
<path d="M83.0406 57.4323H73.5912V58.4538H83.0406V57.4323Z" fill="#3F3D56"/>
<path d="M82.9723 53.0057H73.523V55.0487H82.9723V53.0057Z" fill="#3F3D56"/>
<path d="M82.9041 59.0327C82.9041 59.4653 83.0417 60.7012 78.333 60.7012C73.0113 60.7012 73.4548 59.3972 73.4548 58.9646C73.4548 58.5321 75.8084 59.1349 78.333 59.1349C80.8575 59.1349 82.9041 58.6002 82.9041 59.0327Z" fill="#6C63FF"/>
<path d="M80.3798 41.6327H76.0133V43.0969H80.3798V41.6327Z" fill="#3F3D56"/>
<path opacity="0.1" d="M74.8364 49.4474H74.2565V52.6482H74.8364V49.4474Z" fill="white"/>
<path opacity="0.1" d="M74.8364 55.5425H74.2565V56.7343H74.8364V55.5425Z" fill="white"/>
<path d="M84.4302 52.9802C84.4302 52.9802 80.3684 47.6455 80.5822 51.4865C80.796 55.3274 83.1475 57.2479 83.575 57.2479C84.0026 57.2479 85.7128 56.8211 84.4302 52.9802Z" fill="#A0616A"/>
<path opacity="0.1" d="M64.9766 57.0895C65.2972 57.1412 70.4278 55.2207 70.4278 55.2207L73.6345 54.7939L64.9766 58.4081L64.9766 57.0895Z" fill="black"/>
<path d="M58.3495 53.407C58.3495 53.407 60.0597 52.34 63.4801 52.7668L70.1072 51.0597C70.1072 51.0597 76.3067 47.4322 78.6582 51.9133C81.0097 56.3944 69.8934 54.9007 69.8934 54.9007C69.8934 54.9007 62.4112 60.8755 57.9219 57.6747L58.3495 53.407Z" fill="#A0616A"/>
<path d="M66.3661 17.0247C68.019 17.0247 69.3589 15.6872 69.3589 14.0373C69.3589 12.3874 68.019 11.0499 66.3661 11.0499C64.7132 11.0499 63.3732 12.3874 63.3732 14.0373C63.3732 15.6872 64.7132 17.0247 66.3661 17.0247Z" fill="#2F2E41"/>
<path d="M84.7508 16.1711C86.4037 16.1711 87.7436 14.8336 87.7436 13.1837C87.7436 11.5338 86.4037 10.1963 84.7508 10.1963C83.0979 10.1963 81.7579 11.5338 81.7579 13.1837C81.7579 14.8336 83.0979 16.1711 84.7508 16.1711Z" fill="#2F2E41"/>
<path d="M81.5442 11.9034C81.5443 11.1666 81.8172 10.4558 82.3104 9.90766C82.8037 9.35949 83.4825 9.01261 84.2164 8.93368C83.7984 8.88811 83.3755 8.93095 82.9753 9.05942C82.575 9.18788 82.2064 9.39909 81.8933 9.67927C81.5803 9.95945 81.3299 10.3023 81.1585 10.6855C80.9871 11.0688 80.8986 11.4837 80.8986 11.9034C80.8986 12.3231 80.9871 12.7381 81.1585 13.1213C81.3299 13.5045 81.5803 13.8474 81.8933 14.1276C82.2064 14.4078 82.575 14.619 82.9753 14.7474C83.3755 14.8759 83.7984 14.9187 84.2164 14.8732C83.4825 14.7942 82.8037 14.4474 82.3104 13.8992C81.8172 13.351 81.5443 12.6402 81.5442 11.9034Z" fill="#2F2E41"/>
<path d="M63.0221 16.4537C62.5055 15.9273 62.2021 15.229 62.1701 14.4929C62.138 13.7567 62.3797 13.0348 62.8486 12.4657C62.7644 12.5318 62.6838 12.6024 62.6071 12.6771C62.0405 13.2317 61.7177 13.9882 61.7097 14.7803C61.7018 15.5724 62.0093 16.3352 62.5647 16.901C63.1201 17.4668 63.8779 17.7892 64.6714 17.7975C65.465 17.8057 66.2293 17.499 66.7963 16.9448C66.8727 16.8698 66.945 16.7908 67.013 16.7082C66.4334 17.1645 65.7053 17.3909 64.9687 17.3439C64.232 17.297 63.5387 16.9799 63.0221 16.4537Z" fill="#2F2E41"/>
<path d="M75.5585 16.5979C72.0165 16.5979 69.1452 18.2698 69.1452 20.3322C69.1452 21.2549 69.7224 22.0983 70.6751 22.7499L71.9097 21.8569L71.5739 23.2558C71.7133 23.3203 71.8555 23.3826 72.0039 23.4403L73.8483 21.2924V23.9311C74.4138 24.0215 74.9857 24.0668 75.5585 24.0664C79.1004 24.0664 81.9717 22.3945 81.9717 20.3322C81.9717 18.2698 79.1004 16.5979 75.5585 16.5979Z" fill="#2F2E41"/>
<path d="M81.7579 13.1837C81.7579 13.1837 81.2931 15.3176 84.1977 16.1711L81.7579 13.1837Z" fill="#6C63FF"/>
<path d="M69.1452 13.5721C69.1452 13.5721 70.2141 15.9577 67.0074 17.0246L69.1452 13.5721Z" fill="#6C63FF"/>
<path d="M112.721 118.352C113.284 117.726 113.686 116.973 113.892 116.158C114.098 115.342 114.102 114.489 113.904 113.672C113.705 112.855 113.31 112.098 112.753 111.467C112.196 110.836 111.493 110.351 110.706 110.052C111.407 109.647 111.955 109.022 112.264 108.275C112.574 107.528 112.628 106.699 112.418 105.918C112.208 105.137 111.745 104.447 111.103 103.955C110.46 103.463 109.672 103.196 108.862 103.196C108.052 103.196 107.265 103.463 106.622 103.955C105.979 104.447 105.517 105.137 105.307 105.918C105.097 106.699 105.151 107.528 105.46 108.275C105.77 109.022 106.317 109.647 107.019 110.052C106.231 110.351 105.528 110.836 104.971 111.467C104.414 112.098 104.019 112.855 103.821 113.672C103.622 114.489 103.626 115.342 103.832 116.158C104.039 116.973 104.441 117.726 105.004 118.352C103.689 119.186 102.68 120.423 102.13 121.878C101.58 123.333 101.518 124.926 101.953 126.42C102.388 127.913 103.297 129.225 104.543 130.158C105.789 131.092 107.304 131.596 108.862 131.596C110.42 131.596 111.936 131.092 113.182 130.158C114.428 129.225 115.336 127.913 115.771 126.42C116.206 124.926 116.144 123.333 115.594 121.878C115.044 120.423 114.036 119.186 112.721 118.352Z" fill="#3F3D56"/>
<path d="M46.3191 76.2287C49.2777 76.2287 51.6761 73.8347 51.6761 70.8815C51.6761 67.9283 49.2777 65.5343 46.3191 65.5343C43.3606 65.5343 40.9622 67.9283 40.9622 70.8815C40.9622 73.8347 43.3606 76.2287 46.3191 76.2287Z" fill="#6C63FF"/>
<path d="M45.1656 75.2535C45.6882 74.8312 45.3573 73.5585 44.4266 72.4108C43.4958 71.2631 42.3176 70.6751 41.795 71.0974C41.2724 71.5197 41.6032 72.7924 42.534 73.9401C43.4648 75.0878 44.643 75.6758 45.1656 75.2535Z" fill="white"/>
<path d="M11.2793 60.4503C14.2379 60.4503 16.6363 58.0562 16.6363 55.1031C16.6363 52.1499 14.2379 49.7559 11.2793 49.7559C8.32076 49.7559 5.92236 52.1499 5.92236 55.1031C5.92236 58.0562 8.32076 60.4503 11.2793 60.4503Z" fill="#3F3D56"/>
<path d="M8.92827 54.4702C9.31339 53.0446 9.09929 51.7472 8.45007 51.5724C7.80086 51.3977 6.96236 52.4118 6.57725 53.8375C6.19214 55.2631 6.40624 56.5605 7.05546 56.7353C7.70467 56.91 8.54316 55.8959 8.92827 54.4702Z" fill="white"/>
<path d="M3.33923 27.013C5.183 27.013 6.67767 25.521 6.67767 23.6806C6.67767 21.8402 5.183 20.3483 3.33923 20.3483C1.49546 20.3483 0.000793457 21.8402 0.000793457 23.6806C0.000793457 25.521 1.49546 27.013 3.33923 27.013Z" fill="#3F3D56"/>
<path d="M1.87413 23.2862C2.11413 22.3977 1.98071 21.5892 1.57612 21.4803C1.17153 21.3714 0.648987 22.0034 0.408986 22.8919C0.168985 23.7804 0.302411 24.5889 0.707 24.6978C1.11159 24.8067 1.63413 24.1747 1.87413 23.2862Z" fill="white"/>
<path d="M37.929 109.451C39.7727 109.451 41.2674 107.959 41.2674 106.118C41.2674 104.278 39.7727 102.786 37.929 102.786C36.0852 102.786 34.5905 104.278 34.5905 106.118C34.5905 107.959 36.0852 109.451 37.929 109.451Z" fill="#3F3D56"/>
<path d="M36.4643 105.724C36.7043 104.836 36.5709 104.027 36.1663 103.918C35.7617 103.809 35.2391 104.441 34.9991 105.33C34.7591 106.218 34.8926 107.027 35.2971 107.136C35.7017 107.245 36.2243 106.613 36.4643 105.724Z" fill="white"/>
<path d="M141.643 72.36C144.602 72.36 147 69.966 147 67.0128C147 64.0597 144.602 61.6656 141.643 61.6656C138.684 61.6656 136.286 64.0597 136.286 67.0128C136.286 69.966 138.684 72.36 141.643 72.36Z" fill="#3F3D56"/>
<path d="M137.991 69.6864C138.663 69.6864 139.208 68.4894 139.208 67.0128C139.208 65.5362 138.663 64.3392 137.991 64.3392C137.318 64.3392 136.773 65.5362 136.773 67.0128C136.773 68.4894 137.318 69.6864 137.991 69.6864Z" fill="white"/>
<path d="M124.355 38.0893C127.313 38.0893 129.712 35.6953 129.712 32.7422C129.712 29.789 127.313 27.395 124.355 27.395C121.396 27.395 118.998 29.789 118.998 32.7422C118.998 35.6953 121.396 38.0893 124.355 38.0893Z" fill="#6C63FF"/>
<path d="M122.926 30.7738C124.124 29.9076 124.776 28.7647 124.381 28.2212C123.987 27.6776 122.696 27.9392 121.498 28.8054C120.3 29.6716 119.648 30.8145 120.043 31.358C120.437 31.9016 121.728 31.64 122.926 30.7738Z" fill="white"/>
<path d="M137.991 6.66495C139.834 6.66495 141.329 5.173 141.329 3.3326C141.329 1.49219 139.834 0.000244141 137.991 0.000244141C136.147 0.000244141 134.652 1.49219 134.652 3.3326C134.652 5.173 136.147 6.66495 137.991 6.66495Z" fill="#6C63FF"/>
<path d="M137.1 2.10594C137.847 1.56612 138.253 0.853898 138.007 0.515158C137.761 0.176417 136.957 0.339429 136.21 0.879252C135.464 1.41907 135.058 2.13129 135.303 2.47003C135.549 2.80877 136.354 2.64576 137.1 2.10594Z" fill="white"/>
<path d="M112.91 92.4632C114.754 92.4632 116.249 90.9712 116.249 89.1308C116.249 87.2904 114.754 85.7985 112.91 85.7985C111.067 85.7985 109.572 87.2904 109.572 89.1308C109.572 90.9712 111.067 92.4632 112.91 92.4632Z" fill="#3F3D56"/>
<path d="M112.02 87.9041C112.767 87.3643 113.173 86.652 112.927 86.3133C112.681 85.9746 111.876 86.1376 111.13 86.6774C110.383 87.2172 109.977 87.9294 110.223 88.2682C110.469 88.6069 111.273 88.4439 112.02 87.9041Z" fill="white"/>
</g>
</svg>
