<svg width="375" height="667" viewBox="0 0 375 667" fill="none" xmlns="http://www.w3.org/2000/svg">
<defs>
<clipPath id="clip0">
<rect width="375" height="667" fill="white"/>
</clipPath>
</defs>
<rect width="375" height="667" rx="24" fill="white"/>
<g clip-path="url(#clip0)">
<path d="M103 266C103 280.359 91.1355 292 76.5 292C61.8645 292 50 280.359 50 266C50 251.641 61.8645 240 76.5 240C91.1355 240 103 251.641 103 266Z" fill="#88CC97"/>
<ellipse cx="324.5" cy="528" rx="34.5" ry="34" fill="#88CC97"/>
<path d="M28.3694 632C28.3694 646.359 16.5049 658 1.86938 658C-12.7662 658 -24.6306 646.359 -24.6306 632C-24.6306 617.641 -12.7662 606 1.86938 606C16.5049 606 28.3694 617.641 28.3694 632Z" fill="#88CC97"/>
<ellipse cx="375" cy="143" rx="51" ry="50" fill="#88CC97"/>
</g>
</svg>
