<svg width="80" height="69" viewBox="0 0 80 69" fill="none" xmlns="http://www.w3.org/2000/svg">
<defs>
<clipPath id="clip0">
<rect width="80" height="68.0269" fill="white"/>
</clipPath>
<clipPath id="clip1">
<rect width="853.78" height="726" fill="white" transform="translate(-389 -332)"/>
</clipPath>
<clipPath id="clip2">
<rect width="853.78" height="726" fill="white" transform="translate(-389 -317)"/>
</clipPath>
<clipPath id="clip3">
<rect width="853.78" height="726" fill="white" transform="translate(-395 -324)"/>
</clipPath>
<clipPath id="clip4">
<rect width="853.78" height="726" fill="white" transform="translate(-380 -339)"/>
</clipPath>
</defs>
<g clip-path="url(#clip0)">
<path d="M26.703 68.0269C41.0376 68.0269 52.6581 65.7616 52.6581 62.9671C52.6581 60.1726 41.0376 57.9072 26.703 57.9072C12.3683 57.9072 0.747803 60.1726 0.747803 62.9671C0.747803 65.7616 12.3683 68.0269 26.703 68.0269Z" fill="#3F3D56"/>
<path d="M5.92655 61.7489C5.92655 61.7489 1.11406 60.4549 0.206103 60.5505C-0.701859 60.6461 1.58163 56.1128 3.1024 56.6657C4.62317 57.2185 6.65085 58.6727 7.80993 56.6188C8.96901 54.5649 9.6193 53.4592 11.0314 53.5698C12.4434 53.6804 14.399 52.6862 15.8101 53.5698C17.2213 54.4534 18.2126 55.5431 20.1616 55.4963C22.1106 55.4494 23.9584 51.0277 25.4763 52.7968C26.9943 54.5658 28.8149 56.1841 30.2419 55.5956C31.669 55.0072 33.2975 55.8917 34.6009 56.8868C35.9043 57.8819 38.1859 57.4396 39.0545 56.6657C39.9231 55.8917 40.5762 55.3389 42.4221 55.4476C44.268 55.5563 50.1346 56.8849 52.3076 58.5397C54.4805 60.1945 49.4834 62.299 47.0931 62.299C44.7028 62.299 44.269 62.9624 42.2047 63.9575C40.1405 64.9526 36.7701 63.4046 34.3835 65.0632C31.997 66.7217 28.9489 64.1786 24.826 65.0632C20.7032 65.9477 21.5671 67.163 19.1768 66.2813C16.7865 65.3995 17.656 65.0632 14.1797 64.8439C10.7034 64.6246 6.90197 65.3967 6.57589 63.9594C6.24981 62.522 4.0797 62.1903 2.77538 61.748C1.47107 61.3057 5.92655 61.7489 5.92655 61.7489Z" fill="#3F3D56"/>
<path d="M65.869 49.8226L66.0564 49.7027L66.1117 49.6671C65.7014 49.5974 65.327 49.3901 65.0502 49.0793C64.7735 48.7685 64.6108 48.3727 64.5889 47.9571C64.5671 47.5415 64.6875 47.1308 64.9302 46.7928C65.1729 46.4547 65.5235 46.2093 65.9243 46.0971L65.9149 46.8523L66.33 46.0306C66.5705 46.0194 66.8108 46.0556 67.0372 46.1373C67.2636 46.2189 67.4718 46.3444 67.6497 46.5065C67.8276 46.6686 67.9719 46.8642 68.0742 47.082C68.1766 47.2999 68.235 47.5358 68.2462 47.7762C68.2462 47.8118 68.2462 47.8455 68.2462 47.8802C68.3926 47.7211 68.5145 47.5411 68.6079 47.3461C68.7841 46.9535 68.7869 46.5103 68.7738 45.9706C68.7457 44.9024 68.6997 43.8258 68.6398 42.752C68.2064 42.704 67.8044 42.503 67.506 42.185C67.2076 41.8671 67.0325 41.4531 67.0122 41.0176C67.0094 40.9623 67.0094 40.907 67.0122 40.8517C67.0122 40.8377 67.0122 40.8236 67.0122 40.8105C67.0122 40.7571 67.0206 40.7046 67.029 40.6521C67.0286 40.6437 67.0286 40.6353 67.029 40.6268C67.0356 40.5828 67.045 40.5397 67.0553 40.4966C67.0553 40.4807 67.0637 40.4647 67.0675 40.4488C67.0806 40.402 67.0946 40.3551 67.1115 40.3101C67.1171 40.2951 67.1227 40.2811 67.1293 40.2661C67.1424 40.2324 67.1565 40.1996 67.1715 40.1668C67.179 40.1499 67.1865 40.1321 67.1949 40.1152L67.2014 40.1021C67.3953 39.7197 67.7171 39.4172 68.1108 39.2474C68.5046 39.0776 68.9454 39.0511 69.3566 39.1726L69.3444 40.1555L69.7548 39.3441C70.0207 39.4973 70.2439 39.7148 70.4037 39.9768C70.5635 40.2388 70.6548 40.5368 70.6693 40.8433C70.6769 41.0021 70.6634 41.1612 70.629 41.3165C70.629 41.3296 70.6216 41.3418 70.6187 41.3549C70.6159 41.368 70.6066 41.4036 70.6 41.427C70.5934 41.4505 70.5822 41.488 70.5719 41.5207C70.5616 41.5535 70.5569 41.5657 70.5485 41.5882C70.54 41.6107 70.5213 41.6519 70.5072 41.6819C70.4988 41.6997 70.4913 41.7185 70.4829 41.7372C70.4594 41.784 70.4341 41.8309 70.407 41.8759C70.3976 41.8918 70.3864 41.9068 70.377 41.9218C70.3573 41.9518 70.3376 41.9827 70.3161 42.0155C70.2945 42.0483 70.2889 42.0511 70.2749 42.068C70.2608 42.0848 70.2346 42.1186 70.213 42.1429C70.1915 42.1673 70.1821 42.1767 70.1662 42.1935C70.1502 42.2104 70.1212 42.2404 70.0968 42.2629L70.049 42.3078L69.9656 42.3772L69.9225 42.4109C69.8785 42.4428 69.8345 42.4727 69.7876 42.5046L69.7614 42.5196C69.7228 42.5432 69.6831 42.5647 69.6424 42.5842L69.5899 42.6077C69.5571 42.6227 69.5234 42.6377 69.4887 42.6498L69.4287 42.6714C69.395 42.6836 69.3613 42.6939 69.3266 42.7032L69.2648 42.7192C69.2273 42.7285 69.1889 42.736 69.1504 42.7426H69.1429C69.1679 43.1961 69.1904 43.6493 69.2104 44.1022C69.3196 43.8778 69.4734 43.6781 69.6626 43.5153C69.8517 43.3525 70.0721 43.2301 70.3103 43.1556C70.5484 43.0811 70.7993 43.0561 71.0475 43.0821C71.2956 43.1081 71.5359 43.1845 71.7535 43.3067L71.4302 44.195L72.0964 43.555C72.4536 43.8815 72.6666 44.3365 72.6886 44.82C72.6969 44.9897 72.6811 45.1597 72.6417 45.325C72.5588 45.6836 72.3698 46.0088 72.0993 46.2584C71.8288 46.508 71.4894 46.6703 71.1253 46.7242C70.7612 46.7781 70.3894 46.7211 70.0582 46.5606C69.727 46.4001 69.4518 46.1436 69.2685 45.8244C69.2685 45.8703 69.2685 45.9181 69.2685 45.9622C69.2807 46.4382 69.2957 47.0304 69.0586 47.5551C68.8891 47.896 68.6607 48.2043 68.384 48.4658C68.2172 48.6354 68.0448 48.7994 67.8686 48.9587C67.6943 49.1918 67.4673 49.3803 67.2061 49.5087C66.9157 49.7324 66.6152 49.9419 66.3047 50.1375L66.1426 50.2555C65.9683 50.3642 65.7894 50.4748 65.6141 50.59L65.7079 50.5825C66.0961 50.5644 66.4802 50.6702 66.8044 50.8846C67.1286 51.099 67.3763 51.4109 67.5116 51.7754L66.3666 52.7124L67.6269 52.42C67.6257 52.7292 67.5465 53.0331 67.3965 53.3035C67.2465 53.5739 67.0306 53.8021 66.7689 53.9668C66.5072 54.1315 66.2081 54.2274 65.8995 54.2456C65.5908 54.2638 65.2825 54.2038 65.0032 54.071C65.0323 54.1057 65.0604 54.1413 65.0885 54.1769L65.2553 54.3849C66.0049 55.3294 66.2082 56.2252 65.839 56.9083L65.3902 56.6656C65.7491 56.0003 65.2094 55.1495 64.8552 54.6979C64.8018 54.6295 64.7465 54.5611 64.6912 54.4927C64.2152 53.9014 63.6755 53.2305 63.6886 52.4078C63.698 51.1672 64.902 50.4214 65.869 49.8226Z" fill="#F1F1F1"/>
<path d="M56.8128 48.5737L56.5252 48.3937C56.4971 48.3769 56.4699 48.3591 56.4427 48.3413C57.0565 48.2361 57.6163 47.9253 58.0301 47.4599C58.4439 46.9945 58.6871 46.4022 58.7198 45.7803C58.7525 45.1584 58.5727 44.5439 58.21 44.0377C57.8473 43.5315 57.3232 43.1637 56.7238 42.9947L56.7379 44.1257L56.1166 42.8954H56.1091C55.7491 42.8786 55.3893 42.9329 55.0502 43.0553C54.7112 43.1776 54.3995 43.3655 54.1331 43.6082C53.8667 43.851 53.6507 44.1439 53.4974 44.4701C53.3442 44.7963 53.2567 45.1496 53.24 45.5096C53.24 45.5621 53.24 45.6136 53.24 45.6652C53.0206 45.4264 52.8377 45.1564 52.6975 44.864C52.4342 44.2775 52.4295 43.6131 52.4501 42.8026C52.4913 41.2022 52.5607 39.5896 52.6506 37.9826C53.2992 37.9104 53.9008 37.6094 54.3473 37.1335C54.7939 36.6576 55.0561 36.038 55.0869 35.3862C55.0869 35.3018 55.0869 35.2194 55.0869 35.1369V35.0751C55.0812 34.9954 55.0737 34.9167 55.0616 34.839C55.0616 34.8258 55.0616 34.8137 55.055 34.8005C55.0438 34.7349 55.0297 34.6703 55.0138 34.6056C55.0081 34.5813 55.0025 34.5579 54.996 34.5335C54.9763 34.4632 54.9557 34.3948 54.9304 34.3264C54.9229 34.3039 54.9135 34.2824 54.9041 34.2599C54.8845 34.2093 54.8639 34.1606 54.8414 34.1118C54.8292 34.0856 54.8179 34.0603 54.8058 34.035C54.8023 34.0286 54.7991 34.0221 54.7964 34.0153C54.577 33.5827 54.2467 33.2159 53.8393 32.9525C53.4319 32.6892 52.9619 32.5386 52.4773 32.5161C52.1723 32.5024 51.8671 32.5391 51.574 32.6248L51.5918 34.0968L50.9781 32.8787C50.4725 33.1672 50.0725 33.6098 49.8364 34.1419C49.6004 34.6739 49.5408 35.2676 49.6663 35.8359C49.6663 35.8547 49.6766 35.8734 49.6813 35.8931C49.6897 35.9296 49.6991 35.9652 49.7084 36.0008C49.7178 36.0365 49.7365 36.0946 49.7515 36.1367C49.7665 36.1789 49.774 36.2042 49.7871 36.237C49.8049 36.2857 49.8265 36.3307 49.848 36.3803C49.8602 36.4085 49.8715 36.4366 49.8846 36.4637C49.9193 36.534 49.9567 36.6033 49.998 36.6708C50.012 36.6952 50.028 36.7177 50.0429 36.7402C50.0729 36.7861 50.102 36.8339 50.1366 36.8751C50.1563 36.9023 50.1779 36.9276 50.1985 36.9538C50.2191 36.98 50.2594 37.0297 50.2922 37.0662L50.3615 37.1421C50.3953 37.1777 50.4299 37.2124 50.4655 37.2461L50.5377 37.3127C50.578 37.3483 50.6201 37.3829 50.6632 37.4157C50.6848 37.4326 50.7054 37.4504 50.7279 37.4673C50.7926 37.5151 50.8591 37.561 50.9284 37.6022C50.9415 37.6106 50.9556 37.6172 50.9687 37.6247C51.0268 37.6584 51.0858 37.6912 51.1458 37.7184L51.2254 37.754C51.2751 37.7765 51.3248 37.798 51.3763 37.8168C51.4063 37.829 51.4363 37.8393 51.47 37.8496C51.5206 37.8664 51.5721 37.8824 51.6237 37.8964L51.7174 37.9208C51.7745 37.9339 51.8317 37.9451 51.8889 37.9555H51.9001C51.8614 38.6339 51.8276 39.3122 51.7989 39.9906C51.6352 39.6547 51.4047 39.3557 51.1213 39.1121C50.838 38.8685 50.5078 38.6854 50.1511 38.5739C49.7945 38.4625 49.4188 38.4251 49.0471 38.4641C48.6755 38.5031 48.3158 38.6176 47.99 38.8006L48.4753 40.1293L47.4774 39.1717C47.2123 39.4137 46.9976 39.7056 46.8455 40.0307C46.6934 40.3558 46.6069 40.7078 46.591 41.0663C46.5783 41.3204 46.6016 41.575 46.6603 41.8225C46.7852 42.3582 47.0682 42.844 47.4727 43.2167C47.8771 43.5895 48.3843 43.832 48.9284 43.9129C49.4724 43.9937 50.0282 43.9091 50.5236 43.67C51.0189 43.4309 51.431 43.0484 51.7061 42.5721C51.7061 42.6414 51.7061 42.7108 51.6996 42.7792C51.6818 43.4922 51.6583 44.3787 52.0135 45.1704C52.2543 45.7073 52.6422 46.1421 53.0245 46.5328C53.2744 46.7877 53.5317 47.0338 53.7966 47.2712C54.0567 47.6207 54.3962 47.9034 54.787 48.0958C55.2243 48.43 55.6747 48.7423 56.1382 49.0328L56.4287 49.2127C56.6891 49.3748 56.9571 49.5416 57.2195 49.714C57.1736 49.714 57.1258 49.7046 57.0808 49.7028C56.4993 49.6753 55.9241 49.8336 55.4385 50.1546C54.9529 50.4757 54.582 50.9429 54.3794 51.4887L56.0932 52.8839L54.207 52.4473C54.2079 52.9113 54.3263 53.3675 54.5512 53.7734C54.7761 54.1793 55.1001 54.5216 55.4931 54.7685C55.886 55.0153 56.3351 55.1585 56.7984 55.1849C57.2616 55.2112 57.7241 55.1198 58.1424 54.9191C58.0993 54.9716 58.0572 55.024 58.015 55.0774C57.9307 55.1824 57.8464 55.2864 57.7648 55.3895C56.6489 56.8034 56.3387 58.1443 56.8906 59.1675L57.5634 58.8049C57.0255 57.8088 57.8342 56.5345 58.3645 55.8636C58.4442 55.7615 58.5266 55.6593 58.61 55.5563C59.3231 54.6708 60.1308 53.6663 60.1092 52.4351C60.0633 50.5882 58.2614 49.4741 56.8128 48.5737Z" fill="#F1F1F1"/>
<path d="M42.9123 62.7384C42.9123 62.7384 39.6693 61.8801 39.0584 61.9429C38.4474 62.0057 39.9851 59.0063 41.0092 59.3717C42.0334 59.7372 43.4005 60.7004 44.181 59.3408C44.9615 57.9812 45.3991 57.2494 46.352 57.3225C47.305 57.3956 48.6205 56.7369 49.5716 57.3225C50.5227 57.9081 51.1898 58.6287 52.5035 58.5978C53.8172 58.5668 55.0606 55.6396 56.0848 56.81C57.1089 57.9803 58.3336 59.0532 59.295 58.6634C60.2563 58.2736 61.3564 58.8592 62.2325 59.5179C63.1086 60.1766 64.6472 59.8843 65.2309 59.3717C65.8147 58.8592 66.256 58.4938 67.5003 58.5668C68.7447 58.6399 72.6961 59.5179 74.1597 60.6161C75.6233 61.7143 72.2566 63.1039 70.6468 63.1039C69.037 63.1039 68.7438 63.5433 67.3532 64.202C65.9627 64.8607 63.6942 63.8357 62.0844 64.9338C60.4746 66.032 58.4254 64.3482 55.6444 64.9338C52.8633 65.5195 53.449 66.3244 51.8382 65.7387C50.2275 65.1531 50.8141 64.9338 48.4725 64.7877C46.1309 64.6415 43.5691 65.1531 43.3489 64.202C43.1287 63.251 41.6623 63.0308 40.7881 62.7384C39.9138 62.4461 42.9123 62.7384 42.9123 62.7384Z" fill="#3F3D56"/>
<path d="M69.7706 52.6206L68.515 56.4689L68.4607 56.6366L66.359 63.0795L62.7609 65.5111L45.2885 58.164L46.9441 51.4681L47.0322 51.1158L47.9186 47.5317L47.9205 47.5233L53.2989 46.8505L69.7706 52.6206Z" fill="#F8CE6D"/>
<path opacity="0.1" d="M69.7707 52.6206L66.3591 63.0795L62.7609 65.5111L66.0639 54.0974L47.9187 47.5317L47.9206 47.5233L53.299 46.8505L69.7707 52.6206Z" fill="black"/>
<path opacity="0.1" d="M51.8391 48.2495L51.5496 48.0733L54.4524 47.7688L66.8884 52.1652L66.538 52.3489L54.2697 48.0227L51.8391 48.2495Z" fill="black"/>
<path opacity="0.1" d="M68.5151 56.4689L64.8833 58.177L47.0323 51.1157L46.9442 51.468L64.8111 58.4281L68.4608 56.6366" fill="black"/>
<path d="M49.1883 50.0597C49.2906 49.73 49.0852 49.3732 48.7293 49.2627C48.3735 49.1522 48.002 49.3299 47.8997 49.6595C47.7973 49.9892 48.0028 50.346 48.3587 50.4565C48.7145 50.567 49.0859 50.3893 49.1883 50.0597Z" fill="#3F3D56"/>
<path d="M64.9217 56.1516C65.024 55.8219 64.8185 55.4651 64.4627 55.3546C64.1069 55.2442 63.7354 55.4218 63.6331 55.7515C63.5307 56.0811 63.7362 56.4379 64.092 56.5484C64.4479 56.6589 64.8193 56.4812 64.9217 56.1516Z" fill="#3F3D56"/>
<path d="M62.4352 63.7174C62.5376 63.3878 62.3321 63.031 61.9763 62.9205C61.6204 62.81 61.249 62.9877 61.1466 63.3173C61.0443 63.647 61.2498 64.0038 61.6056 64.1142C61.9614 64.2247 62.3329 64.0471 62.4352 63.7174Z" fill="#3F3D56"/>
<path d="M47.2632 57.3695C47.3656 57.0398 47.1601 56.683 46.8043 56.5725C46.4484 56.462 46.077 56.6397 45.9746 56.9694C45.8723 57.299 46.0778 57.6558 46.4336 57.7663C46.7894 57.8768 47.1609 57.6991 47.2632 57.3695Z" fill="#3F3D56"/>
<path d="M50.0466 47.9168C50.0091 48.0386 49.7084 47.9168 49.326 47.7969C48.9437 47.6769 48.6458 47.5458 48.6832 47.4221C48.7207 47.2984 49.0805 47.2347 49.4628 47.3537C49.8452 47.4727 50.085 47.795 50.0466 47.9168Z" fill="#3F3D56"/>
<path d="M51.9715 47.4778C52.0092 47.3562 51.7586 47.1703 51.4116 47.0626C51.0647 46.9549 50.7528 46.9661 50.7151 47.0877C50.6773 47.2092 50.928 47.3951 51.2749 47.5029C51.6219 47.6106 51.9337 47.5993 51.9715 47.4778Z" fill="#3F3D56"/>
<path d="M58.1387 50.8797C58.1012 51.0015 57.7255 50.889 57.361 50.7756C56.9965 50.6623 56.7126 50.5358 56.75 50.4139C56.7875 50.2921 57.1333 50.2265 57.4996 50.3362C57.866 50.4458 58.1781 50.756 58.1387 50.8797Z" fill="#3F3D56"/>
<path d="M65.9121 53.671C65.8699 53.8078 65.4707 53.6888 65.0838 53.5688C64.6968 53.4489 64.396 53.3111 64.4382 53.1743C64.4803 53.0375 64.8504 52.9541 65.2374 53.0741C65.6244 53.194 65.9552 53.5342 65.9121 53.671Z" fill="#3F3D56"/>
<path d="M68.1853 53.343C68.1422 53.4798 67.7439 53.3608 67.357 53.2409C66.97 53.1209 66.6683 52.9832 66.7114 52.8464C66.7545 52.7096 67.1237 52.6262 67.5106 52.7461C67.8976 52.8661 68.2274 53.2062 68.1853 53.343Z" fill="#3F3D56"/>
<path d="M69.3059 52.6749C69.2628 52.8117 68.9311 52.7143 68.6144 52.615C68.2977 52.5156 68.0522 52.3957 68.0906 52.2589C68.1291 52.1221 68.4486 52.0209 68.7681 52.1202C69.0876 52.2195 69.3481 52.5381 69.3059 52.6749Z" fill="#3F3D56"/>
<path d="M61.7995 49.937C61.7658 50.0456 61.4247 49.9454 61.1005 49.8433C60.7763 49.7411 60.5168 49.6268 60.5515 49.5181C60.5861 49.4094 60.8953 49.3467 61.2233 49.4478C61.5512 49.549 61.8323 49.8273 61.7995 49.937Z" fill="#3F3D56"/>
<path d="M54.5042 47.3683C54.542 47.2467 54.3298 47.0728 54.0303 46.9798C53.7308 46.8868 53.4574 46.9099 53.4197 47.0315C53.3819 47.1531 53.5941 47.327 53.8936 47.42C54.1931 47.513 54.4665 47.4899 54.5042 47.3683Z" fill="#3F3D56"/>
<path opacity="0.1" d="M57.8969 54.5573C57.9368 54.4286 57.9317 54.2901 57.8822 54.1648C57.8328 54.0394 57.7421 53.9346 57.6251 53.8677C57.6809 53.8043 57.7227 53.73 57.7479 53.6494C57.7783 53.5516 57.7828 53.4476 57.761 53.3475C57.7392 53.2474 57.6918 53.1547 57.6234 53.0784C57.5551 53.0022 57.4681 52.9449 57.371 52.9123C57.2739 52.8797 57.17 52.8728 57.0695 52.8923C57.109 52.7563 57.0984 52.6106 57.0397 52.4817C56.9811 52.3528 56.8781 52.2492 56.7496 52.1897C56.6211 52.1302 56.4755 52.1188 56.3392 52.1574C56.203 52.1961 56.0851 52.2823 56.0069 52.4004C55.9307 52.3453 55.8425 52.3091 55.7496 52.2949C55.6567 52.2806 55.5617 52.2887 55.4725 52.3185C55.3833 52.3483 55.3025 52.3988 55.2367 52.466C55.1709 52.5332 55.1221 52.6151 55.0943 52.7049C55.0943 52.718 55.0877 52.7302 55.0849 52.7424L55.0643 52.7527C54.9985 52.6934 54.9203 52.6497 54.8354 52.6247C54.7505 52.5997 54.661 52.594 54.5736 52.6081C54.4863 52.6222 54.4031 52.6557 54.3304 52.7062C54.2577 52.7567 54.1972 52.8228 54.1534 52.8997C54.1096 52.9766 54.0836 53.0624 54.0773 53.1507C54.071 53.239 54.0846 53.3276 54.1171 53.4099C54.1495 53.4923 54.2 53.5663 54.2649 53.6265C54.3297 53.6868 54.4073 53.7317 54.4918 53.7581C54.5223 53.7678 54.5537 53.7747 54.5855 53.7787L54.593 53.9961L57.4284 55.1551L57.4096 54.9677C57.5214 54.9527 57.6266 54.9061 57.7129 54.8334C57.7992 54.7607 57.863 54.665 57.8969 54.5573Z" fill="black"/>
<path opacity="0.1" d="M57.2343 56.4183C57.1736 56.5387 57.0738 56.6349 56.9511 56.6909C56.8285 56.747 56.6904 56.7595 56.5597 56.7266C56.5566 56.8108 56.5351 56.8933 56.4969 56.9683C56.462 57.0379 56.4137 57.0999 56.3548 57.1508C56.2959 57.2017 56.2276 57.2404 56.1537 57.2649C56.0798 57.2893 56.0018 57.299 55.9242 57.2933C55.8466 57.2876 55.7709 57.2666 55.7014 57.2316C55.6145 57.1877 55.5396 57.1234 55.483 57.0442C55.4168 57.1689 55.3081 57.2659 55.1766 57.3175C55.0452 57.3691 54.8996 57.3721 54.7662 57.3258C54.6327 57.2796 54.5202 57.1872 54.4489 57.0653C54.3776 56.9434 54.3523 56.8 54.3774 56.661C54.3121 56.652 54.2488 56.6324 54.19 56.6029C54.0497 56.5324 53.9432 56.4091 53.8939 56.2601C53.8445 56.1111 53.8563 55.9486 53.9267 55.8083L53.9454 55.7736L53.9379 55.7521C53.8522 55.7495 53.768 55.728 53.6915 55.6893C53.5507 55.618 53.444 55.4937 53.3949 55.3437C53.3458 55.1937 53.3583 55.0303 53.4296 54.8896C53.5009 54.7488 53.6252 54.6421 53.7752 54.593C53.9252 54.5439 54.0885 54.5563 54.2293 54.6277C54.257 54.6416 54.2837 54.6575 54.309 54.6755L54.4645 54.5246L57.3168 55.6649L57.1734 55.7868C57.2424 55.8754 57.2848 55.9819 57.2956 56.0937C57.3064 56.2055 57.2851 56.3181 57.2343 56.4183Z" fill="black"/>
<path opacity="0.1" d="M55.4934 53.2821L54.8047 55.5141C54.7539 55.6777 54.7676 55.8546 54.8431 56.0084C54.9185 56.1623 55.05 56.2814 55.2105 56.3414C55.2958 56.3732 55.3867 56.3872 55.4777 56.3826C55.5686 56.378 55.6577 56.3549 55.7394 56.3148C55.8212 56.2746 55.8939 56.2182 55.9531 56.149C56.0123 56.0798 56.0567 55.9993 56.0837 55.9123L56.7725 53.6794C56.7988 53.5928 56.8073 53.5017 56.7974 53.4117C56.7875 53.3217 56.7595 53.2347 56.715 53.1559C56.6705 53.077 56.6105 53.008 56.5385 52.9531C56.4666 52.8981 56.3842 52.8583 56.2964 52.8361C56.131 52.7939 55.9556 52.8166 55.8063 52.8995C55.657 52.9825 55.5451 53.1193 55.4934 53.2821Z" fill="black"/>
<path d="M55.5234 53.418L54.8985 55.4194C54.8527 55.5662 54.8649 55.7249 54.9328 55.8628C55.0006 56.0007 55.1188 56.1073 55.263 56.1606C55.3395 56.189 55.421 56.2015 55.5025 56.1973C55.584 56.1931 55.6638 56.1724 55.737 56.1363C55.8102 56.1003 55.8753 56.0497 55.9283 55.9877C55.9813 55.9256 56.0212 55.8534 56.0453 55.7755L56.6666 53.7731C56.6907 53.6951 56.6987 53.613 56.69 53.5318C56.6814 53.4507 56.6563 53.3721 56.6164 53.3009C56.5764 53.2297 56.5223 53.1674 56.4575 53.1178C56.3927 53.0682 56.3185 53.0323 56.2393 53.0123C56.0908 52.9763 55.9341 52.9982 55.8012 53.0736C55.6682 53.1489 55.5689 53.2721 55.5234 53.418Z" fill="#3F3D56"/>
<path d="M47.3761 63.7626C47.3761 63.7626 44.1332 62.9043 43.5222 62.968C42.9113 63.0317 44.4489 60.0305 45.4731 60.3969C46.4972 60.7632 47.8643 61.7246 48.6449 60.365C49.4254 59.0054 49.863 58.2745 50.8159 58.3476C51.7689 58.4207 53.0844 57.762 54.0355 58.3476C54.9865 58.9332 55.6537 59.6529 56.9674 59.6219C58.2811 59.591 59.5245 56.6638 60.5496 57.8351C61.5747 59.0063 62.7984 60.0773 63.7598 59.6885C64.7211 59.2996 65.8212 59.8843 66.6964 60.543C67.5715 61.2017 69.112 60.9085 69.6948 60.3969C70.2776 59.8852 70.7189 59.5179 71.9633 59.591C73.2076 59.6641 77.159 60.543 78.6226 61.6403C80.0862 62.7375 76.7205 64.129 75.1098 64.129C73.4991 64.129 73.2076 64.5675 71.8171 65.2262C70.4266 65.8849 68.1572 64.8608 66.5474 65.958C64.9376 67.0553 62.8884 65.3733 60.1073 65.958C57.3263 66.5427 57.9119 67.3485 56.3021 66.7638C54.6923 66.1791 55.277 65.958 52.9354 65.8118C50.5938 65.6657 48.0321 66.1782 47.8128 65.2262C47.5935 64.2742 46.1309 64.0559 45.2519 63.7626C44.373 63.4693 47.3761 63.7626 47.3761 63.7626Z" fill="#3F3D56"/>
<path d="M74.9026 61.2963C75.1837 60.78 74.8652 60.1466 74.5016 59.6866C74.138 59.2265 73.6939 58.7496 73.7033 58.1602C73.7173 57.3169 74.6122 56.8193 75.3271 56.3714C75.858 56.04 76.3474 55.6465 76.7851 55.1992C76.9688 55.0275 77.1205 54.8244 77.233 54.5995C77.381 54.2697 77.3773 53.8949 77.3679 53.5342C77.3373 52.331 77.2777 51.1289 77.189 49.9276" stroke="#3F3D56" stroke-width="4" stroke-miterlimit="10"/>
<path d="M78.5486 49.862C78.5386 49.6418 78.4733 49.4276 78.3586 49.2392C78.244 49.0509 78.0837 48.8945 77.8926 48.7845L77.5984 49.3673L77.6078 48.6617C77.4671 48.6204 77.3205 48.6027 77.174 48.6092C76.9151 48.6221 76.6659 48.7113 76.4578 48.8656C76.2496 49.0199 76.0918 49.2324 76.0042 49.4763C75.9167 49.7202 75.9034 49.9846 75.9659 50.236C76.0284 50.4875 76.164 50.7148 76.3556 50.8893C76.5472 51.0638 76.7862 51.1776 77.0424 51.2164C77.2986 51.2553 77.5605 51.2174 77.7952 51.1075C78.0299 50.9976 78.2268 50.8206 78.361 50.599C78.4952 50.3773 78.5608 50.1209 78.5495 49.862H78.5486Z" fill="#57B793"/>
<path d="M76.2032 58.7627C76.0653 59.03 75.8396 59.2418 75.5641 59.3626C75.2885 59.4834 74.9799 59.5058 74.6898 59.4261C74.3997 59.3464 74.1458 59.1694 73.9707 58.9247C73.7956 58.6801 73.7099 58.3827 73.728 58.0824C73.746 57.7821 73.8668 57.4971 74.07 57.2752C74.2731 57.0534 74.5464 56.9081 74.844 56.8637C75.1415 56.8193 75.4453 56.8786 75.7044 57.0316C75.9634 57.1845 76.1621 57.4219 76.2669 57.7038L75.4452 58.3757L76.3494 58.1667C76.3485 58.3741 76.2984 58.5784 76.2032 58.7627Z" fill="#57B793"/>
<path d="M75.5538 56.2093C75.2272 56.2321 74.9039 56.1319 74.6474 55.9284C74.3909 55.7249 74.2197 55.4328 74.1676 55.1096C74.1155 54.7863 74.1861 54.4553 74.3656 54.1815C74.5452 53.9076 74.8206 53.7108 75.1378 53.6298L75.1312 54.1713L75.4283 53.582C75.601 53.5731 75.7739 53.5986 75.9368 53.6568C76.0997 53.7151 76.2494 53.8049 76.3775 53.9213C76.5055 54.0376 76.6092 54.1782 76.6827 54.3348C76.7562 54.4914 76.798 54.661 76.8057 54.8338C76.8134 54.9856 76.7944 55.1375 76.7495 55.2826C76.6702 55.5416 76.5128 55.7698 76.2987 55.9357C76.0846 56.1016 75.8244 56.1972 75.5538 56.2093Z" fill="#57B793"/>
<path d="M78.7463 54.0852C78.5444 54.0926 78.3435 54.0533 78.1593 53.9703C77.9752 53.8874 77.8126 53.763 77.6844 53.6069C77.5562 53.4508 77.4657 53.2672 77.4201 53.0705C77.3745 52.8737 77.3749 52.669 77.4214 52.4724C77.4679 52.2759 77.5591 52.0927 77.688 51.9371C77.8169 51.7816 77.98 51.6579 78.1646 51.5758C78.3491 51.4936 78.5501 51.4552 78.7519 51.4635C78.9538 51.4718 79.151 51.5266 79.3281 51.6236L79.0958 52.2608L79.5736 51.8017C79.8297 52.0362 79.9824 52.3627 79.9981 52.7096C80.0044 52.8314 79.9933 52.9535 79.9653 53.0722C79.9004 53.3509 79.7461 53.6008 79.5261 53.7836C79.306 53.9665 79.0321 54.0724 78.7463 54.0852Z" fill="#57B793"/>
<path opacity="0.1" d="M78.3715 50.2125C78.0679 50.2453 77.7728 50.3399 77.4683 50.3587C77.1637 50.3774 76.8292 50.3052 76.6371 50.0682C76.5331 49.9407 76.4806 49.7796 76.3935 49.64C76.3103 49.5103 76.1963 49.4031 76.0618 49.3279C75.9824 49.4938 75.9389 49.6745 75.9338 49.8583C75.9288 50.0421 75.9625 50.2249 76.0327 50.3948C76.1029 50.5647 76.208 50.718 76.3412 50.8447C76.4745 50.9714 76.6329 51.0687 76.8061 51.1302C76.9794 51.1917 77.1636 51.2162 77.3469 51.2019C77.5302 51.1877 77.7085 51.135 77.8702 51.0474C78.0318 50.9598 78.1732 50.8392 78.2853 50.6935C78.3973 50.5477 78.4775 50.38 78.5205 50.2012C78.4712 50.2031 78.4215 50.2069 78.3715 50.2125Z" fill="black"/>
<path opacity="0.1" d="M78.7463 54.0851C78.5199 54.0953 78.2948 54.0468 78.0926 53.9444C77.8905 53.8421 77.7182 53.6893 77.5924 53.5008C77.4666 53.3124 77.3916 53.0947 77.3746 52.8687C77.3576 52.6428 77.3992 52.4163 77.4953 52.2111C77.6001 52.2803 77.6905 52.369 77.7615 52.4725C77.8552 52.614 77.9123 52.778 78.0229 52.9073C78.2272 53.1481 78.5767 53.2268 78.8943 53.2128C79.212 53.1987 79.5184 53.1078 79.8313 53.0788C79.8754 53.0788 79.9251 53.0722 79.9644 53.0713C79.8997 53.35 79.7457 53.5999 79.5258 53.7829C79.3058 53.966 79.0321 54.0721 78.7463 54.0851Z" fill="black"/>
<path opacity="0.1" d="M75.5538 56.2093C75.3293 56.2204 75.1057 56.1735 74.9045 56.0733C74.7032 55.973 74.5312 55.8227 74.4047 55.6368C74.2783 55.451 74.2018 55.2357 74.1825 55.0117C74.1632 54.7877 74.2017 54.5626 74.2945 54.3578C74.4038 54.4288 74.4991 54.5193 74.5756 54.6248C74.6777 54.7691 74.7414 54.9359 74.8567 55.069C75.0788 55.3154 75.4517 55.4026 75.7881 55.3951C76.1245 55.3876 76.4271 55.3079 76.7504 55.2826C76.6711 55.5418 76.5135 55.77 76.2992 55.9359C76.085 56.1019 75.8246 56.1974 75.5538 56.2093Z" fill="black"/>
<path opacity="0.1" d="M76.2032 58.7627C76.0609 59.0805 75.7982 59.3288 75.4729 59.453C75.1475 59.5771 74.7862 59.567 74.4683 59.4247C74.1505 59.2824 73.9022 59.0197 73.778 58.6944C73.6539 58.369 73.6641 58.0077 73.8064 57.6898C73.9144 57.761 74.0114 57.8479 74.094 57.9475C74.2196 58.0993 74.302 58.2726 74.4463 58.416C74.7153 58.6802 75.1491 58.7908 75.5361 58.7992C75.759 58.8003 75.9818 58.7881 76.2032 58.7627Z" fill="black"/>
<path d="M72.9191 60.7014C72.9191 60.7014 73.9573 60.6695 74.2702 60.4465C74.5832 60.2235 75.8632 59.9583 75.9447 60.3153C76.0262 60.6723 77.5039 62.0956 76.3326 62.1013C75.1614 62.1069 73.6096 61.9195 73.2976 61.7265C72.9856 61.5334 72.9191 60.7014 72.9191 60.7014Z" fill="#656380"/>
<path opacity="0.2" d="M76.356 61.9776C75.1838 61.9869 73.6331 61.7902 73.321 61.6028C73.083 61.4575 72.9884 60.9384 72.9565 60.6985H72.9219C72.9219 60.6985 72.9875 61.5362 73.2967 61.7293C73.6059 61.9223 75.1594 62.1106 76.3316 62.1041C76.6699 62.1041 76.7861 61.9813 76.7805 61.8033C76.7308 61.9082 76.6052 61.9748 76.356 61.9776Z" fill="black"/>
<path d="M19.2275 16.7893C19.2208 16.7211 19.2307 16.6523 19.2565 16.5888C19.3324 16.4539 19.5311 16.4904 19.681 16.5288C20.2844 16.6806 20.9197 16.5429 21.54 16.5785C22.1603 16.6141 22.8603 16.9242 22.9849 17.5333C23.4356 17.214 23.824 16.8148 24.1309 16.3555C24.3033 16.0978 24.4532 15.8026 24.4298 15.4934C24.396 15.0474 24.0222 14.7138 23.6755 14.4309L22.6448 13.5875C22.5092 13.4627 22.3525 13.363 22.1819 13.2933C21.9439 13.2118 21.6834 13.2502 21.4323 13.2502C20.6827 13.2502 19.8797 12.9091 19.2106 13.2502C18.9295 13.3936 18.7215 13.6391 18.5191 13.879L17.5971 14.9706C17.5275 15.04 17.4768 15.1261 17.45 15.2208C17.4238 15.3538 17.4922 15.485 17.5156 15.619C17.5596 15.8626 17.4537 16.1222 17.5353 16.3564C17.6693 16.7453 18.1406 16.8005 18.4292 17.0226C18.5369 17.106 18.7056 17.3871 18.833 17.3843C19.0616 17.3815 19.2209 16.9683 19.2275 16.7893Z" fill="#3F3D56"/>
<path d="M19.3792 19.3961C19.3689 19.6997 19.1918 19.9696 19.0213 20.2216C18.7936 20.5571 18.5528 20.9056 18.193 21.093C20.0013 22.0479 22.1078 22.27 24.0755 21.7134C24.3913 21.6196 24.7642 21.4248 24.7455 21.0959C24.3707 20.9937 23.9828 20.8878 23.6642 20.662C23.2838 20.3922 23.0327 19.9724 22.8706 19.5376C22.7084 19.1028 22.626 18.6381 22.5126 18.1855C22.5052 18.1391 22.4851 18.0956 22.4545 18.0599C22.4029 18.023 22.3396 18.0063 22.2765 18.0131L21.0284 17.9906C20.5158 17.9906 19.9593 17.9784 19.4833 18.1958C18.8911 18.4675 19.3961 18.892 19.3792 19.3961Z" fill="#FFC0C6"/>
<path opacity="0.1" d="M19.3792 19.3961C19.3689 19.6997 19.1918 19.9696 19.0213 20.2216C18.7936 20.5571 18.5528 20.9056 18.193 21.093C20.0013 22.0479 22.1078 22.27 24.0755 21.7134C24.3913 21.6196 24.7642 21.4248 24.7455 21.0959C24.3707 20.9937 23.9828 20.8878 23.6642 20.662C23.2838 20.3922 23.0327 19.9724 22.8706 19.5376C22.7084 19.1028 22.626 18.6381 22.5126 18.1855C22.5052 18.1391 22.4851 18.0956 22.4545 18.0599C22.4029 18.023 22.3396 18.0063 22.2765 18.0131L21.0284 17.9906C20.5158 17.9906 19.9593 17.9784 19.4833 18.1958C18.8911 18.4675 19.3961 18.892 19.3792 19.3961Z" fill="black"/>
<path d="M18.2932 62.1462C17.9859 62.6147 17.5839 63.0111 17.2466 63.458C16.9093 63.905 16.6272 64.426 16.6235 64.9854C16.619 65.0209 16.6225 65.057 16.6337 65.091C16.6448 65.1251 16.6634 65.1562 16.6881 65.1821C16.7265 65.2069 16.7709 65.2208 16.8165 65.2224L18.1189 65.3892C18.3169 65.4237 18.5187 65.4306 18.7186 65.4098C18.9339 65.3673 19.1412 65.2918 19.3333 65.1859C19.4801 65.1283 19.608 65.031 19.7025 64.9048C19.7653 64.8017 19.7821 64.6752 19.8421 64.5703C20.023 64.2526 20.4783 64.2667 20.84 64.322C20.944 63.3559 20.677 62.3927 20.4118 61.4575C20.4004 61.4001 20.3757 61.3462 20.3397 61.3001C20.2923 61.2546 20.2338 61.2222 20.1701 61.2064C19.858 61.1043 19.1037 60.7042 18.8414 60.8916C18.6493 61.0303 18.4488 61.8979 18.2932 62.1462Z" fill="#575A88"/>
<path d="M24.573 64.0511C24.8232 63.934 25.0902 63.7832 25.3601 63.845C25.7405 63.9303 25.9101 64.38 26.2334 64.5946C26.432 64.7286 26.6775 64.768 26.9146 64.7989C27.6447 64.8933 28.3805 64.9368 29.1166 64.9291C29.3518 64.9291 29.6479 64.8729 29.705 64.648C29.7622 64.4231 29.5457 64.2442 29.3537 64.127C28.9367 63.8713 28.5021 63.6455 28.0531 63.4515C27.8324 63.37 27.6237 63.259 27.4328 63.1216C27.1114 62.8621 26.9549 62.4554 26.8115 62.0684C26.6963 61.7573 26.5904 61.0855 26.3543 60.8503C26.0957 60.5964 25.748 60.765 25.4238 60.8363C24.9197 60.9468 24.3294 61.0237 24.0052 61.4762C23.5311 62.1387 23.1666 64.7024 24.573 64.0511Z" fill="#575A88"/>
<path d="M17.1229 34.1503C16.6924 35.2095 16.4557 36.3375 16.4238 37.4804C16.4014 38.334 16.4932 39.1848 16.5859 40.0338C16.734 41.408 16.8827 42.7823 17.032 44.1566C17.0796 44.7281 17.1695 45.2953 17.3009 45.8535C17.463 46.4766 17.7263 47.0716 17.9146 47.6845C18.4974 49.5941 18.3316 51.6536 17.9465 53.6129C17.8952 53.8279 17.8682 54.0479 17.8659 54.2688C17.8771 54.5996 18.0046 54.9144 18.087 55.2349C18.5911 57.1885 17.4311 59.3577 18.1882 61.2317C18.2075 61.2987 18.2496 61.3567 18.3072 61.3957C18.3453 61.41 18.3858 61.4164 18.4263 61.4146C18.4669 61.4129 18.5067 61.4029 18.5434 61.3854C18.759 61.3103 18.9661 61.2123 19.1608 61.0931C19.5687 61.5867 20.0957 61.9682 20.6919 62.2015C21.1361 62.0919 21.2195 61.5522 21.3647 61.1184C21.4754 60.8102 21.5656 60.4949 21.6346 60.1748C21.6988 59.782 21.7317 59.3847 21.7329 58.9867L22.1171 45.4609L22.089 49.5885C22.0756 49.9227 22.0966 50.2574 22.1518 50.5873C22.208 50.8619 22.3111 51.1251 22.3701 51.3997C22.4535 51.7923 22.4432 52.199 22.4394 52.6009C22.4161 54.985 22.6343 57.3653 23.0907 59.7054C23.2406 60.4718 23.4205 61.2458 23.8037 61.9251C23.8163 61.9563 23.8353 61.9845 23.8593 62.0081C23.8833 62.0316 23.9119 62.05 23.9433 62.0619C24.0249 62.0797 24.0998 62.0151 24.1617 61.9579C24.5318 61.6307 24.9944 61.4263 25.4856 61.3729C25.9768 61.3196 26.4725 61.4198 26.9043 61.66C26.8218 61.2627 27.2004 60.8007 26.9296 60.499C26.8518 60.4119 26.7356 60.3697 26.6485 60.2938C26.4761 60.1467 26.4349 59.8993 26.4105 59.6735C26.3041 58.6684 26.3041 57.6549 26.4105 56.6498C26.5426 55.3932 26.8396 54.1264 26.6204 52.883C26.4611 51.9806 26.0319 51.1027 26.1172 50.1947C26.1734 49.5856 26.4564 49.0244 26.6513 48.4444C27.5021 45.9088 26.6513 43.0828 27.2669 40.4798C27.4084 39.882 27.622 39.2354 27.3653 38.6779L27.756 38.5589L26.9446 36.7064C26.7722 36.312 26.5923 35.9062 26.2887 35.6026C25.7789 35.0957 25.0172 34.9598 24.306 34.853L18.5209 33.9507C18.0083 33.8673 17.3168 33.6743 17.1229 34.1503Z" fill="#3C354C"/>
<path d="M20.7651 19.383C22.1328 19.383 23.2416 18.2742 23.2416 16.9064C23.2416 15.5387 22.1328 14.4299 20.7651 14.4299C19.3973 14.4299 18.2886 15.5387 18.2886 16.9064C18.2886 18.2742 19.3973 19.383 20.7651 19.383Z" fill="#FFC0C6"/>
<path d="M19.4148 19.8552C19.2947 19.7842 19.1528 19.7592 19.0156 19.785C18.9482 19.809 18.8849 19.8434 18.8282 19.8871L17.657 20.7079C17.489 20.8122 17.3393 20.9432 17.2138 21.0958C17.0132 21.3685 16.9814 21.7311 17.0076 22.0685C17.0657 22.8293 17.373 23.5471 17.5398 24.291C17.7066 25.035 17.7066 25.884 17.2269 26.4799C17.1444 26.5654 17.0755 26.663 17.0226 26.7694C16.994 26.8603 16.981 26.9553 16.9842 27.0505C16.9668 27.4067 16.9743 27.7636 17.0067 28.1187C17.0591 28.5769 17.1941 29.022 17.2672 29.4765C17.3955 30.2504 17.3609 31.0441 17.4602 31.819C17.4558 31.8708 17.4622 31.923 17.479 31.9722C17.4959 32.0214 17.5228 32.0666 17.558 32.1048C17.5933 32.1431 17.6361 32.1736 17.6838 32.1944C17.7315 32.2152 17.783 32.2258 17.835 32.2256C18.4141 32.3104 18.9991 32.3489 19.5844 32.3409C20.2618 32.3409 20.9384 32.3034 21.6149 32.2678L24.6939 32.1057C24.7377 32.1113 24.7823 32.1073 24.8244 32.0939C24.8666 32.0806 24.9053 32.0581 24.9378 32.0283C24.9704 31.9984 24.9961 31.9617 25.013 31.9209C25.0299 31.88 25.0378 31.836 25.0359 31.7918C25.3057 30.4969 25.5775 29.1785 25.45 27.8629C25.3676 27.0131 25.1202 26.1894 24.8878 25.3686C24.7004 24.7033 24.5205 24.0053 24.6611 23.3278C24.7548 22.8808 24.9825 22.4676 25.0415 22.016C25.0756 21.7809 25.0552 21.5412 24.9817 21.3153C24.9083 21.0895 24.7838 20.8836 24.618 20.7135C24.2732 20.3828 23.77 20.2572 23.4261 19.9255C23.3317 19.8182 23.2289 19.7186 23.1188 19.6275C23.0626 19.5827 22.9949 19.5546 22.9236 19.5463C22.8522 19.538 22.7799 19.5499 22.7149 19.5807C22.6515 19.6257 22.599 19.6842 22.5613 19.7522C22.2614 20.2076 21.8116 20.9581 21.1792 20.84C20.4952 20.7173 20.0173 20.1457 19.4148 19.8552Z" fill="#6C63FF"/>
<path d="M25.6028 36.5978C25.3836 36.7617 25.2205 37.0531 25.3217 37.3071C25.6196 37.3602 25.9267 37.3176 26.1988 37.1853C26.374 37.1 26.5923 36.9801 26.7441 37.1037C26.7933 37.151 26.8314 37.2086 26.8556 37.2724C27.0198 37.6205 27.2189 37.9511 27.4497 38.2591C27.6165 38.1803 27.7917 38.0941 27.892 37.9395C27.9525 37.8342 27.9916 37.718 28.0072 37.5975C28.066 37.296 28.1095 36.9917 28.1374 36.6858C28.1571 36.4638 28.1609 36.2173 28.0091 36.0524C27.3579 35.3497 26.1435 36.1939 25.6028 36.5978Z" fill="#FFC0C6"/>
<path d="M19.0728 15.8598C19.0662 15.7919 19.0761 15.7234 19.1019 15.6602C19.1778 15.5253 19.3764 15.5665 19.5263 15.5993C20.1298 15.7521 20.7651 15.6143 21.3854 15.6499C22.0057 15.6855 22.7056 15.9957 22.8302 16.6047C23.2811 16.2853 23.6698 15.8861 23.9771 15.4269C24.1496 15.1692 24.2995 14.8741 24.2761 14.5649C24.2423 14.1189 23.8685 13.7853 23.5218 13.5023L22.491 12.659C22.3555 12.5344 22.1987 12.4351 22.0282 12.3657C21.7902 12.2842 21.5297 12.3226 21.2786 12.3226C20.5289 12.3226 19.7259 11.9815 19.0569 12.3226C18.7758 12.4669 18.5678 12.7124 18.3645 12.9523L17.4434 14.0439C17.3738 14.1132 17.3229 14.1989 17.2953 14.2931C17.2691 14.4262 17.3375 14.5583 17.3619 14.6914C17.405 14.935 17.3 15.1955 17.3806 15.4297C17.5146 15.8186 17.9868 15.8729 18.2754 16.096C18.3832 16.1793 18.5509 16.4605 18.6793 16.4567C18.907 16.453 19.0663 16.0397 19.0728 15.8598Z" fill="#3F3D56"/>
<path d="M25.1887 20.8831C25.448 20.8219 25.7172 20.8152 25.9791 20.8636C26.2411 20.912 26.4902 21.0144 26.7104 21.1642C27.4188 21.6496 27.7102 22.536 27.9567 23.3587L28.5086 25.2036C28.7503 26.0123 28.9939 26.8284 29.0502 27.6708C29.1017 28.4363 28.9967 29.2028 28.8918 29.9627C28.7466 31.015 29.0886 32.1684 29.0933 33.2301C29.0933 34.4482 29.0858 35.7403 28.4655 36.7907C28.4397 36.6988 28.3922 36.6145 28.327 36.5448C28.2617 36.4752 28.1807 36.4223 28.0907 36.3906C27.9111 36.3293 27.7228 36.2977 27.5331 36.2969L25.884 36.191C26.0245 35.9536 26.1455 35.7051 26.2457 35.448C26.8782 33.8232 26.6355 32.0073 26.3834 30.2832C26.3636 30.1188 26.3322 29.956 26.2897 29.7959C26.1235 29.1809 26.0855 28.5382 26.1782 27.9079C26.216 27.6228 26.2257 27.3347 26.2073 27.0477C26.2044 26.9265 26.1786 26.807 26.1314 26.6954C26.0828 26.6035 26.0217 26.519 25.9496 26.4442L25.616 26.0694C25.5888 24.9357 25.4108 23.7934 25.2346 22.6728C25.1491 22.0801 25.1337 21.4794 25.1887 20.8831Z" fill="#6C63FF"/>
<path d="M21.9485 25.8896C20.3467 24.6466 19.2796 22.8392 18.9651 20.8363C18.9107 20.4811 18.7692 20.0173 18.4104 20.0295C18.3016 20.041 18.1971 20.0776 18.1049 20.1363L16.8043 20.8334C16.7113 20.8712 16.6322 20.9366 16.5776 21.0208C16.4923 21.1876 16.6132 21.3797 16.7172 21.5353C17.4171 22.5941 17.4668 23.9387 17.4949 25.2074C17.5033 25.5822 17.5061 25.9767 17.3253 26.3047C17.1782 26.5698 16.9224 26.7647 16.7875 27.0374C16.661 27.2932 16.6553 27.5893 16.6516 27.8751C16.6254 29.914 16.5991 31.9558 16.7059 33.9928C16.7219 34.3002 16.7462 34.6225 16.9102 34.883C17.0629 35.1238 17.315 35.2793 17.5586 35.4265L19.531 36.6183C19.9058 36.846 20.2956 37.0775 20.7294 37.1506C21.1633 37.2236 21.659 37.1 21.9082 36.7373C22.0291 36.5612 22.0825 36.3466 22.1987 36.1676C22.3149 35.9887 22.5369 35.8434 22.7346 35.9231C22.8752 35.9793 22.952 36.1264 23.0157 36.2623C23.1413 36.5218 23.2725 36.7879 23.4777 36.9913C23.6829 37.1946 23.9799 37.3314 24.262 37.2724C24.5056 37.219 24.6958 37.0344 24.871 36.8582C25.4126 36.3157 25.9598 35.7657 26.3581 35.1088C26.4154 35.0325 26.4451 34.939 26.4424 34.8436C26.4168 34.7508 26.3666 34.6666 26.2971 34.6C26.0479 34.2945 25.9495 33.8944 25.8755 33.5065C25.1343 29.6086 26.181 25.5569 25.6047 21.6308C25.5391 21.1811 25.3948 20.7679 25.0575 20.4633C24.7202 20.1588 24.3004 19.9648 23.8872 19.7756C23.7513 19.7137 23.5958 19.65 23.4571 19.7062C23.2275 19.7999 23.2266 20.1157 23.2434 20.3621C23.2629 20.8671 23.2379 21.3729 23.1685 21.8735L22.967 23.7279C22.9478 24.0111 22.8949 24.291 22.8096 24.5618C22.6324 25.0667 22.3372 25.5219 21.9485 25.8896Z" fill="#575A88"/>
<path d="M10.4599 11.157C10.4599 11.157 9.74491 11.7379 8.90067 10.2143C8.05642 8.69076 3.97949 5.02893 3.97949 5.02893C3.97949 5.02893 3.45195 4.54637 5.45622 3.74241C7.46048 2.93846 10.1975 0 10.1975 0C10.1975 0 14.7645 4.06006 15.2114 6.07088C15.6584 8.0817 14.6801 8.42277 13.001 9.49096C11.3219 10.5592 10.4599 11.157 10.4599 11.157Z" fill="#3F3D56"/>
<path d="M23.5489 30.6018L12.0237 9.8311L13.0019 9.49097L24.3323 30.1717C24.3608 30.2241 24.3785 30.2817 24.3845 30.3411C24.3905 30.4004 24.3846 30.4604 24.3672 30.5174C24.3497 30.5745 24.3211 30.6275 24.2829 30.6734C24.2447 30.7192 24.1978 30.757 24.1448 30.7845C24.0413 30.8377 23.9211 30.8483 23.8098 30.8142C23.6985 30.7801 23.6049 30.7039 23.5489 30.6018Z" fill="#656380"/>
<path d="M18.8161 25.2993C19.1179 24.6537 18.8086 23.9088 18.6025 23.2267C18.4383 22.6845 18.3404 22.1245 18.3111 21.5588C18.2915 21.3808 18.3113 21.2007 18.3692 21.0313C18.3998 20.9472 18.4539 20.8737 18.5249 20.8194C18.596 20.7651 18.6811 20.7323 18.7702 20.7249C19.0393 21.1274 19.1467 21.6165 19.071 22.0948C19.2456 22.0498 19.4227 22.015 19.6014 21.9908C19.833 21.9596 20.0682 22.0113 20.2655 22.1366C20.4628 22.2619 20.6095 22.4528 20.6799 22.6757C20.9769 23.6277 21.0781 24.6434 20.6639 25.5336C20.5319 25.797 20.3787 26.0493 20.2057 26.2879L19.3024 27.6072C19.2406 27.7009 19.1647 27.7946 19.056 27.8105C18.9473 27.8264 18.8339 27.7281 18.7543 27.6372C18.4798 27.327 17.9925 26.8754 18.0459 26.4481C18.0993 26.0208 18.6362 25.6788 18.8161 25.2993Z" fill="#FFC0C6"/>
<path d="M16.7284 21.3197C15.8111 21.2157 14.7607 21.464 14.2809 22.2568C14.0401 22.6569 13.9802 23.1366 13.938 23.6014C13.879 24.2526 13.8443 24.9057 13.8115 25.5578L13.6344 28.991C13.6128 29.4014 13.5922 29.8128 13.5847 30.2232C13.5634 30.5441 13.598 30.8662 13.6869 31.1752C13.8002 31.5078 14.0251 31.7889 14.2491 32.0625C14.473 32.3362 14.7532 32.6182 15.0821 32.5385C15.2167 32.4941 15.339 32.4187 15.4391 32.3184L16.1887 31.6699C16.6984 31.2324 17.2138 30.7882 17.6017 30.2391C17.7891 29.9749 17.9428 29.6891 18.132 29.4267C18.6886 28.6546 19.5451 28.069 19.8383 27.1639C19.5572 27.1489 19.1487 27.0561 19.0194 26.8069C18.951 26.6747 18.9416 26.5173 18.8657 26.3908C18.7505 26.1978 18.4909 26.0929 18.4525 25.8717C17.716 26.4649 17.0995 27.1536 16.511 27.8929L16.75 26.9643C16.7667 26.8771 16.8029 26.7948 16.8558 26.7235C16.9397 26.6501 17.0345 26.5903 17.1369 26.5464C17.4283 26.3702 17.5389 26.0057 17.5979 25.6703C17.8614 24.1624 17.5512 22.6105 16.7284 21.3197Z" fill="#6C63FF"/>
<g clip-path="url(#clip1)">
<g clip-path="url(#clip2)">
<g clip-path="url(#clip3)">
<g clip-path="url(#clip4)">
</g>
</g>
</g>
</g>
</g>
</svg>
