<svg width="80" height="86" viewBox="0 0 80 86" fill="none" xmlns="http://www.w3.org/2000/svg">
<defs>
<clipPath id="clip0">
<rect width="80" height="85.5401" fill="white"/>
</clipPath>
</defs>
<g clip-path="url(#clip0)">
<path d="M42.7868 74.3569C63.3199 74.3569 79.9653 57.7115 79.9653 37.1785C79.9653 16.6454 63.3199 0 42.7868 0C22.2538 0 5.6084 16.6454 5.6084 37.1785C5.6084 57.7115 22.2538 74.3569 42.7868 74.3569Z" fill="#F2F2F2"/>
<path d="M79.9669 70.3784C79.9669 71.1417 62.6413 75.2785 41.2691 75.2785C19.897 75.2785 2.57141 71.1417 2.57141 70.3784C2.57141 69.6151 19.897 70.881 41.2691 70.881C62.6413 70.881 79.9669 69.6151 79.9669 70.3784Z" fill="#3F3D56"/>
<path opacity="0.1" d="M79.9669 70.3784C79.9669 71.1417 62.6413 75.2785 41.2691 75.2785C19.897 75.2785 2.57141 71.1417 2.57141 70.3784C2.57141 69.6151 19.897 70.881 41.2691 70.881C62.6413 70.881 79.9669 69.6151 79.9669 70.3784Z" fill="black"/>
<path d="M41.2691 71.7605C62.6413 71.7605 79.9669 71.1417 79.9669 70.3784C79.9669 69.6151 62.6413 68.9963 41.2691 68.9963C19.897 68.9963 2.57141 69.6151 2.57141 70.3784C2.57141 71.1417 19.897 71.7605 41.2691 71.7605Z" fill="#3F3D56"/>
<path d="M78.2411 70.0014V57.5629" stroke="#3F3D56" stroke-width="2" stroke-miterlimit="10"/>
<path d="M78.241 59.3219C79.2125 59.3219 80 58.5343 80 57.5629C80 56.5914 79.2125 55.8039 78.241 55.8039C77.2696 55.8039 76.4821 56.5914 76.4821 57.5629C76.4821 58.5343 77.2696 59.3219 78.241 59.3219Z" fill="#3F3D56"/>
<path d="M78.241 65.2291C78.241 65.2291 77.9897 59.8245 72.8384 60.4527L78.241 65.2291Z" fill="#3F3D56"/>
<path d="M7.16162 70.9287V29.9999" stroke="#3F3D56" stroke-width="2" stroke-miterlimit="10"/>
<path d="M7.16157 31.7392C8.13303 31.7392 8.92056 30.9517 8.92056 29.9802C8.92056 29.0088 8.13303 28.2213 7.16157 28.2213C6.19011 28.2213 5.40259 29.0088 5.40259 29.9802C5.40259 30.9517 6.19011 31.7392 7.16157 31.7392Z" fill="#3F3D56"/>
<path d="M1.75899 61.7569C2.73045 61.7569 3.51798 60.9693 3.51798 59.9979C3.51798 59.0264 2.73045 58.2389 1.75899 58.2389C0.787526 58.2389 0 59.0264 0 59.9979C0 60.9693 0.787526 61.7569 1.75899 61.7569Z" fill="#3F3D56"/>
<path d="M7.16164 38.9653C7.16164 38.9653 6.91035 33.5607 1.75903 34.1889L7.16164 38.9653Z" fill="#3F3D56"/>
<path d="M7.16164 54.2866C7.16164 54.2866 6.91035 48.882 1.75903 49.5102L7.16164 54.2866Z" fill="#3F3D56"/>
<path d="M7.16163 70.4452C7.16163 70.4452 8.29241 60.5004 1.75903 59.9979" stroke="#3F3D56" stroke-width="2" stroke-miterlimit="10"/>
<path d="M12.565 61.7569C13.5365 61.7569 14.324 60.9693 14.324 59.9979C14.324 59.0264 13.5365 58.2389 12.565 58.2389C11.5936 58.2389 10.806 59.0264 10.806 59.9979C10.806 60.9693 11.5936 61.7569 12.565 61.7569Z" fill="#3F3D56"/>
<path d="M7.1623 70.4452C7.1623 70.4452 6.03151 60.5004 12.5649 59.9979" stroke="#3F3D56" stroke-width="2" stroke-miterlimit="10"/>
<path d="M12.6722 45.2569C13.6437 45.2569 14.4312 44.4694 14.4312 43.4979C14.4312 42.5265 13.6437 41.739 12.6722 41.739C11.7007 41.739 10.9132 42.5265 10.9132 43.4979C10.9132 44.4694 11.7007 45.2569 12.6722 45.2569Z" fill="#3F3D56"/>
<path d="M7.26947 53.9452C7.26947 53.9452 6.13869 44.0005 12.6721 43.4979" stroke="#3F3D56" stroke-width="2" stroke-miterlimit="10"/>
<path d="M64.7118 69.7502V44.8731" stroke="#3F3D56" stroke-width="2" stroke-miterlimit="10"/>
<path d="M64.7117 46.632C65.6832 46.632 66.4707 45.8445 66.4707 44.873C66.4707 43.9016 65.6832 43.114 64.7117 43.114C63.7403 43.114 62.9528 43.9016 62.9528 44.873C62.9528 45.8445 63.7403 46.632 64.7117 46.632Z" fill="#3F3D56"/>
<path d="M64.7118 52.0366C64.7118 52.0366 64.9631 46.632 70.1144 47.2602L64.7118 52.0366Z" fill="#3F3D56"/>
<path d="M64.7117 69.2667C64.7117 69.2667 63.581 59.3219 70.1143 58.8193" stroke="#3F3D56" stroke-width="2" stroke-miterlimit="10"/>
<path d="M70.1143 60.5783C71.0858 60.5783 71.8733 59.7907 71.8733 58.8193C71.8733 57.8478 71.0858 57.0603 70.1143 57.0603C69.1429 57.0603 68.3553 57.8478 68.3553 58.8193C68.3553 59.7907 69.1429 60.5783 70.1143 60.5783Z" fill="#3F3D56"/>
<path d="M62.6082 25.9285C66.3953 25.9285 69.4653 22.8584 69.4653 19.0714C69.4653 15.2843 66.3953 12.2142 62.6082 12.2142C58.8211 12.2142 55.7511 15.2843 55.7511 19.0714C55.7511 22.8584 58.8211 25.9285 62.6082 25.9285Z" fill="#FF6584"/>
<path d="M51.2936 66.743C55.9683 66.743 59.7578 62.9534 59.7578 58.2787C59.7578 53.604 55.9683 49.8145 51.2936 49.8145C46.6189 49.8145 42.8293 53.604 42.8293 58.2787C42.8293 62.9534 46.6189 66.743 51.2936 66.743Z" fill="#2F2E41"/>
<path d="M52.5792 69.5287H55.1506V64.9216H52.5792V69.5287Z" fill="#2F2E41"/>
<path d="M47.4364 69.5287H50.0078V64.9216H47.4364V69.5287Z" fill="#2F2E41"/>
<path d="M48.5883 70.7068C49.6132 70.115 50.2642 69.3237 50.0423 68.9394C49.8204 68.5551 48.8096 68.7232 47.7847 69.3149C46.7598 69.9067 46.1088 70.6979 46.3307 71.0823C46.5526 71.4666 47.5634 71.2985 48.5883 70.7068Z" fill="#2F2E41"/>
<path d="M53.6239 70.7068C54.6489 70.115 55.2998 69.3237 55.0779 68.9394C54.856 68.5551 53.8453 68.7232 52.8204 69.3149C51.7955 69.9067 51.1445 70.6979 51.3664 71.0823C51.5883 71.4666 52.599 71.2985 53.6239 70.7068Z" fill="#2F2E41"/>
<path d="M51.0792 59.0287C52.6769 59.0287 53.9721 57.7335 53.9721 56.1358C53.9721 54.5382 52.6769 53.243 51.0792 53.243C49.4816 53.243 48.1864 54.5382 48.1864 56.1358C48.1864 57.7335 49.4816 59.0287 51.0792 59.0287Z" fill="white"/>
<path d="M50.0942 55.868C50.6267 55.868 51.0584 55.4363 51.0584 54.9037C51.0584 54.3712 50.6267 53.9395 50.0942 53.9395C49.5616 53.9395 49.1299 54.3712 49.1299 54.9037C49.1299 55.4363 49.5616 55.868 50.0942 55.868Z" fill="#3F3D56"/>
<path d="M59.5043 50.4072C60.1878 47.3464 58.003 44.2536 54.6246 43.4992C51.2461 42.7448 47.9533 44.6146 47.2699 47.6754C46.5864 50.7362 48.8254 51.865 52.2039 52.6194C55.5823 53.3738 58.8209 53.468 59.5043 50.4072Z" fill="#6C63FF"/>
<path d="M47.7685 57.0344C48.0572 56.3598 46.5493 55.0674 44.4005 54.1477C42.2517 53.228 40.2757 53.0293 39.987 53.7039C39.6983 54.3784 41.2062 55.6709 43.355 56.5905C45.5038 57.5102 47.4798 57.709 47.7685 57.0344Z" fill="#2F2E41"/>
<path d="M63.6255 62.713C63.9142 62.0384 62.4064 60.746 60.2576 59.8263C58.1088 58.9066 56.1328 58.7079 55.8441 59.3825C55.5553 60.057 57.0632 61.3494 59.212 62.2691C61.3608 63.1888 63.3368 63.3875 63.6255 62.713Z" fill="#2F2E41"/>
<path d="M52.987 61.9751C52.987 62.4866 52.7838 62.9771 52.4221 63.3388C52.0605 63.7005 51.5699 63.9037 51.0584 63.9037C50.547 63.9037 50.0564 63.7005 49.6947 63.3388C49.3331 62.9771 49.1299 62.4866 49.1299 61.9751C49.1299 60.91 49.9933 60.6894 51.0584 60.6894C52.1235 60.6894 52.987 60.91 52.987 61.9751Z" fill="white"/>
<path d="M41.2051 55.7515V43.3129" stroke="#6C63FF" stroke-width="2" stroke-miterlimit="10"/>
<path d="M41.2052 45.0719C42.1766 45.0719 42.9641 44.2844 42.9641 43.3129C42.9641 42.3415 42.1766 41.554 41.2052 41.554C40.2337 41.554 39.4462 42.3415 39.4462 43.3129C39.4462 44.2844 40.2337 45.0719 41.2052 45.0719Z" fill="#6C63FF"/>
<path d="M41.2052 50.979C41.2052 50.979 40.9539 45.5745 35.8026 46.2027L41.2052 50.979Z" fill="#6C63FF"/>
<path d="M24.6677 47.235L25.3495 48.8421H25.9534L25.0963 44.7707C25.0963 42.1574 23.8349 39.9493 21.2216 39.9493H21.2216C20.3454 39.9493 19.505 40.2974 18.8854 40.917C18.2658 41.5366 17.9177 42.3769 17.9177 43.2532V47.2462C17.9177 47.4557 17.959 47.6633 18.0392 47.8569C18.1194 48.0505 18.237 48.2265 18.3852 48.3747C18.5334 48.5229 18.7093 48.6404 18.9029 48.7206C19.0966 48.8008 19.3041 48.8421 19.5137 48.8421H24.199L24.6677 47.235Z" fill="#2F2E41"/>
<path d="M27.519 63.3974C27.519 63.3974 36.4118 62.326 37.4832 64.2545C38.5547 66.1831 37.8047 67.7902 36.4118 68.7545C35.019 69.7188 27.3047 74.1116 27.3047 74.1116L26.6619 75.1831L25.269 74.9688L23.8761 73.6831L24.519 72.5045C24.519 72.5045 29.8761 69.2902 29.9833 68.4331C29.9833 68.4331 25.0547 70.6831 24.519 70.2545C23.9833 69.8259 17.9833 67.7902 18.9476 66.6117C19.9119 65.4331 22.3762 63.7188 22.3762 63.7188L27.519 63.3974Z" fill="#2F2E41"/>
<path opacity="0.1" d="M27.519 63.3974C27.519 63.3974 36.4118 62.326 37.4832 64.2545C38.5547 66.1831 37.8047 67.7902 36.4118 68.7545C35.019 69.7188 27.3047 74.1116 27.3047 74.1116L26.6619 75.1831L25.269 74.9688L23.8761 73.6831L24.519 72.5045C24.519 72.5045 29.8761 69.2902 29.9833 68.4331C29.9833 68.4331 25.0547 70.6831 24.519 70.2545C23.9833 69.8259 17.9833 67.7902 18.9476 66.6117C19.9119 65.4331 22.3762 63.7188 22.3762 63.7188L27.519 63.3974Z" fill="black"/>
<path d="M26.3405 74.2187C26.3405 74.2187 27.9476 73.8973 27.6262 74.9687C27.3048 76.0401 27.0905 78.183 27.6262 78.7187C28.1619 79.2544 29.8762 81.6115 28.1619 81.8258C26.4476 82.0401 24.6262 79.8973 24.6262 79.8973C24.6262 79.8973 23.4476 76.4687 22.5905 76.1473C21.7334 75.8259 20.8762 74.5402 21.3048 74.2187C21.7334 73.8973 24.3048 71.8616 24.5191 71.9687C24.7334 72.0759 24.6262 73.2544 24.6262 73.2544C24.6262 73.2544 25.4833 74.6473 26.3405 74.2187Z" fill="#2F2E41"/>
<path d="M26.5012 51.3439L30.4655 54.1296C30.4655 54.1296 33.4655 51.0224 33.4655 49.201C33.4655 47.3796 35.0726 43.951 35.8226 45.3439C36.5726 46.7367 34.9654 50.0581 34.9654 50.0581L31.9655 57.1295C31.9655 57.1295 30.2512 57.451 29.2869 56.701C28.3226 55.951 25.644 54.451 25.644 54.451L26.5012 51.3439Z" fill="#FFB9B9"/>
<path d="M22.5904 46.6831C24.2473 46.6831 25.5904 45.3399 25.5904 43.6831C25.5904 42.0262 24.2473 40.6831 22.5904 40.6831C20.9336 40.6831 19.5905 42.0262 19.5905 43.6831C19.5905 45.3399 20.9336 46.6831 22.5904 46.6831Z" fill="#FFB9B9"/>
<path d="M24.1441 45.7724C24.1441 45.7724 23.0727 48.5581 23.5012 49.201C23.9298 49.8438 24.4655 49.8438 24.8941 50.0581C25.1084 50.1653 27.3584 51.0224 27.3584 51.6653C27.348 52.0783 27.2377 52.4827 27.0369 52.8438L26.7155 54.6652L24.0369 56.3795L20.5012 55.951L17.8227 54.451C17.8227 54.451 17.3941 50.4867 18.5727 49.8438C19.7512 49.201 21.1441 47.701 21.037 47.1653C20.9298 46.6296 20.8227 45.3439 20.8227 45.3439L24.1441 45.7724Z" fill="#FFB9B9"/>
<path d="M28.644 52.4153C28.644 52.4153 27.0369 54.0224 27.0369 54.2367C27.0369 54.451 28.1083 55.4153 27.3583 56.701C26.6083 57.9867 26.6083 61.201 26.6083 61.201L24.0369 61.7367L19.2155 61.3081L18.4655 53.9153C18.4655 53.9153 20.394 54.2367 20.8226 54.5581C21.2512 54.8796 22.4297 54.1296 23.2869 54.1296C24.144 54.1296 26.6083 53.701 26.6083 53.701L26.394 52.8439L27.2511 51.3439L28.644 52.4153Z" fill="#6C63FF"/>
<path d="M22.5905 63.8259C22.5905 63.8259 33.4119 59.0045 34.269 62.1116C35.1262 65.2188 35.2333 72.7187 35.2333 72.7187C35.2333 72.7187 35.769 77.8616 36.4119 78.3973C37.0547 78.933 36.4119 80.5401 36.4119 80.5401L34.8047 81.0758L33.3047 80.433L32.6619 78.7187C32.6619 78.7187 32.4476 74.8616 31.5905 72.933C30.7333 71.0045 30.7333 66.5045 30.8405 66.2902C30.8405 66.2902 26.6619 71.433 22.5905 71.1116C18.5191 70.7902 17.9298 69.8795 17.9298 69.8795C17.9298 69.8795 19.9119 63.8259 22.5905 63.8259Z" fill="#2F2E41"/>
<path d="M35.7691 78.933C35.7691 78.933 36.1977 77.433 37.162 78.6116C38.1262 79.7902 42.5191 81.6116 42.6262 81.8259C42.7334 82.0402 44.6619 83.2187 42.4119 84.8259C40.162 86.433 37.162 84.8259 37.162 84.8259C37.162 84.8259 34.5905 83.9687 33.9477 84.0759C33.3048 84.183 32.0191 83.5402 31.912 83.0045C31.8048 82.4687 32.0579 77.7592 32.6278 78.239C33.1977 78.7187 33.8405 80.0045 33.8405 80.0045C33.8405 80.0045 35.9834 80.5402 35.7691 78.933Z" fill="#2F2E41"/>
<path d="M26.2334 60.9331C26.2334 60.9331 26.8226 60.8795 26.7155 62.2723C26.7155 62.2723 23.0191 63.3973 22.3762 64.3616C21.7334 65.3259 18.9477 68.2188 18.5191 70.2545C18.5191 70.2545 15.412 69.5045 17.1263 64.1473L19.1418 59.7775C19.1418 59.7775 20.3405 62.2188 26.2334 60.9331Z" fill="#2F2E41"/>
<path d="M23.7114 63.5371L20.0726 61.9509C20.0726 61.9509 18.3583 58.4152 18.3583 56.7009C18.3375 55.7145 18.2615 54.7301 18.1306 53.7522C18.0496 53.1371 18.1202 52.5116 18.3362 51.93C18.5522 51.3484 18.907 50.8285 19.3698 50.4154C19.7482 50.0845 20.173 49.8438 20.6083 49.8438C20.6083 49.8438 21.894 52.201 21.6797 54.3438C21.4654 56.4867 22.0011 59.7009 22.0011 59.7009L26.8425 62.2921" fill="#FFB9B9"/>
<path opacity="0.1" d="M23.7115 63.5371L20.0727 61.9509C20.0727 61.9509 18.3584 58.4152 18.3584 56.7009C18.3584 55.808 22.1084 53.1652 21.8941 55.3081C21.6798 57.4509 22.0012 59.7009 22.0012 59.7009L26.8426 62.2921" fill="black"/>
<path d="M22.0012 55.0938L21.6596 56.5402L19.7512 57.4509H18.144L17.394 54.0223C17.394 54.0223 18.7182 53.7422 19.3954 54.0966C20.0726 54.4509 21.6628 54.5357 21.6628 54.5357L22.0012 55.0938Z" fill="#6C63FF"/>
<path d="M23.7788 40.0926C23.1975 39.9452 21.8192 39.9493 21.6175 39.9493C21.1317 39.9493 20.6506 40.045 20.2017 40.2309C19.7528 40.4169 19.345 40.6894 19.0014 41.0329C18.6578 41.3765 18.3853 41.7844 18.1994 42.2332C18.0135 42.6821 17.9178 43.1632 17.9178 43.6491L16.5249 48.8421H19.2361L19.7392 46.9136L20.4535 48.8421H21.8183L21.9356 47.6832L22.3975 48.8421H23.9177C22.7792 46.266 22.1735 43.9178 23.6694 42.4684C24.6794 42.606 25.5314 42.3355 25.6702 41.7879C25.8301 41.1569 24.9833 40.3979 23.7788 40.0926Z" fill="#2F2E41"/>
</g>
</svg>
