<svg width="100" height="68" viewBox="0 0 100 68" fill="none" xmlns="http://www.w3.org/2000/svg">
<defs>
<linearGradient id="paint0_linear" x1="70.8621" y1="66.966" x2="70.8621" y2="24.1988" gradientUnits="userSpaceOnUse">
<stop stop-color="#808080" stop-opacity="0.25"/>
<stop offset="0.54" stop-color="#808080" stop-opacity="0.12"/>
<stop offset="1" stop-color="#808080" stop-opacity="0.1"/>
</linearGradient>
<clipPath id="clip0">
<rect width="100" height="67.3732" fill="white"/>
</clipPath>
</defs>
<g clip-path="url(#clip0)">
<path opacity="0.1" d="M98.6113 20.926C97.6155 18.6018 96.2695 16.4457 94.6207 14.5335L39.2553 13.9855L84.8398 7.54823C81.8947 6.36899 78.7591 5.74386 75.5893 5.704C71.2288 2.19957 65.8593 0.203952 60.2798 0.0140716C54.7003 -0.175809 49.2089 1.45019 44.6227 4.65015C40.9574 2.7561 36.8943 1.77199 32.7731 1.78017C20.4719 1.78017 10.2211 10.3453 7.92175 21.7032L98.6113 20.926Z" fill="#6C63FF"/>
<path opacity="0.1" d="M99.9992 30.0493C100.002 27.0244 99.4198 24.0271 98.2842 21.2203L2.90718 31.1636C1.92615 32.9305 1.17566 34.8143 0.673828 36.7696L30.2085 41.1422L0 44.3333C0.908278 56.9605 11.8093 66.9296 25.1209 66.9296C31.8236 66.9296 37.9132 64.4018 42.4251 60.2818C46.9517 64.4785 53.0995 67.0659 59.8734 67.0659C69.9244 67.0659 78.5999 61.3814 82.6394 53.1631C90.7436 50.6085 97.0399 44.1936 99.1942 36.1727L61.8437 30.4115H99.9957C99.9974 30.2899 99.9992 30.17 99.9992 30.0493Z" fill="#6C63FF"/>
<path opacity="0.1" d="M54.2456 58.511C55.8455 58.511 57.1424 58.0616 57.1424 57.5072C57.1424 56.9528 55.8455 56.5034 54.2456 56.5034C52.6458 56.5034 51.3489 56.9528 51.3489 57.5072C51.3489 58.0616 52.6458 58.511 54.2456 58.511Z" fill="#6C63FF"/>
<path opacity="0.1" d="M90.6393 58.511C92.2392 58.511 93.5361 58.0616 93.5361 57.5072C93.5361 56.9528 92.2392 56.5034 90.6393 56.5034C89.0395 56.5034 87.7426 56.9528 87.7426 57.5072C87.7426 58.0616 89.0395 58.511 90.6393 58.511Z" fill="#6C63FF"/>
<path opacity="0.1" d="M51.0858 63.5404C52.6857 63.5404 53.9826 63.0909 53.9826 62.5366C53.9826 61.9822 52.6857 61.5328 51.0858 61.5328C49.486 61.5328 48.1891 61.9822 48.1891 62.5366C48.1891 63.0909 49.486 63.5404 51.0858 63.5404Z" fill="#6C63FF"/>
<path opacity="0.1" d="M93.781 63.6376C95.3809 63.6376 96.6778 63.1882 96.6778 62.6338C96.6778 62.0794 95.3809 61.63 93.781 61.63C92.1812 61.63 90.8843 62.0794 90.8843 62.6338C90.8843 63.1882 92.1812 63.6376 93.781 63.6376Z" fill="#6C63FF"/>
<path d="M92.8058 61.6752L93.4388 63.0263V52.991H92.8058V61.6752Z" fill="#B77B7F"/>
<path d="M51.9168 61.6752L51.2838 63.0263V52.991H51.9168V61.6752Z" fill="#B77B7F"/>
<path opacity="0.1" d="M92.8058 61.6752L93.4388 63.0263V52.991H92.8058V61.6752Z" fill="black"/>
<path opacity="0.1" d="M51.9168 61.6752L51.2838 63.0263V52.991H51.9168V61.6752Z" fill="black"/>
<path d="M56.2299 34.5588H54.4758V46.8944H56.2299V34.5588Z" fill="#B77B7F"/>
<path d="M91.5164 34.5588H89.7623V46.8944H91.5164V34.5588Z" fill="#B77B7F"/>
<path opacity="0.1" d="M56.2299 34.5588H54.4758V35.9968H56.2299V34.5588Z" fill="black"/>
<path opacity="0.1" d="M91.5164 34.5588H89.7623V35.9968H91.5164V34.5588Z" fill="black"/>
<path d="M94.0137 34.0413H51.7727V35.8813H94.0137V34.0413Z" fill="#DDA2A6"/>
<path opacity="0.1" d="M56.2299 36.6576H54.4758V38.4976H56.2299V36.6576Z" fill="black"/>
<path opacity="0.1" d="M91.5164 36.6576H89.7623V38.4976H91.5164V36.6576Z" fill="black"/>
<path d="M94.0137 36.543H51.7727V38.383H94.0137V36.543Z" fill="#DDA2A6"/>
<path opacity="0.1" d="M56.2299 39.1593H54.4758V40.9993H56.2299V39.1593Z" fill="black"/>
<path opacity="0.1" d="M91.5164 39.1593H89.7623V40.9993H91.5164V39.1593Z" fill="black"/>
<path d="M94.0137 39.0447H51.7727V40.8847H94.0137V39.0447Z" fill="#DDA2A6"/>
<path opacity="0.1" d="M56.2299 41.6609H54.4758V43.501H56.2299V41.6609Z" fill="black"/>
<path opacity="0.1" d="M91.5164 41.6609H89.7623V43.501H91.5164V41.6609Z" fill="black"/>
<path d="M94.0137 41.5463H51.7727V43.3863H94.0137V41.5463Z" fill="#DDA2A6"/>
<path opacity="0.1" d="M56.2299 44.1626H54.4758V46.0026H56.2299V44.1626Z" fill="black"/>
<path opacity="0.1" d="M91.5164 44.1626H89.7623V46.0026H91.5164V44.1626Z" fill="black"/>
<path d="M94.0137 44.048H51.7727V45.888H94.0137V44.048Z" fill="#DDA2A6"/>
<g opacity="0.1">
<path opacity="0.1" d="M55.3528 35.3308C55.4933 35.3308 55.6072 35.2169 55.6072 35.0764C55.6072 34.9359 55.4933 34.822 55.3528 34.822C55.2123 34.822 55.0984 34.9359 55.0984 35.0764C55.0984 35.2169 55.2123 35.3308 55.3528 35.3308Z" fill="black"/>
<path opacity="0.1" d="M55.3528 37.8325C55.4933 37.8325 55.6072 37.7185 55.6072 37.578C55.6072 37.4375 55.4933 37.3236 55.3528 37.3236C55.2123 37.3236 55.0984 37.4375 55.0984 37.578C55.0984 37.7185 55.2123 37.8325 55.3528 37.8325Z" fill="black"/>
<path opacity="0.1" d="M55.3528 40.3342C55.4933 40.3342 55.6072 40.2202 55.6072 40.0797C55.6072 39.9392 55.4933 39.8253 55.3528 39.8253C55.2123 39.8253 55.0984 39.9392 55.0984 40.0797C55.0984 40.2202 55.2123 40.3342 55.3528 40.3342Z" fill="black"/>
<path opacity="0.1" d="M55.3528 42.8358C55.4933 42.8358 55.6072 42.7219 55.6072 42.5814C55.6072 42.4409 55.4933 42.327 55.3528 42.327C55.2123 42.327 55.0984 42.4409 55.0984 42.5814C55.0984 42.7219 55.2123 42.8358 55.3528 42.8358Z" fill="black"/>
<path opacity="0.1" d="M55.3528 45.3375C55.4933 45.3375 55.6072 45.2236 55.6072 45.0831C55.6072 44.9426 55.4933 44.8287 55.3528 44.8287C55.2123 44.8287 55.0984 44.9426 55.0984 45.0831C55.0984 45.2236 55.2123 45.3375 55.3528 45.3375Z" fill="black"/>
<path opacity="0.1" d="M90.6402 35.3308C90.7807 35.3308 90.8946 35.2169 90.8946 35.0764C90.8946 34.9359 90.7807 34.822 90.6402 34.822C90.4996 34.822 90.3857 34.9359 90.3857 35.0764C90.3857 35.2169 90.4996 35.3308 90.6402 35.3308Z" fill="black"/>
<path opacity="0.1" d="M90.6402 37.8325C90.7807 37.8325 90.8946 37.7185 90.8946 37.578C90.8946 37.4375 90.7807 37.3236 90.6402 37.3236C90.4996 37.3236 90.3857 37.4375 90.3857 37.578C90.3857 37.7185 90.4996 37.8325 90.6402 37.8325Z" fill="black"/>
<path opacity="0.1" d="M90.6402 40.3342C90.7807 40.3342 90.8946 40.2202 90.8946 40.0797C90.8946 39.9392 90.7807 39.8253 90.6402 39.8253C90.4996 39.8253 90.3857 39.9392 90.3857 40.0797C90.3857 40.2202 90.4996 40.3342 90.6402 40.3342Z" fill="black"/>
<path opacity="0.1" d="M90.6402 42.8358C90.7807 42.8358 90.8946 42.7219 90.8946 42.5814C90.8946 42.4409 90.7807 42.327 90.6402 42.327C90.4996 42.327 90.3857 42.4409 90.3857 42.5814C90.3857 42.7219 90.4996 42.8358 90.6402 42.8358Z" fill="black"/>
<path opacity="0.1" d="M90.6402 45.3375C90.7807 45.3375 90.8946 45.2236 90.8946 45.0831C90.8946 44.9426 90.7807 44.8287 90.6402 44.8287C90.4996 44.8287 90.3857 44.9426 90.3857 45.0831C90.3857 45.2236 90.4996 45.3375 90.6402 45.3375Z" fill="black"/>
</g>
<path d="M55.3528 35.2162C55.4933 35.2162 55.6072 35.1023 55.6072 34.9618C55.6072 34.8212 55.4933 34.7073 55.3528 34.7073C55.2123 34.7073 55.0984 34.8212 55.0984 34.9618C55.0984 35.1023 55.2123 35.2162 55.3528 35.2162Z" fill="#918C9E"/>
<path d="M55.3528 37.7178C55.4933 37.7178 55.6072 37.6039 55.6072 37.4634C55.6072 37.3229 55.4933 37.209 55.3528 37.209C55.2123 37.209 55.0984 37.3229 55.0984 37.4634C55.0984 37.6039 55.2123 37.7178 55.3528 37.7178Z" fill="#918C9E"/>
<path d="M55.3528 40.2195C55.4933 40.2195 55.6072 40.1056 55.6072 39.9651C55.6072 39.8246 55.4933 39.7107 55.3528 39.7107C55.2123 39.7107 55.0984 39.8246 55.0984 39.9651C55.0984 40.1056 55.2123 40.2195 55.3528 40.2195Z" fill="#918C9E"/>
<path d="M55.3528 42.7212C55.4933 42.7212 55.6072 42.6073 55.6072 42.4668C55.6072 42.3262 55.4933 42.2123 55.3528 42.2123C55.2123 42.2123 55.0984 42.3262 55.0984 42.4668C55.0984 42.6073 55.2123 42.7212 55.3528 42.7212Z" fill="#918C9E"/>
<path d="M55.3528 45.2229C55.4933 45.2229 55.6072 45.109 55.6072 44.9685C55.6072 44.828 55.4933 44.7141 55.3528 44.7141C55.2123 44.7141 55.0984 44.828 55.0984 44.9685C55.0984 45.109 55.2123 45.2229 55.3528 45.2229Z" fill="#918C9E"/>
<path d="M90.6402 35.2162C90.7807 35.2162 90.8946 35.1023 90.8946 34.9618C90.8946 34.8212 90.7807 34.7073 90.6402 34.7073C90.4996 34.7073 90.3857 34.8212 90.3857 34.9618C90.3857 35.1023 90.4996 35.2162 90.6402 35.2162Z" fill="#918C9E"/>
<path d="M90.6402 37.7178C90.7807 37.7178 90.8946 37.6039 90.8946 37.4634C90.8946 37.3229 90.7807 37.209 90.6402 37.209C90.4996 37.209 90.3857 37.3229 90.3857 37.4634C90.3857 37.6039 90.4996 37.7178 90.6402 37.7178Z" fill="#918C9E"/>
<path d="M90.6402 40.2195C90.7807 40.2195 90.8946 40.1056 90.8946 39.9651C90.8946 39.8246 90.7807 39.7107 90.6402 39.7107C90.4996 39.7107 90.3857 39.8246 90.3857 39.9651C90.3857 40.1056 90.4996 40.2195 90.6402 40.2195Z" fill="#918C9E"/>
<path d="M90.6402 42.7212C90.7807 42.7212 90.8946 42.6073 90.8946 42.4668C90.8946 42.3262 90.7807 42.2123 90.6402 42.2123C90.4996 42.2123 90.3857 42.3262 90.3857 42.4668C90.3857 42.6073 90.4996 42.7212 90.6402 42.7212Z" fill="#918C9E"/>
<path d="M90.6402 45.2229C90.7807 45.2229 90.8946 45.109 90.8946 44.9685C90.8946 44.828 90.7807 44.7141 90.6402 44.7141C90.4996 44.7141 90.3857 44.828 90.3857 44.9685C90.3857 45.109 90.4996 45.2229 90.6402 45.2229Z" fill="#918C9E"/>
<path d="M94.9915 47.6716H50.7664L51.7728 46.4342H94.0137L94.9915 47.6716Z" fill="#DDA2A6"/>
<path opacity="0.1" d="M94.9915 47.6716H50.7664L51.7728 46.4342H94.0137L94.9915 47.6716Z" fill="black"/>
<path d="M94.9915 47.6134H50.7664L51.7728 46.3769H94.0137L94.9915 47.6134Z" fill="#DDA2A6"/>
<path d="M96.5441 49.5975L49.0983 49.4829L50.709 47.7862H95.1643L96.5441 49.5975Z" fill="#DDA2A6"/>
<path opacity="0.1" d="M96.5441 49.5975L49.0983 49.4829L50.709 47.7862H95.1643L96.5441 49.5975Z" fill="black"/>
<path d="M96.5441 49.5402L49.0983 49.4256L50.709 47.7289H95.1643L96.5441 49.5402Z" fill="#DDA2A6"/>
<path d="M98.0393 51.3516H47.4015L48.9549 49.5975L96.6595 49.6548L98.0393 51.3516Z" fill="#DDA2A6"/>
<path d="M55.0984 52.991V56.6137L54.4758 57.8215L54.27 53.5085L54.2457 52.991H55.0984Z" fill="#B77B7F"/>
<path d="M90.6211 52.991L90.596 53.5085L90.391 57.8215L89.7676 56.6137V52.991H90.6211Z" fill="#B77B7F"/>
<path opacity="0.1" d="M55.0984 52.991V56.6137L54.4758 57.8215L54.27 53.5085L54.2457 52.991H55.0984Z" fill="black"/>
<path opacity="0.1" d="M90.6211 52.991L90.596 53.5085L90.391 57.8215L89.7676 56.6137V52.991H90.6211Z" fill="black"/>
<path d="M54.475 52.7036H52.8651V57.8224H54.475V52.7036Z" fill="#B77B7F"/>
<path d="M92.0009 52.7036H90.391V57.8224H92.0009V52.7036Z" fill="#B77B7F"/>
<path opacity="0.1" d="M54.4759 52.991H55.0985V53.5085H52.8651V52.7036H54.4759V52.991Z" fill="black"/>
<path opacity="0.1" d="M92.0009 52.7036V53.5085H89.7676V52.991H90.391V52.7036H92.0009Z" fill="black"/>
<path d="M94.0137 52.1279H50.7664V53.393H94.0137V52.1279Z" fill="#B77B7F"/>
<path d="M51.2839 51.8978H49.4438V63.0263H51.2839V51.8978Z" fill="#B77B7F"/>
<path d="M93.4398 63.0263H95.2798V51.8977H93.4398V63.0263Z" fill="#B77B7F"/>
<path opacity="0.1" d="M94.0137 52.1279H50.7664V52.2425H94.0137V52.1279Z" fill="black"/>
<path d="M98.0393 51.3516H47.4015V52.1279H98.0393V51.3516Z" fill="#DDA2A6"/>
<path opacity="0.1" d="M98.0393 51.3516H47.4015V52.1279H98.0393V51.3516Z" fill="white"/>
<path opacity="0.1" d="M50.2539 53.0726C50.3944 53.0726 50.5084 52.9587 50.5084 52.8182C50.5084 52.6777 50.3944 52.5638 50.2539 52.5638C50.1134 52.5638 49.9995 52.6777 49.9995 52.8182C49.9995 52.9587 50.1134 53.0726 50.2539 53.0726Z" fill="black"/>
<path d="M50.2539 52.958C50.3944 52.958 50.5084 52.8441 50.5084 52.7036C50.5084 52.5631 50.3944 52.4492 50.2539 52.4492C50.1134 52.4492 49.9995 52.5631 49.9995 52.7036C49.9995 52.8441 50.1134 52.958 50.2539 52.958Z" fill="#918C9E"/>
<path opacity="0.1" d="M94.5096 53.0378C94.6501 53.0378 94.764 52.9239 94.764 52.7834C94.764 52.6429 94.6501 52.529 94.5096 52.529C94.369 52.529 94.2551 52.6429 94.2551 52.7834C94.2551 52.9239 94.369 53.0378 94.5096 53.0378Z" fill="black"/>
<path d="M94.5096 52.9233C94.6501 52.9233 94.764 52.8094 94.764 52.6689C94.764 52.5283 94.6501 52.4144 94.5096 52.4144C94.369 52.4144 94.2551 52.5283 94.2551 52.6689C94.2551 52.8094 94.369 52.9233 94.5096 52.9233Z" fill="#918C9E"/>
<path opacity="0.1" d="M7.40736 56.7708C9.66827 56.7708 11.5011 56.5205 11.5011 56.2116C11.5011 55.9028 9.66827 55.6524 7.40736 55.6524C5.14644 55.6524 3.3136 55.9028 3.3136 56.2116C3.3136 56.5205 5.14644 56.7708 7.40736 56.7708Z" fill="#6C63FF"/>
<path opacity="0.1" d="M22.9952 58.3529C25.2454 58.3529 27.0695 58.1025 27.0695 57.7937C27.0695 57.4849 25.2454 57.2345 22.9952 57.2345C20.7451 57.2345 18.921 57.4849 18.921 57.7937C18.921 58.1025 20.7451 58.3529 22.9952 58.3529Z" fill="#6C63FF"/>
<path opacity="0.1" d="M41.3788 56.2116C43.6289 56.2116 45.453 55.9613 45.453 55.6524C45.453 55.3436 43.6289 55.0932 41.3788 55.0932C39.1287 55.0932 37.3046 55.3436 37.3046 55.6524C37.3046 55.9613 39.1287 56.2116 41.3788 56.2116Z" fill="#6C63FF"/>
<path opacity="0.1" d="M16.7484 62.6973C18.3483 62.6973 19.6452 62.5192 19.6452 62.2996C19.6452 62.0799 18.3483 61.9019 16.7484 61.9019C15.1486 61.9019 13.8517 62.0799 13.8517 62.2996C13.8517 62.5192 15.1486 62.6973 16.7484 62.6973Z" fill="#6C63FF"/>
<path opacity="0.1" d="M32.9472 62.2995C34.547 62.2995 35.8439 62.1215 35.8439 61.9018C35.8439 61.6822 34.547 61.5042 32.9472 61.5042C31.3473 61.5042 30.0504 61.6822 30.0504 61.9018C30.0504 62.1215 31.3473 62.2995 32.9472 62.2995Z" fill="#6C63FF"/>
<path d="M23.0811 57.6687C23.0811 57.6687 17.3684 38.9361 23.9764 31.4294C28.9207 25.8165 34.5319 26.4877 37.0457 27.1824C37.6959 27.3557 38.3008 27.6683 38.8183 28.0984C39.3359 28.5286 39.7538 29.066 40.0432 29.6736C40.9211 31.5692 40.763 34.6457 34.5605 38.2371C24.1752 44.2495 23.5327 52.4978 23.5327 52.4978L23.0811 57.6687Z" fill="#6C63FF"/>
<path d="M36.1505 29.8429C36.1505 29.8429 19.3048 35.1102 23.082 57.6687" stroke="#565987" stroke-miterlimit="10"/>
<path d="M26.3123 31.7307C26.3123 31.7307 28.6316 33.2937 27.8944 35.6434" stroke="#565987" stroke-miterlimit="10"/>
<path d="M34.4616 33.1226C34.4616 33.1226 33.0436 31.6795 31.3174 32.4757" stroke="#565987" stroke-miterlimit="10"/>
<path d="M27.8033 40.3732C27.8033 40.3732 25.3129 39.1098 24.6694 40.6928" stroke="#565987" stroke-miterlimit="10"/>
<path d="M21.6415 43.0103C21.6415 43.0103 23.5153 42.861 23.5449 43.7597" stroke="#565987" stroke-miterlimit="10"/>
<path d="M22.8511 57.8181C22.8511 57.8181 29.5442 44.2034 31.3825 44.5013C32.256 44.6428 32.658 45.5016 32.8395 46.3647C33.0656 47.4805 32.9385 48.639 32.4757 49.6792C31.5257 51.8578 28.9754 55.9946 22.8511 57.8181Z" fill="#6C63FF"/>
<path d="M31.3304 47.0854C31.3304 47.0854 24.3056 57.271 22.9484 57.7182" stroke="#565987" stroke-miterlimit="10"/>
<path d="M31.979 48.6745H30.3396" stroke="#565987" stroke-miterlimit="10"/>
<path d="M30.0149 52.4014L27.4446 52.5117" stroke="#565987" stroke-miterlimit="10"/>
<path d="M28.4509 49.4204L28.7297 50.7585" stroke="#565987" stroke-miterlimit="10"/>
<path d="M25.7184 53.4946L25.7679 54.7112" stroke="#565987" stroke-miterlimit="10"/>
<path d="M23.0499 57.8181C23.0499 57.8181 16.3577 44.2034 14.5194 44.5013C13.6459 44.6428 13.243 45.5016 13.0615 46.3647C12.8357 47.4806 12.9631 48.6391 13.4262 49.6792C14.3753 51.8578 16.9264 55.9946 23.0499 57.8181Z" fill="#6C63FF"/>
<path d="M14.5715 47.0854C14.5715 47.0854 21.5964 57.271 22.9536 57.7182" stroke="#565987" stroke-miterlimit="10"/>
<path d="M13.9229 48.6745H15.5631" stroke="#565987" stroke-miterlimit="10"/>
<path d="M15.8871 52.4014L18.4574 52.5117" stroke="#565987" stroke-miterlimit="10"/>
<path d="M17.451 49.4204L17.1722 50.7585" stroke="#565987" stroke-miterlimit="10"/>
<path d="M20.1844 53.4946L20.134 54.7112" stroke="#565987" stroke-miterlimit="10"/>
<path d="M34.5432 60.9979C34.7169 60.8382 34.8749 60.6506 34.9244 60.4231C34.9739 60.1956 34.8758 59.9203 34.6579 59.837C34.4139 59.7441 34.1525 59.9134 33.9545 60.0844C33.7565 60.2555 33.529 60.4509 33.2703 60.4144C33.4028 60.2931 33.5018 60.1395 33.5574 59.9686C33.6131 59.7978 33.6237 59.6154 33.5881 59.4393C33.577 59.3668 33.5471 59.2985 33.5012 59.2413C33.3649 59.0963 33.1192 59.1588 32.9568 59.2725C32.4358 59.6364 32.296 60.338 32.2925 60.9701C32.2404 60.7426 32.2847 60.5047 32.283 60.2711C32.2812 60.0375 32.2178 59.7779 32.0225 59.6529C31.8997 59.5865 31.7616 59.5539 31.6222 59.5582C31.3894 59.5495 31.1307 59.573 30.9726 59.7432C30.7755 59.9542 30.8268 60.3085 30.9978 60.5412C31.1689 60.7739 31.432 60.9189 31.6699 61.0796C31.8627 61.1942 32.0272 61.3509 32.151 61.538C32.1652 61.5641 32.1771 61.5914 32.1866 61.6197H33.6428C33.9695 61.4538 34.2724 61.2447 34.5432 60.9979Z" fill="#6C63FF"/>
<path d="M9.03937 55.5144C9.21304 55.3555 9.37107 55.1671 9.42057 54.9396C9.47006 54.7121 9.37281 54.4377 9.15399 54.3534C8.90999 54.2605 8.64862 54.4299 8.45064 54.6009C8.25266 54.772 8.02516 54.9674 7.76639 54.9309C7.89973 54.81 7.99949 54.6566 8.05594 54.4858C8.1124 54.3149 8.12363 54.1323 8.08854 53.9557C8.07732 53.8833 8.04739 53.8151 8.00171 53.7578C7.86538 53.6128 7.61964 53.6753 7.45727 53.7899C6.93626 54.1529 6.79646 54.8553 6.79386 55.4866C6.74176 55.2591 6.78517 55.0212 6.78431 54.7919C6.78344 54.5627 6.71831 54.2987 6.52381 54.1737C6.40107 54.1074 6.26295 54.0747 6.1235 54.079C5.89166 54.0712 5.63289 54.0938 5.47399 54.264C5.27688 54.475 5.32811 54.8293 5.49917 55.062C5.67023 55.2947 5.93334 55.4397 6.17213 55.6004C6.36451 55.7153 6.52861 55.872 6.65232 56.0588C6.66658 56.0849 6.67849 56.1123 6.68792 56.1405H8.14412C8.46924 55.9728 8.77036 55.7623 9.03937 55.5144Z" fill="#6C63FF"/>
<path d="M17.5386 60.9979C17.7123 60.8382 17.8703 60.6506 17.9198 60.4231C17.9693 60.1956 17.8721 59.9203 17.6533 59.837C17.4093 59.7441 17.1479 59.9134 16.9499 60.0844C16.7519 60.2555 16.5244 60.4509 16.2657 60.4144C16.399 60.2935 16.4988 60.1402 16.5552 59.9693C16.6117 59.7984 16.6229 59.6158 16.5878 59.4393C16.5768 59.3668 16.5468 59.2985 16.501 59.2413C16.3646 59.0963 16.1189 59.1588 15.9565 59.2725C15.4399 59.6364 15.2957 60.338 15.2931 60.9701C15.241 60.7426 15.2844 60.5047 15.2836 60.2711C15.2827 60.0375 15.2176 59.7779 15.0231 59.6529C14.9003 59.5865 14.7622 59.5539 14.6228 59.5582C14.3909 59.5495 14.1322 59.573 13.9733 59.7432C13.7761 59.9542 13.8274 60.3085 13.9984 60.5412C14.1695 60.7739 14.4326 60.9189 14.6714 61.0796C14.864 61.1942 15.0281 61.351 15.1516 61.538C15.1662 61.5639 15.1781 61.5913 15.1872 61.6197H16.6382C16.9649 61.4538 17.2678 61.2447 17.5386 60.9979Z" fill="#6C63FF"/>
<path d="M41.6427 49.9136C41.6427 49.9136 42.1889 50.6274 41.3909 51.705C40.5929 52.7826 39.9356 53.6926 40.2013 54.3647C40.2013 54.3647 41.4048 52.3676 42.3852 52.3354C43.3655 52.3033 42.7212 51.1171 41.6427 49.9136Z" fill="#6C63FF"/>
<path opacity="0.1" d="M41.6427 49.9136C41.6906 49.9826 41.7283 50.058 41.7547 50.1377C42.7099 51.2604 43.2196 52.3085 42.3009 52.3354C41.4447 52.3597 40.4184 53.8906 40.1718 54.277C40.1804 54.3065 40.19 54.3361 40.2013 54.3638C40.2013 54.3638 41.4048 52.3667 42.3851 52.3346C43.3655 52.3024 42.7212 51.1171 41.6427 49.9136Z" fill="black"/>
<path d="M42.6578 50.8236C42.6578 51.0746 42.63 51.2786 42.5953 51.2786C42.5605 51.2786 42.5319 51.0746 42.5319 50.8236C42.5319 50.5727 42.5675 50.6899 42.6022 50.6899C42.6369 50.6899 42.6578 50.5718 42.6578 50.8236Z" fill="#FFD037"/>
<path d="M43.006 51.1232C42.7854 51.2439 42.5935 51.316 42.5718 51.2856C42.5501 51.2552 42.7212 51.1327 42.9417 51.0129C43.1623 50.8931 43.0754 50.9799 43.0919 51.0129C43.1084 51.0459 43.2265 51.0034 43.006 51.1232Z" fill="#FFD037"/>
<path d="M38.7589 49.9136C38.7589 49.9136 38.2136 50.6274 39.0116 51.705C39.8096 52.7826 40.4669 53.6926 40.2012 54.3647C40.2012 54.3647 38.9969 52.3676 38.0174 52.3354C37.0379 52.3033 37.6813 51.1171 38.7589 49.9136Z" fill="#6C63FF"/>
<path opacity="0.1" d="M38.7589 49.9136C38.7116 49.9827 38.6742 50.0581 38.6478 50.1377C37.6926 51.2604 37.182 52.3085 38.1016 52.3354C38.9578 52.3597 39.9842 53.8906 40.2299 54.277C40.222 54.3065 40.2124 54.3355 40.2012 54.3638C40.2012 54.3638 38.9969 52.3667 38.0174 52.3346C37.0379 52.3024 37.6813 51.1171 38.7589 49.9136Z" fill="black"/>
<path d="M37.7448 50.8236C37.7448 51.0746 37.7725 51.2786 37.8073 51.2786C37.842 51.2786 37.8707 51.0746 37.8707 50.8236C37.8707 50.5727 37.8351 50.6899 37.8003 50.6899C37.7656 50.6899 37.7448 50.5718 37.7448 50.8236Z" fill="#FFD037"/>
<path d="M37.3966 51.1232C37.6171 51.2439 37.809 51.316 37.8255 51.2856C37.842 51.2552 37.6771 51.1327 37.4565 51.0129C37.2359 50.8931 37.3228 50.9799 37.3063 51.0129C37.2898 51.0459 37.176 51.0034 37.3966 51.1232Z" fill="#FFD037"/>
<path d="M37.9185 54.2718C37.9185 54.2718 39.445 54.2249 39.9043 53.8967C40.3637 53.5684 42.2488 53.1785 42.3669 53.7039C42.485 54.2292 44.6611 56.3167 42.9374 56.3306C41.2138 56.3445 38.9335 56.0623 38.4742 55.7818C38.0148 55.5013 37.9185 54.2718 37.9185 54.2718Z" fill="#A8A8A8"/>
<path opacity="0.2" d="M42.9661 56.1474C41.2433 56.1613 38.9622 55.8791 38.5029 55.5995C38.1555 55.3867 38.014 54.6217 37.968 54.2692H37.9167C37.9167 54.2692 38.0131 55.4996 38.4725 55.7792C38.9318 56.0588 41.2121 56.3419 42.9357 56.328C43.4333 56.328 43.6052 56.1465 43.5957 55.8843C43.5279 56.0458 43.3386 56.1448 42.9661 56.1474Z" fill="black"/>
<path d="M82.7305 49.7513L82.7818 49.733C82.7818 49.733 82.7575 48.6224 82.1557 48.0302C81.5539 47.438 81.9308 45.5832 81.9308 45.5832C81.9308 45.5832 81.9812 43.633 81.705 43.1641C81.4289 42.6952 81.705 40.942 81.705 40.942V38.2788C81.705 38.2788 81.4801 37.5841 81.4298 35.6868C81.3794 33.7895 81.1797 34.037 80.8037 33.4899C80.6092 33.2077 79.7808 32.9134 79.0184 32.7015C78.5089 32.1785 77.9603 31.6952 77.3772 31.2557C77.5959 31.005 77.8684 30.807 78.1744 30.6765C78.4444 30.5489 78.7544 30.416 78.8647 30.1434C78.9132 29.9842 78.9234 29.8158 78.8942 29.6519C78.8791 29.3909 78.8291 29.133 78.7457 28.8852C78.6593 28.6336 78.4766 28.4265 78.2378 28.3095C78.1067 28.2522 77.9365 28.2122 77.8982 28.0759C77.8867 28.0215 77.889 27.965 77.9052 27.9118C77.9642 27.6443 78.0615 27.3812 78.0554 27.1077C78.0493 26.8046 77.9165 26.5181 77.7749 26.2489C77.4181 25.569 76.9639 24.8986 76.284 24.5279C75.4304 24.0624 74.3737 24.1536 73.4307 24.3881C73.176 24.4639 72.9141 24.5126 72.6492 24.5331C72.4893 24.5255 72.3292 24.5293 72.1698 24.5444C72.0791 24.5599 71.9913 24.5892 71.9093 24.6312C71.9267 24.6138 71.9441 24.5947 71.9632 24.5782C71.8053 24.652 71.664 24.7572 71.5481 24.8874C71.4225 25.0147 71.3327 25.1728 71.2876 25.3458C71.2726 25.4025 71.2656 25.4609 71.2668 25.5195C71.2797 25.6847 71.34 25.8427 71.4404 25.9745C71.3145 26.037 71.1919 26.1059 71.0731 26.1812C71.0132 26.2136 70.9613 26.259 70.9212 26.314C70.9088 26.3344 70.8992 26.3563 70.8925 26.3792C70.8507 26.4739 70.8309 26.5769 70.8344 26.6805C70.8344 26.6935 70.8343 26.7065 70.8283 26.7187C70.8387 26.6996 70.8474 26.6805 70.8561 26.6605C70.7571 27.2683 70.0068 27.6495 69.7958 28.2018C69.7384 28.316 69.7087 28.4421 69.709 28.57C69.7185 29.0146 70.1119 29.3445 70.3255 29.7353C70.6824 30.3891 70.5226 31.1837 70.4219 31.9191C70.408 32.0233 70.3967 32.131 70.3898 32.2395C69.8609 32.3264 69.2861 32.5105 68.9344 32.8786C68.146 33.7062 68.5003 33.0019 67.9332 34.8289L67.3697 36.6524L67.2941 37.9732C67.2941 37.9732 66.86 38.4073 66.8938 38.8745C66.9277 39.3417 66.7063 39.5692 66.7063 39.5692C66.7063 39.5692 66.6559 40.5443 66.7063 40.7787C66.7567 41.0132 66.3303 41.2476 66.359 41.4578C66.3721 41.6892 66.3721 41.9211 66.359 42.1525C66.359 42.1898 65.983 42.2514 66.0212 42.683C66.0437 42.9376 66.0518 43.1933 66.0455 43.4489C66.0455 43.4489 65.4203 44.1027 65.5453 44.4605C65.6704 44.8182 65.4324 45.4235 65.4324 45.4235C65.4324 45.4235 65.2944 46.2137 64.9566 46.4238C64.6813 46.5975 64.4643 47.2392 64.393 47.4736C64.1412 47.4823 60.5055 47.6221 60.6262 48.1066C60.7513 48.6085 64.182 48.7648 64.5823 48.7648C64.5998 48.7644 64.6172 48.7626 64.6344 48.7596C64.5407 49.3674 64.2993 50.5631 63.8425 50.7568C63.2286 51.0173 62.1145 52.1392 62.1649 52.6333C62.2153 53.1273 61.9643 56.1144 61.8011 56.5338C61.7672 56.6206 61.7481 56.8811 61.749 57.2389C60.957 58.6109 60.3727 59.7267 60.2181 60.0237L60.1781 60.1009L60.1313 60.2242C60.0245 60.1504 59.2482 61.1386 59.2482 61.1386C59.2482 61.1386 58.6099 62.2249 58.5848 62.3725C58.5596 62.5201 58.0707 62.6191 58.0464 62.7302C58.0221 62.8414 57.4455 63.5578 57.4455 63.5578C57.4455 63.5578 57.1199 64.3966 56.5433 64.6189C55.9667 64.8412 55.3546 65.3848 56.143 66.0021C56.9314 66.6195 58.5092 66.9642 58.5092 66.9642C58.5092 66.9642 59.5113 65.9396 59.711 65.4586C59.9107 64.9775 60.4873 64.1752 60.4873 64.1752C60.4873 64.1752 60.8346 63.4805 60.8885 63.22C60.9423 62.9595 62.098 61.2133 62.098 61.2133L61.973 61.1646C62.0208 61.1125 62.0755 61.0552 62.1362 60.991C62.1788 60.9467 62.2231 60.8989 62.2726 60.8512C62.4063 61.1794 62.5678 61.4026 62.7614 61.4469C63.688 61.657 64.3514 60.5334 64.7777 60.4222C65.2041 60.3111 65.666 58.8688 65.666 58.8688C65.666 58.8688 66.9312 57.8068 66.9433 56.9584C66.9433 56.7717 66.9503 56.5729 66.9546 56.3766C67.1679 55.9518 67.4111 55.5427 67.6823 55.1523C68.1503 54.5271 68.5168 53.9175 68.7512 53.7864C68.9249 53.6909 70.0034 52.6176 70.5747 52.0419L70.6338 51.982C70.8074 52.3606 71.0071 52.628 71.2347 52.6341C71.4083 52.6393 71.549 52.3866 71.6601 52.0263C71.6711 52.0494 71.6833 52.0729 71.6966 52.0966C72.0101 52.6619 72.5866 53.1386 72.5866 53.1386C72.5866 53.1386 74.1896 55.385 74.0515 55.7436C73.9135 56.1023 75.216 57.6071 75.9619 58.0517C76.5628 58.4077 78.1327 60.1921 78.7327 60.8859L78.8196 60.9884C78.7763 61.0052 78.7311 61.0166 78.685 61.0222C78.4766 61.0301 78.9776 61.5814 78.9776 61.5814C78.9776 61.5814 79.3692 62.1163 79.3527 62.3803C79.3362 62.6443 79.8451 63.2773 79.8451 63.2773C79.8451 63.2773 80.7134 64.7535 80.6552 65.2606C80.597 65.7677 80.096 67.1119 81.2813 66.8488C82.4666 66.5857 83.7352 66.4537 83.7126 65.8528C83.69 65.2519 83.1786 64.2029 83.1786 64.2029L82.6524 63.1488C82.6524 63.1488 82.127 62.4663 81.8926 61.9974C81.6581 61.5285 80.9331 60.0219 80.9331 60.0219L80.6726 60.1322L80.617 60.0141C80.3478 59.4453 79.6966 58.0482 78.9081 56.2334C78.6129 55.5334 78.2645 54.857 77.8661 54.2101L78.9081 53.9905C80.1082 55.1106 82.9276 55.4545 82.9276 55.4545C82.9276 55.4545 82.754 52.6654 83.0284 51.85C83.1708 51.428 82.9572 51.1849 82.7045 50.9817C83.8333 50.9166 85.8461 50.7351 85.9416 50.353C86.0371 49.9709 83.8081 49.8103 82.7305 49.7513ZM79.5898 49.0713C79.3666 49.0557 79.2016 49.054 79.2016 49.054C79.2016 49.054 79.3015 48.5981 79.4517 48.3506C79.6019 48.1032 78.5504 47.4371 78.6172 46.8198C78.6841 46.2024 78.2751 44.919 78.2751 44.919C78.2751 44.919 78.3246 43.5861 78.2751 42.9687C78.2446 42.6006 78.3228 42.2316 78.5 41.9076C78.5 41.9076 79.1009 43.5123 78.8473 43.7311C78.5938 43.9499 78.8473 45.1378 78.8473 45.1378C78.8473 45.1378 79.298 46.7182 79.5229 47.286C79.6558 47.6143 79.6097 48.3819 79.5898 49.0722V49.0713Z" fill="url(#paint0_linear)"/>
<path d="M64.5981 47.754C64.5981 47.754 60.8017 47.8834 60.9233 48.3784C61.0448 48.8733 64.3793 49.027 64.7683 49.027C65.1573 49.027 65.7165 48.3141 65.7165 48.3141L64.5981 47.754Z" fill="#EFB7B9"/>
<path d="M69.1447 46.0217H66.9547V48.0406H69.1447V46.0217Z" fill="#67647E"/>
<path opacity="0.12" d="M69.1447 46.0217H66.9547V48.0406H69.1447V46.0217Z" fill="black"/>
<path d="M65.7893 48.1188L63.7748 52.186L66.3285 53.0144L68.39 51.2456L69.3642 49.3579L71.3371 49.5185L73.4428 50.5666L75.1448 51.606L76.1746 53.532L77.6508 54.3664L80.8158 53.6909L81.2778 51.5383L78.6954 49.8085L77.7593 48.3914L73.9647 47.8392L72.8662 46.2015L69.0699 47.1176L65.7893 48.1188Z" fill="#67647E"/>
<path opacity="0.12" d="M65.7894 48.157L63.7332 52.5881L66.3286 53.0527L68.39 51.2839L69.3643 49.3961L71.3372 49.5559L73.4429 50.6048L75.1448 51.6433L76.1746 53.5702L77.6508 54.4038L80.8159 53.7282L81.2779 51.5756L78.6954 49.8468L77.7594 48.4288L73.9647 47.8774L72.8663 46.2388L69.0699 47.1549L65.7894 48.157Z" fill="black"/>
<path d="M71.0757 26.7708C71.0172 26.8027 70.9667 26.8475 70.9281 26.9019C70.8874 26.9961 70.8678 27.098 70.8708 27.2006C70.7935 27.9335 69.7654 28.3294 69.7811 29.0632C69.7897 29.4973 70.1727 29.8256 70.3802 30.2111C70.7275 30.8554 70.5712 31.6395 70.474 32.3646C70.4002 32.9142 70.4002 33.5594 70.8213 33.9206C70.995 34.0683 71.2199 34.149 71.3771 34.3131C71.6983 34.6483 71.628 35.198 71.8399 35.6156C71.8609 35.6603 71.8904 35.7004 71.9267 35.7337C71.9633 35.7626 72.0052 35.7841 72.05 35.7971C72.459 35.9317 72.9262 35.7407 73.2023 35.4107C73.4784 35.0807 73.5878 34.6388 73.6026 34.2081C73.6174 33.7774 73.5479 33.351 73.5062 32.9229C73.4272 32.0997 73.4541 31.2731 73.3873 30.4464C73.3797 30.1845 73.3207 29.9266 73.2136 29.6875C73.1502 29.5642 73.0642 29.4531 73.0043 29.328C72.9309 29.1547 72.8835 28.9716 72.8636 28.7844L72.6344 27.3335C72.5893 27.0434 72.5476 26.5233 72.215 26.4113C71.8824 26.2993 71.3467 26.5988 71.0757 26.7708Z" fill="#E3787D"/>
<path d="M71.0757 26.7708C71.0172 26.8027 70.9667 26.8475 70.9281 26.9019C70.8874 26.9961 70.8678 27.098 70.8708 27.2006C70.7935 27.9335 69.7654 28.3294 69.7811 29.0632C69.7897 29.4973 70.1727 29.8256 70.3802 30.2111C70.7275 30.8554 70.5712 31.6395 70.474 32.3646C70.4002 32.9142 70.4002 33.5594 70.8213 33.9206C70.995 34.0683 71.2199 34.149 71.3771 34.3131C71.6983 34.6483 71.628 35.198 71.8399 35.6156C71.8609 35.6603 71.8904 35.7004 71.9267 35.7337C71.9633 35.7626 72.0052 35.7841 72.05 35.7971C72.459 35.9317 72.9262 35.7407 73.2023 35.4107C73.4784 35.0807 73.5878 34.6388 73.6026 34.2081C73.6174 33.7774 73.5479 33.351 73.5062 32.9229C73.4272 32.0997 73.4541 31.2731 73.3873 30.4464C73.3797 30.1845 73.3207 29.9266 73.2136 29.6875C73.1502 29.5642 73.0642 29.4531 73.0043 29.328C72.9309 29.1547 72.8835 28.9716 72.8636 28.7844L72.6344 27.3335C72.5893 27.0434 72.5476 26.5233 72.215 26.4113C71.8824 26.2993 71.3467 26.5988 71.0757 26.7708Z" fill="#E3787D"/>
<g opacity="0.1">
<path opacity="0.1" d="M70.9403 26.9714C70.9403 26.9514 70.9403 26.9314 70.9455 26.9114C70.9281 26.9273 70.9129 26.9454 70.9003 26.9653C70.8586 27.0583 70.8378 27.1594 70.8396 27.2614C70.8396 27.2735 70.8396 27.2857 70.8344 27.2987C70.8898 27.1972 70.9257 27.0861 70.9403 26.9714Z" fill="black"/>
<path opacity="0.1" d="M73.2709 35.1771C72.9956 35.5071 72.5276 35.6981 72.1195 35.5635C72.0726 35.5519 72.0292 35.5295 71.9927 35.4979C71.9561 35.4664 71.9276 35.4267 71.9093 35.382C71.6966 34.9687 71.7669 34.4199 71.4456 34.0839C71.2885 33.9206 71.0627 33.8399 70.8899 33.6914C70.4688 33.3302 70.4688 32.6859 70.5426 32.1353C70.6398 31.4103 70.7961 30.6262 70.4488 29.9827C70.2413 29.5963 69.8592 29.2716 69.8496 28.8339C69.8487 28.793 69.8513 28.752 69.8574 28.7115C69.7869 28.838 69.7507 28.9808 69.7524 29.1257C69.7611 29.5598 70.144 29.8889 70.3515 30.2745C70.6989 30.9188 70.5426 31.702 70.4453 32.4271C70.3715 32.9776 70.3715 33.6219 70.7926 33.984C70.9663 34.1316 71.1912 34.2124 71.3484 34.3765C71.6697 34.7117 71.5993 35.2613 71.8112 35.6738C71.8322 35.7187 71.8616 35.7591 71.898 35.7928C71.9349 35.8215 71.9771 35.8428 72.0222 35.8553C72.4303 35.9899 72.8984 35.7988 73.1736 35.4689C73.3325 35.272 73.4444 35.0416 73.501 34.795C73.4435 34.933 73.366 35.0618 73.2709 35.1771Z" fill="black"/>
</g>
<path d="M81.8457 49.9727C81.8457 49.9727 85.6412 50.1029 85.5196 50.597C85.3981 51.0911 82.0645 51.2465 81.6747 51.2465C81.2848 51.2465 80.7264 50.5327 80.7264 50.5327L81.8457 49.9727Z" fill="#EFB7B9"/>
<path d="M71.6281 32.6668C71.6281 32.6668 69.7672 32.5574 69.0013 33.3727C68.2355 34.1881 68.575 33.4943 68.0279 35.2952L67.48 37.0961L67.4071 38.3986C67.4071 38.3986 66.9816 38.8241 67.0181 39.2869C67.0545 39.7498 66.8348 39.9686 66.8348 39.9686C66.8348 39.9686 66.7862 40.9298 66.8348 41.1608C66.8835 41.3918 66.4702 41.6228 66.4945 41.8294C66.5071 42.0565 66.5071 42.284 66.4945 42.5111C66.4945 42.5475 66.1298 42.6083 66.1662 43.0321C66.1882 43.2827 66.1963 43.5343 66.1905 43.7858C66.1905 43.7858 65.5827 44.431 65.7034 44.7835C65.8241 45.136 65.594 45.7326 65.594 45.7326C65.594 45.7326 65.4603 46.5141 65.132 46.7182C64.8038 46.9222 64.5598 47.8409 64.5598 47.8409C64.5598 47.8409 64.8637 48.632 64.8637 48.6684C64.8637 48.7049 64.6449 50.7368 64.0492 50.9921C63.4536 51.2474 62.3699 52.3563 62.4168 52.8399C62.4637 53.3236 62.2223 56.2716 62.0642 56.6849C61.9062 57.0982 62.0885 61.3209 62.989 61.5276C63.8895 61.7343 64.5355 60.6271 64.9497 60.5186C65.3639 60.4101 65.8128 58.9851 65.8128 58.9851C65.8128 58.9851 67.0424 57.9388 67.0545 57.1C67.0667 56.2611 67.1032 55.1896 67.1032 55.1896C67.1032 55.1896 65.6669 52.7583 65.3752 52.5733C65.0834 52.3884 64.2681 51.3577 64.9002 50.4685C65.5323 49.5793 65.9353 48.4487 65.9353 48.4487L66.616 47.8409L67.1926 45.6614L68.2346 42.2549L69.2202 38.9084L70.0581 35.3925L72.2698 33.852C72.2698 33.852 72.6631 32.8491 71.6281 32.6668Z" fill="#67647E"/>
<path d="M70.9351 51.8951C70.9351 51.8951 70.7953 52.0393 70.5877 52.252C70.0294 52.819 68.9779 53.8775 68.812 53.9713C68.5845 54.1016 68.2285 54.7016 67.77 55.3181C67.3115 55.9346 66.6993 57.2649 66.6993 57.2649C66.6993 57.2649 65.1746 59.4062 64.2828 59.6337C63.6749 59.7874 62.85 60.5819 62.3811 61.0786C62.1562 61.3148 62.0129 61.4833 62.0129 61.4833L60.2589 60.8016L60.4864 60.2016L60.5255 60.1243C60.6939 59.7961 61.3877 58.4519 62.303 56.875C63.358 55.0593 64.9644 53.3878 64.9644 53.3878C64.9644 53.3878 66.359 52.1061 66.4076 51.5217C66.4243 51.1976 66.4194 50.8727 66.3928 50.5492C66.3668 50.1289 66.3268 49.7677 66.3268 49.7677L68.4516 48.3896L70.0746 49.0669L70.9351 51.8951Z" fill="#EFB7B9"/>
<path d="M80.4781 60.3961L78.7501 61.248L78.52 60.9753C77.9374 60.2919 76.4117 58.5327 75.8282 58.1819C75.0945 57.7399 73.831 56.2637 73.9656 55.9068C74.1002 55.5499 72.5424 53.3392 72.5424 53.3392C72.5424 53.3392 71.9815 52.8659 71.6741 52.3085C71.5247 52.0367 71.437 51.7449 71.5056 51.4783C71.7114 50.6621 72.3931 48.8733 72.3931 48.8733C72.3931 48.8733 72.7222 48.3254 72.7456 48.2881C72.7691 48.2507 73.9656 47.8409 73.9656 47.8409L75.1457 47.7193L76.6305 48.9845C76.6305 48.9845 76.5758 49.2858 76.4942 49.7043C76.3136 50.6256 76.001 52.1174 75.8508 52.2095C75.6328 52.3432 76.8624 53.3383 76.8624 53.3383C76.8624 53.3383 77.6769 54.033 78.6859 56.3922C79.4518 58.1819 80.0839 59.559 80.3461 60.12C80.4286 60.2997 80.4781 60.3961 80.4781 60.3961Z" fill="#EFB7B9"/>
<path opacity="0.1" d="M70.0763 49.0687L70.9351 51.8951C70.9351 51.8951 70.7953 52.0393 70.5878 52.252C70.3533 51.6772 70.1736 50.9087 70.045 50.3868C69.8175 49.462 67.4817 49.7052 67.0762 49.7052C66.8973 49.7052 66.6464 50.1142 66.3963 50.5492C66.3703 50.1289 66.3303 49.7677 66.3303 49.7677L68.4551 48.3896L70.0763 49.0687Z" fill="black"/>
<path opacity="0.1" d="M76.6296 48.9827C76.6296 48.9827 76.5749 49.284 76.4933 49.7026C76.3179 49.3025 76.0602 48.9439 75.737 48.6502C74.6021 47.6446 73.0938 48.5043 73.0938 48.5043C72.9383 48.5616 72.8628 48.7222 72.6943 48.9211C72.205 49.5062 71.9181 50.2339 71.8764 50.9955C71.851 51.4385 71.7842 51.878 71.6767 52.3085C71.5273 52.0367 71.4396 51.7449 71.5082 51.4783C71.714 50.6621 72.3956 48.8733 72.3956 48.8733C72.3956 48.8733 72.7247 48.3254 72.7482 48.2881C72.7716 48.2507 73.9656 47.8409 73.9656 47.8409L75.1456 47.7193L76.6296 48.9827Z" fill="black"/>
<path d="M78.3984 50.1272C78.3819 50.5327 76.8728 51.1692 76.8728 51.1692C76.8728 51.1692 76.8728 49.4655 75.737 48.4591C74.6012 47.4527 73.0973 48.3098 73.0973 48.3098C72.9418 48.3671 72.8663 48.5277 72.6978 48.7266C72.2087 49.3115 71.9217 50.0389 71.8799 50.8002C71.8278 51.6633 71.5924 52.8468 71.2312 52.8356C70.6633 52.8199 70.276 51.1171 70.0468 50.1923C69.8176 49.2676 67.4835 49.5107 67.078 49.5107C66.6725 49.5107 65.8936 51.619 65.6018 51.3603C65.31 51.1015 65.9257 49.0687 65.9257 49.0687L67.8873 46.7042L68.3058 46.2015L76.9197 46.6669C76.9197 46.6669 77.1341 46.9977 77.3443 47.3251C77.5431 47.6368 77.7394 47.946 77.7472 47.9685C77.7654 48.0146 78.4141 49.7208 78.3984 50.1272Z" fill="#444053"/>
<path opacity="0.1" d="M69.6821 47.5413C69.6943 47.5596 71.2642 49.2633 71.3372 49.5185C71.4013 49.8052 71.4503 50.0951 71.4839 50.3869C71.4839 50.3869 71.5195 49.7842 71.5708 49.6141C71.622 49.4439 71.3884 49.0488 71.2182 48.9194C71.048 48.79 70.7311 48.5486 70.6885 48.4453C70.646 48.342 70.4454 47.2835 70.4454 47.2835L69.7881 47.1376L69.6821 47.5413Z" fill="black"/>
<path opacity="0.1" d="M72.657 47.3711C72.657 47.3711 71.6471 48.5268 71.6715 48.697C71.6958 48.8672 72.657 47.3711 72.657 47.3711Z" fill="black"/>
<path d="M77.814 33.7253L76.6461 35.3482L73.4394 35.9968C73.4394 35.9968 70.1892 35.1858 72.3974 34.3418C72.6059 34.2694 72.7921 34.1441 72.9375 33.978C73.3265 33.5117 73.1832 32.8074 72.8593 32.1215C72.3505 31.0404 71.3997 30.0027 71.3997 30.0027C71.3997 30.0027 75.9662 27.983 75.447 30.0896C75.3565 30.4557 75.3652 30.8393 75.4721 31.201C75.7448 32.1562 76.6062 32.9082 77.2045 33.3345C77.3994 33.4772 77.603 33.6077 77.814 33.7253Z" fill="#EFB7B9"/>
<path opacity="0.1" d="M77.8141 33.7252L76.6462 35.3482L73.4394 35.9968C73.4394 35.9968 70.1892 35.1858 72.3974 34.3418C72.606 34.2694 72.7921 34.144 72.9375 33.9779C73.4585 34.2089 74.0038 34.3921 74.2791 34.3096C74.2791 34.3096 76.0835 33.7808 77.2045 33.3371C77.3996 33.4788 77.6032 33.6085 77.8141 33.7252Z" fill="black"/>
<path opacity="0.1" d="M77.3599 47.418C76.9135 47.2817 76.4598 47.1706 76.0009 47.0855C75.5476 47.0056 75.1109 46.9743 74.9259 47.0933C74.4718 47.3851 73.369 48.0346 72.9791 48.0346C72.87 48.0374 72.7625 48.0081 72.6699 47.9504C72.5773 47.8926 72.5036 47.809 72.4581 47.7098C72.4581 47.7098 71.2572 47.5796 70.4783 47.7098C69.9573 47.7966 68.733 47.1758 67.974 46.7546L67.8872 46.706L68.3057 46.2032L76.9196 46.6687C76.9196 46.6687 77.1341 46.9995 77.3442 47.3269L77.3599 47.418Z" fill="black"/>
<path d="M77.0361 45.0492L77.36 47.22C76.9135 47.0836 76.4599 46.9723 76.001 46.8866C75.5477 46.8067 75.111 46.7763 74.926 46.8944C74.4719 47.187 73.3691 47.8357 72.9792 47.8357C72.8702 47.8386 72.7627 47.8094 72.6701 47.7518C72.5775 47.6943 72.5038 47.6108 72.4582 47.5118C72.4582 47.5118 71.2573 47.3815 70.4784 47.5118C69.9574 47.5986 68.733 46.9778 67.9741 46.5566C67.5947 46.3447 67.3315 46.1832 67.3315 46.1832L67.8178 44.4631L69.3105 42.8731L69.5371 40.5712L69.8931 37.9115L70.4489 36.292L71.4475 33.9189L71.6255 33.4986C71.6255 33.4986 71.82 33.6132 72.1065 33.766C72.2394 33.8364 72.3913 33.9154 72.5537 33.9944C73.172 34.2975 73.9318 34.6083 74.2756 34.5041C74.2756 34.5041 75.8794 34.0344 77.0031 33.6089C77.5241 33.4109 77.9374 33.2242 78.0451 33.0974C78.0586 33.0825 78.0679 33.0642 78.072 33.0445C78.072 33.0123 78.0789 33.0366 78.0859 33.1078C78.1553 33.8242 78.3967 39.306 78.3967 39.306L77.0361 45.0492Z" fill="#A36468"/>
<path opacity="0.1" d="M78.3984 39.306L77.036 45.0492L77.3599 47.22C76.9135 47.0836 76.4598 46.9723 76.0009 46.8866C75.9237 45.9965 75.8351 44.4935 76.0704 43.9916C76.4108 43.2613 76.6053 40.9524 76.6053 40.9524L77.0047 33.6089L77.0438 32.8986C77.0725 32.8786 77.5084 32.9594 78.0467 33.0974L78.0875 33.1078C78.157 33.8242 78.3984 39.306 78.3984 39.306Z" fill="black"/>
<path opacity="0.1" d="M81.1285 50.2835C80.2793 50.5388 79.1313 50.8184 79.0141 50.5162C78.9273 50.3078 78.9368 49.8398 78.9533 49.3284C79.3675 49.3579 79.9892 49.4404 80.0822 49.6644C80.1751 49.8884 80.7569 50.0526 81.1285 50.2835Z" fill="black"/>
<path d="M77.4328 32.8986C77.5057 32.8491 80.1585 33.4335 80.5232 33.9692C80.8879 34.505 81.0833 34.261 81.131 36.1349C81.1788 38.0087 81.3985 38.6895 81.3985 38.6895V41.3179C81.3985 41.3179 81.131 43.0459 81.3985 43.5079C81.6659 43.9698 81.6173 45.8923 81.6173 45.8923C81.6173 45.8923 81.2526 47.7158 81.8361 48.302C82.4196 48.8881 82.444 49.9804 82.444 49.9804C82.444 49.9804 79.5967 51.0025 79.4048 50.5162C79.2129 50.0299 79.502 48.1318 79.2832 47.5717C79.0644 47.0116 78.6259 45.4547 78.6259 45.4547C78.6259 45.4547 78.3827 44.2868 78.6259 44.0654C78.869 43.8439 78.2855 42.2644 78.2855 42.2644C78.1126 42.5846 78.0365 42.9481 78.0667 43.3108C78.1153 43.9186 78.0667 45.2333 78.0667 45.2333C78.0667 45.2333 78.4635 46.4984 78.3992 47.1071C78.335 47.7158 79.3544 48.3723 79.2103 48.6154C79.0661 48.8586 78.9663 49.3101 78.9663 49.3101C78.9663 49.3101 80.3296 49.3231 80.4754 49.6635C80.6213 50.0039 81.7406 50.1697 81.8378 50.6465C81.9351 51.1232 82.9571 51.2699 82.6897 52.0731C82.4222 52.8763 82.5924 55.6255 82.5924 55.6255C82.5924 55.6255 77.6768 55.0177 78.2126 52.7782C78.7483 50.5388 81.2786 51.5374 81.2786 51.5374C81.2786 51.5374 79.2624 50.346 78.0901 50.4919C76.9179 50.6378 76.4594 47.5717 76.4594 47.5717C76.4594 47.5717 76.119 44.7244 76.4594 43.995C76.7998 43.2656 76.9943 40.9558 76.9943 40.9558L77.4328 32.8986Z" fill="#67647E"/>
<path opacity="0.1" d="M79.6714 48.8126C79.6714 48.8126 79.793 48.5816 80.6569 48.7257C81.5209 48.8699 81.9594 48.678 81.9594 48.678C81.9594 48.678 80.2072 49.4578 79.6714 48.8126Z" fill="black"/>
<path opacity="0.1" d="M79.4283 37.6067C79.4161 37.6432 80.0613 38.5923 79.5742 39.359C79.087 40.1257 78.6859 41.3562 78.6008 41.5854C78.5157 41.8146 78.3984 42.1698 78.3984 42.1698" fill="black"/>
<path opacity="0.05" d="M77.1411 31.7298C77.1411 31.7298 79.4283 33.4456 79.4161 34.248C79.4161 34.248 79.1973 34.5033 78.7215 34.5033C78.2456 34.5033 77.3955 34.2723 77.2983 33.7365C77.201 33.2008 76.8354 33.7365 77.043 34.017C77.2505 34.2975 77.3712 34.4425 77.3712 34.4425C77.3712 34.4425 79.536 35.039 79.9502 35.3186C80.3644 35.5982 79.7765 35.9265 79.7765 35.9265C79.7765 35.9265 79.1687 37.0214 79.2051 37.2038C79.2416 37.3861 77.7081 39.7706 77.7081 39.7706C77.7081 39.7706 77.1975 42.3504 77.2219 42.8367C77.2462 43.3229 77.2826 44.3563 77.2826 44.3563L76.3101 45.697C76.3101 45.697 76.0722 41.5611 76.2302 41.0019C76.3883 40.4427 76.8137 36.9259 76.8137 36.9259C76.8137 36.9259 77.3009 34.7837 77.1064 34.5406C76.9119 34.2975 76.8459 33.5429 76.8459 33.5429L77.1411 31.7298Z" fill="black"/>
<path d="M76.9457 31.6326C76.9457 31.6326 79.2337 33.3484 79.2216 34.1507C79.2216 34.1507 79.0019 34.406 78.5269 34.406C78.0519 34.406 77.201 34.1751 77.1037 33.6393C77.0065 33.1035 76.6409 33.6393 76.8476 33.9198C77.0542 34.2002 77.1767 34.3452 77.1767 34.3452C77.1767 34.3452 79.3414 34.9418 79.7556 35.2214C80.1698 35.501 79.5819 35.8292 79.5819 35.8292C79.5819 35.8292 78.9741 36.9251 79.0097 37.1074C79.0453 37.2898 77.5179 39.6786 77.5179 39.6786C77.5179 39.6786 77.0065 42.2584 77.0316 42.7446C77.0568 43.2309 77.0924 44.2642 77.0924 44.2642L76.3109 45.6032C76.3109 45.6032 75.8768 41.4673 76.0365 40.9073C76.1963 40.3472 76.6201 36.8313 76.6201 36.8313C76.6201 36.8313 77.1072 34.69 76.9118 34.4468C76.7164 34.2037 76.6513 33.4491 76.6513 33.4491L76.9457 31.6326Z" fill="#67647E"/>
<path opacity="0.12" d="M76.9457 31.6326C76.9457 31.6326 79.2337 33.3484 79.2216 34.1507C79.2216 34.1507 79.0019 34.406 78.5269 34.406C78.0519 34.406 77.201 34.1751 77.1037 33.6393C77.0065 33.1035 76.6409 33.6393 76.8476 33.9198C77.0542 34.2002 77.1767 34.3452 77.1767 34.3452C77.1767 34.3452 79.3414 34.9418 79.7556 35.2214C80.1698 35.501 79.5819 35.8292 79.5819 35.8292C79.5819 35.8292 78.9741 36.9251 79.0097 37.1074C79.0453 37.2898 77.5179 39.6786 77.5179 39.6786C77.5179 39.6786 77.0065 42.2584 77.0316 42.7446C77.0568 43.2309 77.0924 44.2642 77.0924 44.2642L76.3109 45.6032C76.3109 45.6032 75.8768 41.4673 76.0365 40.9073C76.1963 40.3472 76.6201 36.8313 76.6201 36.8313C76.6201 36.8313 77.1072 34.69 76.9118 34.4468C76.7164 34.2037 76.6513 33.4491 76.6513 33.4491L76.9457 31.6326Z" fill="black"/>
<path opacity="0.1" d="M72.6388 33.6523C72.6233 33.7693 72.5942 33.8842 72.5519 33.9944C72.4651 34.2636 72.3227 34.6292 72.2046 35.0025C72.0309 35.58 71.5004 36.6211 71.1826 37.6075C70.8648 38.594 70.3924 40.6971 70.3924 40.6971C70.3924 40.6971 70.4896 42.6317 69.8453 43.1189C69.201 43.606 68.4699 45.3939 68.4699 45.3939C68.4699 45.3939 68.2389 45.9904 67.9689 46.5583C67.5894 46.3465 67.3263 46.1849 67.3263 46.1849L67.8126 44.4648L69.3052 42.8749L69.5371 40.5712L69.8931 37.9115L70.4488 36.292L71.4474 33.9189C71.7166 33.8989 71.8955 33.8833 71.8955 33.8833C71.8955 33.8833 71.9867 33.8285 72.1065 33.766C72.3296 33.6505 72.6466 33.5133 72.6388 33.6523Z" fill="black"/>
<path opacity="0.05" d="M71.5074 33.9814C71.5074 33.9814 69.2497 34.1733 68.7452 34.1152C68.2407 34.057 68.4535 35.198 68.4535 35.198C68.4535 35.198 68.061 37.5216 68.1478 37.7682C68.2346 38.0149 68.6949 39.8366 68.4153 40.2751C68.1357 40.7136 67.2717 42.9887 67.2717 42.9887C67.2717 42.9887 66.9921 43.9985 66.7507 45.0084C66.5093 46.0183 65.9362 47.9521 65.7894 48.1231C65.6427 48.2942 64.3983 50.5328 64.5399 50.8801C64.6814 51.2274 66.5978 47.9278 66.9842 47.6325C67.3707 47.3373 68.0888 45.4912 68.0888 45.4912C68.0888 45.4912 68.8182 43.7024 69.4633 43.2162C70.1085 42.7299 70.0113 40.7944 70.0113 40.7944C70.0113 40.7944 70.4854 38.6895 70.8014 37.704C71.1175 36.7184 71.6489 35.6773 71.8235 35.099C71.998 34.5207 72.2377 33.9702 72.2498 33.7479C72.262 33.5256 71.5074 33.9814 71.5074 33.9814Z" fill="black"/>
<path d="M71.7018 33.8842C71.7018 33.8842 69.4441 34.0761 68.9396 34.0179C68.4351 33.9597 68.6479 35.1007 68.6479 35.1007C68.6479 35.1007 68.2589 37.4244 68.344 37.6675C68.4291 37.9106 68.891 39.7359 68.6114 40.1744C68.3318 40.6129 67.4678 42.8914 67.4678 42.8914C67.4678 42.8914 67.1882 43.9013 66.9468 44.9111C66.7054 45.921 66.1314 47.8557 65.9856 48.0267C65.8397 48.1978 64.5962 50.439 64.736 50.7898C64.8758 51.1406 66.794 47.8313 67.1804 47.5396C67.5668 47.2478 68.2849 45.3983 68.2849 45.3983C68.2849 45.3983 69.0152 43.6095 69.6595 43.1232C70.3038 42.637 70.2074 40.7014 70.2074 40.7014C70.2074 40.7014 70.6815 38.5966 70.9985 37.611C71.3154 36.6255 71.8451 35.5844 72.0205 35.006C72.1959 34.4277 72.4338 33.8772 72.446 33.6549C72.4581 33.4326 71.7018 33.8842 71.7018 33.8842Z" fill="#67647E"/>
<path opacity="0.12" d="M71.7018 33.8842C71.7018 33.8842 69.4441 34.0761 68.9396 34.0179C68.4351 33.9597 68.6479 35.1007 68.6479 35.1007C68.6479 35.1007 68.2589 37.4244 68.344 37.6675C68.4291 37.9106 68.891 39.7359 68.6114 40.1744C68.3318 40.6129 67.4678 42.8914 67.4678 42.8914C67.4678 42.8914 67.1882 43.9013 66.9468 44.9111C66.7054 45.921 66.1314 47.8557 65.9856 48.0267C65.8397 48.1978 64.5962 50.439 64.736 50.7898C64.8758 51.1406 66.794 47.8313 67.1804 47.5396C67.5668 47.2478 68.2849 45.3983 68.2849 45.3983C68.2849 45.3983 69.0152 43.6095 69.6595 43.1232C70.3038 42.637 70.2074 40.7014 70.2074 40.7014C70.2074 40.7014 70.6815 38.5966 70.9985 37.611C71.3154 36.6255 71.8451 35.5844 72.0205 35.006C72.1959 34.4277 72.4338 33.8772 72.446 33.6549C72.4581 33.4326 71.7018 33.8842 71.7018 33.8842Z" fill="black"/>
<path opacity="0.1" d="M70.8257 39.8878C70.8257 39.8878 71.1035 41.2884 70.6433 41.951C70.1831 42.6135 70.6919 40.1865 70.8257 39.8878Z" fill="black"/>
<path opacity="0.1" d="M75.8143 44.5178C75.8143 44.5178 74.5248 44.7487 74.0993 45.4304C73.6738 46.112 75.8143 44.5178 75.8143 44.5178Z" fill="black"/>
<path opacity="0.1" d="M75.8142 45.9045C75.8142 45.9045 74.1722 46.4255 74.4761 46.6105C74.78 46.7955 75.5181 46.4646 75.7291 46.5237C75.9401 46.5827 75.8142 45.9045 75.8142 45.9045Z" fill="black"/>
<path opacity="0.1" d="M62.3828 61.0787C62.1579 61.3149 62.0147 61.4833 62.0147 61.4833L60.2606 60.8017L60.4881 60.2016L60.5272 60.1244C60.5314 60.1228 60.536 60.1228 60.5402 60.1244C60.6436 60.1956 61.4207 60.6957 61.4207 60.6957L62.3828 61.0787Z" fill="black"/>
<path d="M61.3234 60.8946C61.3234 60.8946 60.5463 60.3953 60.4421 60.3223C60.3379 60.2494 59.5833 61.2237 59.5833 61.2237C59.5833 61.2237 58.9633 62.2943 58.939 62.4393C58.9147 62.5843 58.4397 62.6825 58.418 62.7919C58.3963 62.9013 57.8336 63.6072 57.8336 63.6072C57.8336 63.6072 57.5175 64.4348 56.9583 64.6492C56.3991 64.8637 55.8017 65.4038 56.5685 66.0117C57.3352 66.6195 58.8678 66.9607 58.8678 66.9607C58.8678 66.9607 59.8412 65.9509 60.0366 65.4768C60.232 65.0026 60.7903 64.2116 60.7903 64.2116C60.7903 64.2116 61.1315 63.53 61.1802 63.2747C61.2288 63.0194 62.3455 61.3001 62.3455 61.3001L61.3234 60.8946Z" fill="#444053"/>
<path opacity="0.1" d="M80.4781 60.3961L78.7501 61.2479L78.52 60.9753C78.8057 60.8511 79.0832 60.709 79.351 60.5498L80.3496 60.1208C80.4286 60.2997 80.4781 60.3961 80.4781 60.3961Z" fill="black"/>
<path d="M79.4448 60.6471C79.4448 60.6471 78.6737 61.1021 78.4714 61.1099C78.2691 61.1178 78.7553 61.6613 78.7553 61.6613C78.7553 61.6613 79.1365 62.1884 79.12 62.448C79.1035 62.7077 79.5985 63.332 79.5985 63.332C79.5985 63.332 80.4425 64.7839 80.3852 65.2875C80.3279 65.7911 79.8416 67.111 80.993 66.8505C82.1444 66.59 83.3775 66.4606 83.3531 65.8684C83.3288 65.2762 82.8321 64.2464 82.8321 64.2464L82.3216 63.2044C82.3216 63.2044 81.8101 62.5314 81.5835 62.0686C81.3568 61.6058 80.6518 60.1287 80.6518 60.1287L79.4448 60.6471Z" fill="#444053"/>
<path d="M72.4712 34.4294C73.5636 34.0118 73.33 32.9446 72.8185 31.9729C72.2623 31.7641 71.7837 31.3895 71.4474 30.8997C71.1192 31.0412 70.8214 31.4363 70.9447 31.7619C70.9927 31.862 71.0541 31.9552 71.127 32.0389C71.6376 32.7197 71.569 33.7695 70.9742 34.3773C70.8813 34.4729 70.7693 34.5745 70.7701 34.7082C70.7701 34.8732 70.9438 34.9808 71.0966 35.0364C71.2976 35.1092 71.5084 35.1513 71.7218 35.1615C71.6376 34.9339 71.8069 34.6839 72.4712 34.4294Z" fill="#E3787D"/>
<path opacity="0.1" d="M79.4204 49.3344C79.4204 49.3344 80.5883 49.3804 80.9773 49.6401C81.2136 49.8005 81.4009 50.0232 81.5183 50.2835" fill="black"/>
<g opacity="0.1">
<path opacity="0.1" d="M71.115 32.0615C71.4962 32.5695 71.5535 33.285 71.3103 33.8677C71.6577 33.2598 71.6377 32.434 71.2122 31.8662C71.1386 31.7829 71.0773 31.6896 71.0299 31.5892C70.9917 31.4831 70.9917 31.367 71.0299 31.2609C70.9728 31.3335 70.9341 31.4187 70.9172 31.5095C70.9002 31.6002 70.9055 31.6937 70.9326 31.7819C70.9801 31.8832 71.0414 31.9773 71.115 32.0615Z" fill="black"/>
<path opacity="0.1" d="M71.708 34.98C71.5301 34.9634 71.355 34.9243 71.187 34.8637C71.0324 34.8072 70.8613 34.6996 70.8605 34.5346C70.86 34.5262 70.86 34.5178 70.8605 34.5094C70.8013 34.5682 70.7658 34.6467 70.7606 34.73C70.7606 34.8949 70.9343 35.0026 71.0871 35.0582C71.2881 35.1309 71.4988 35.1731 71.7123 35.1832C71.6862 35.1183 71.6846 35.046 71.708 34.98Z" fill="black"/>
<path opacity="0.1" d="M72.552 34.2567C72.031 34.4573 71.813 34.6552 71.7878 34.8411C71.8999 34.7143 72.11 34.5806 72.4547 34.4512C72.8403 34.3044 73.0626 34.0761 73.1607 33.7999C73.0123 34.0138 72.7988 34.174 72.552 34.2567Z" fill="black"/>
</g>
<path opacity="0.1" d="M75.4704 31.2036C75.0797 31.9252 73.8015 32.2656 73.7581 32.2656C73.4523 32.2667 73.1483 32.2189 72.8576 32.124C72.3488 31.0429 71.3979 30.0053 71.3979 30.0053C71.3979 30.0053 75.9645 27.9855 75.4452 30.0921C75.3548 30.4583 75.3635 30.8419 75.4704 31.2036Z" fill="black"/>
<path d="M76.6461 29.183C76.6461 29.9088 76.3728 30.608 75.8806 31.1414C75.3884 31.6748 74.7134 32.0033 73.9899 32.0615C73.9144 32.0676 73.8362 32.0711 73.7581 32.0711C73.1869 32.0711 72.6285 31.9017 72.1535 31.5844C71.6786 31.267 71.3084 30.816 71.0898 30.2882C70.8712 29.7605 70.8141 29.1798 70.9255 28.6196C71.0369 28.0593 71.312 27.5447 71.7159 27.1408C72.1198 26.7369 72.6344 26.4619 73.1946 26.3504C73.7549 26.239 74.3356 26.2962 74.8633 26.5148C75.391 26.7334 75.8421 27.1035 76.1594 27.5785C76.4768 28.0534 76.6461 28.6118 76.6461 29.183Z" fill="#EFB7B9"/>
<path opacity="0.1" d="M76.6461 29.183C76.6461 29.9088 76.3727 30.608 75.8805 31.1414C75.3883 31.6748 74.7134 32.0033 73.9899 32.0616C73.5471 31.7012 73.2223 31.2019 72.9627 30.6878C72.8515 30.4647 72.7456 30.2224 72.7742 29.9741C72.7986 29.7579 72.9227 29.5634 72.9601 29.348C73.0217 29.0007 72.8437 28.6481 72.6605 28.3407C72.4868 28.0568 72.3271 27.726 72.0831 27.5002C71.9545 27.3812 71.8356 27.2623 71.7201 27.1381C72.1244 26.7355 72.6389 26.4616 73.1986 26.3511C73.7584 26.2406 74.3384 26.2983 74.8654 26.5171C75.3923 26.7359 75.8427 27.1058 76.1596 27.5803C76.4766 28.0547 76.6458 28.6124 76.6461 29.183Z" fill="black"/>
<path d="M71.5708 26.7534C71.4214 26.5667 71.2694 26.3583 71.2625 26.1195C71.2555 25.8972 71.3762 25.6905 71.523 25.5256C71.6789 25.3381 71.8927 25.2076 72.1308 25.1548C72.2855 25.1402 72.441 25.1364 72.5963 25.1435C72.8544 25.1247 73.1098 25.0778 73.3578 25.0037C74.2774 24.7727 75.3002 24.6824 76.1304 25.1418C76.7903 25.5065 77.2323 26.1673 77.5788 26.8376C77.716 27.1033 77.8453 27.3855 77.8514 27.6842C77.8575 27.9534 77.7646 28.2139 77.7055 28.477C77.6903 28.5295 77.6879 28.5849 77.6986 28.6385C77.7359 28.7723 77.9009 28.8122 78.0286 28.8686C78.2617 28.9849 78.4394 29.1888 78.5226 29.4357C78.6039 29.6806 78.6521 29.9352 78.6659 30.1929C78.6948 30.354 78.6853 30.5197 78.6381 30.6765C78.5313 30.9483 78.23 31.076 77.9669 31.2019C77.6682 31.331 77.403 31.5267 77.1915 31.7741C76.9918 32.0294 76.8867 32.3758 76.9813 32.6858C77.0301 32.8207 77.105 32.9447 77.2017 33.0506C77.2984 33.1566 77.415 33.2424 77.5449 33.3032C77.805 33.423 78.0793 33.5091 78.3611 33.5594C78.4846 33.5781 78.6028 33.6222 78.7085 33.6888C78.9568 33.8703 78.949 34.2723 78.7588 34.5137C78.5687 34.7551 78.2535 34.861 77.9495 34.907C77.2731 34.9982 76.586 34.8528 76.0045 34.4955C75.6476 34.2784 75.3194 33.9597 75.2412 33.5498C75.1917 33.2954 75.2412 33.0202 75.137 32.784C74.9989 32.4766 74.6525 32.3385 74.3651 32.1631C73.7772 31.8036 73.3725 31.2079 73.0625 30.5932C72.9497 30.37 72.8446 30.1277 72.8733 29.8794C72.8976 29.6632 73.0217 29.4687 73.0591 29.2542C73.1207 28.9008 72.9427 28.5543 72.7595 28.246C72.5858 27.9621 72.4269 27.6313 72.1821 27.4046C71.9624 27.2031 71.758 26.9854 71.5708 26.7534Z" fill="#E3787D"/>
<g opacity="0.1">
<path opacity="0.1" d="M78.2665 30.9735C78.0868 31.0576 77.9165 31.1607 77.7585 31.2809C77.8297 31.2409 77.9018 31.2036 77.9748 31.1689C78.1585 31.0933 78.3304 30.9919 78.4853 30.8676C78.4124 30.9084 78.3386 30.9396 78.2665 30.9735Z" fill="black"/>
<path opacity="0.1" d="M78.2465 34.6787C77.5701 34.7697 76.883 34.6244 76.3014 34.2671C75.9446 34.05 75.6163 33.7313 75.5382 33.3215C75.4895 33.067 75.5382 32.7918 75.434 32.5556C75.2968 32.2482 74.9494 32.1101 74.662 31.9347C74.0742 31.5752 73.6695 30.9796 73.3595 30.3648C73.2466 30.1416 73.1416 29.8994 73.1702 29.651C73.1945 29.4348 73.3187 29.2403 73.356 29.0258C73.4177 28.6724 73.2397 28.3259 73.0565 28.0177C72.8872 27.7337 72.7239 27.4029 72.4799 27.1763C72.2613 26.9756 72.0581 26.7588 71.8721 26.5276C71.7227 26.3409 71.5708 26.1325 71.5638 25.8937C71.5569 25.6714 71.6776 25.4648 71.8243 25.2998C71.8592 25.2609 71.8963 25.2241 71.9355 25.1895C71.7819 25.2627 71.6448 25.3664 71.5325 25.4943C71.3841 25.6593 71.2634 25.8659 71.272 26.0882C71.2799 26.327 71.4318 26.5354 71.5812 26.7221C71.7668 26.9537 71.97 27.1706 72.189 27.3708C72.433 27.5974 72.5971 27.9282 72.7656 28.2122C72.9488 28.5204 73.1277 28.8669 73.066 29.2203C73.0287 29.4348 72.9045 29.6293 72.8802 29.8455C72.8515 30.0939 72.9566 30.3361 73.0695 30.5593C73.3795 31.1741 73.7841 31.7698 74.372 32.1292C74.6586 32.3029 75.0059 32.4436 75.1431 32.7501C75.2499 32.9863 75.1987 33.2616 75.2473 33.516C75.3254 33.9258 75.6545 34.2445 76.0105 34.4616C76.5921 34.8188 77.2792 34.9642 77.9556 34.8732C78.2265 34.8341 78.5044 34.7438 78.6972 34.5545C78.5534 34.6164 78.4017 34.6582 78.2465 34.6787Z" fill="black"/>
</g>
</g>
</svg>
