<svg width="80" height="60" viewBox="0 0 80 60" fill="none" xmlns="http://www.w3.org/2000/svg">
<defs>
<clipPath id="clip0">
<rect width="80" height="59.0791" fill="white"/>
</clipPath>
</defs>
<g clip-path="url(#clip0)">
<path d="M34.1036 40.0619C34.1036 40.0619 44.7278 38.787 48.4462 36.7684C52.1647 34.7498 79.7875 33.7936 79.7875 40.0619C79.7875 46.3302 48.0213 49.0924 48.0213 49.0924L31.3413 48.1363L34.1036 40.0619Z" fill="#FBBEBE"/>
<path opacity="0.1" d="M34.1036 40.0619C34.1036 40.0619 44.7278 38.787 48.4462 36.7684C52.1647 34.7498 79.7875 33.7936 79.7875 40.0619C79.7875 46.3302 48.0213 49.0924 48.0213 49.0924L31.3413 48.1363L34.1036 40.0619Z" fill="black"/>
<path d="M37.1846 38.8932L34.9535 45.374L0 45.7989V36.2372C0 36.2372 13.3865 33.1562 24.0106 39.7432C24.0106 39.7432 36.5471 38.2558 37.1846 38.8932Z" fill="#6C63FF"/>
<path opacity="0.1" d="M37.1846 38.8827L34.9535 45.3634L0 45.7884V36.2267C0 36.2267 13.3865 33.1456 24.0106 39.7326C24.0106 39.7326 36.5471 38.2452 37.1846 38.8827Z" fill="black"/>
<path d="M77.1471 36.184C77.1471 36.5461 76.3351 36.815 76.2552 37.1643C76.176 37.5107 76.6585 38.0375 76.5058 38.3684C76.348 38.7067 76.1616 39.0309 75.9486 39.3375C75.7486 39.6239 75.1308 39.582 74.8775 39.8506C74.6295 40.0945 74.3668 40.3229 74.0908 40.5347C73.822 40.7582 73.4579 40.8051 73.1522 41.0109C72.8616 41.2065 72.8968 41.9243 72.5753 42.1024C72.2681 42.2727 71.7979 42.1357 71.4646 42.2888C71.1448 42.4357 70.9761 42.967 70.6342 43.0969C70.3044 43.2222 69.8963 43.1682 69.5476 43.2768C69.2102 43.3818 68.8327 43.3648 68.4791 43.4532C68.1358 43.5391 67.8735 44.0537 67.5164 44.1231C67.1684 44.1907 66.7605 44.0104 66.4007 44.0616C66.0493 44.1116 65.6407 43.6669 65.2792 43.7005C64.9254 43.7335 64.592 43.9394 64.2296 43.956C63.8743 43.9723 63.5231 44.1288 63.1606 44.1288C62.7983 44.1288 62.4243 44.4688 62.0691 44.4525C61.7067 44.4358 61.3787 43.9205 61.0249 43.8876C60.6634 43.8539 60.2322 44.3922 59.8808 44.3422C59.521 44.291 59.236 43.7641 58.888 43.6965C58.5307 43.6271 58.0693 44.0036 57.7259 43.9177C57.3723 43.8293 57.1624 43.2164 56.8249 43.1113C56.4763 43.0028 56.0441 43.1498 55.7144 43.0245C55.3724 42.8945 54.9558 42.9154 54.6359 42.7685C54.3027 42.6154 54.0635 42.2533 53.7563 42.083C53.4348 41.9049 53.2866 41.463 52.996 41.2673C52.6903 41.0615 52.2246 41.0877 51.9558 40.8642C51.672 40.6281 51.1403 40.6158 50.9008 40.3619C50.6475 40.0933 50.545 39.6424 50.345 39.356C50.1344 39.0544 50.5478 38.4167 50.4007 38.0979C50.2481 37.7671 49.6101 37.6327 49.531 37.2863C49.4493 36.9245 49.4074 36.5549 49.406 36.1841C49.406 35.822 49.9516 35.5452 50.0315 35.1959C50.1107 34.8495 49.7091 34.3519 49.8617 34.021C50.0088 33.7022 49.99 33.2121 50.2007 32.9105C50.4007 32.6241 50.8998 32.5118 51.1531 32.2433C51.3926 31.9894 51.8212 31.9186 52.105 31.6826C52.3738 31.459 52.3396 30.7849 52.6452 30.5791C52.9358 30.3835 53.3416 30.2942 53.6631 30.116C53.9703 29.9458 54.405 29.9745 54.7382 29.8214C55.058 29.6745 55.559 29.964 55.9009 29.8341C56.2307 29.7088 56.4982 29.4349 56.8468 29.3264C57.1843 29.2213 57.3428 28.4203 57.6964 28.3319C58.0397 28.246 58.4622 28.3885 58.8193 28.3191C59.1673 28.2515 59.6356 28.8835 59.9954 28.8323C60.3468 28.7823 60.6096 27.9386 60.9711 27.905C61.3249 27.872 61.7238 28.309 62.0862 28.2924C62.4415 28.2761 62.7982 28.5321 63.1606 28.5321C63.523 28.5321 63.8841 28.1807 64.2393 28.197C64.6016 28.2136 64.9211 28.678 65.2749 28.711C65.6364 28.7446 66.0802 28.0383 66.4316 28.0883C66.7915 28.1395 67.0695 28.6855 67.4175 28.7531C67.7747 28.8225 68.2222 28.4835 68.5656 28.5694C68.9192 28.6579 69.132 29.2382 69.4695 29.3432C69.8181 29.4518 70.0329 29.8612 70.3626 29.9865C70.7046 30.1164 71.3399 29.5085 71.6598 29.6554C71.993 29.8084 72.2808 30.0733 72.588 30.2435C72.9095 30.4217 73.4206 30.3321 73.7112 30.5278C74.0168 30.7336 74.092 31.286 74.3608 31.5096C74.6446 31.7456 75.1127 31.8167 75.3522 32.0706C75.6055 32.3392 75.6407 32.8204 75.8407 33.1068C76.0513 33.4084 76.0447 33.8263 76.1917 34.1451C76.3443 34.476 76.7517 34.7262 76.8309 35.0726C76.9107 35.4218 77.1471 35.822 77.1471 36.184Z" fill="#3F3D56"/>
<path d="M38.8844 42.8241C38.8844 42.8241 50.8897 36.6621 58.6453 38.9994C66.401 41.3367 77.2376 37.2995 78.5125 38.6807C79.7874 40.0618 81.5936 54.9357 66.2948 55.7856C50.9959 56.6355 37.9282 53.2358 37.9282 53.2358L38.8844 42.8241Z" fill="#FBBEBE"/>
<path d="M36.0572 42.1679C36.0572 42.1679 40.7968 41.868 40.5843 43.5679C40.3718 45.2677 40.1594 58.4417 38.8845 58.7604C37.6096 59.0792 27.5166 59.0792 23.3732 59.0792H0V38.7113C0 38.7113 16.5737 37.7246 24.8606 41.868C24.8606 41.868 34.8236 41.7242 36.0572 42.1679Z" fill="#6C63FF"/>
<path d="M58.261 10.3096C57.8081 10.3352 57.3713 10.4864 56.9996 10.7464C56.6278 11.0063 56.3358 11.3646 56.1563 11.7812C55.6301 13.0533 56.3077 14.5476 57.3249 15.4752C58.3421 16.4029 59.6488 16.9331 60.836 17.6301C62.4306 18.5662 63.8636 19.8657 64.6614 21.5338C65.4593 23.2019 65.5442 25.2682 64.6063 26.8618C63.7358 28.3409 62.1529 29.2262 60.6433 30.0427" stroke="#3F3D56" stroke-miterlimit="10"/>
<path d="M62.5106 2.55402C62.0577 2.5796 61.6209 2.73082 61.2492 2.99074C60.8775 3.25066 60.5855 3.609 60.406 4.02557C59.8797 5.29768 60.5573 6.79198 61.5745 7.71962C62.5917 8.64726 63.8984 9.1775 65.0856 9.87445C66.6803 10.8106 68.1132 12.1101 68.9111 13.7782C69.7089 15.4463 69.7938 17.5126 68.8559 19.1062C67.9854 20.5853 66.4025 21.4706 64.8929 22.287" stroke="#3F3D56" stroke-miterlimit="10"/>
<path d="M76.4832 4.33772C76.1095 4.08071 75.6715 3.93289 75.2184 3.91085C74.7654 3.8888 74.3151 3.99339 73.9182 4.2129C72.7233 4.89662 72.3443 6.49301 72.5808 7.84923C72.8172 9.20545 73.5258 10.4246 74.038 11.7025C74.7258 13.4189 75.0633 15.3237 74.673 17.1311C74.2828 18.9386 73.0849 20.6244 71.3678 21.3103C69.7739 21.947 67.9804 21.678 66.2869 21.3994" stroke="#3F3D56" stroke-miterlimit="10"/>
<path d="M64.1699 20.3707C65.5781 20.3707 66.7197 19.8163 66.7197 19.1323C66.7197 18.4483 65.5781 17.8938 64.1699 17.8938C62.7617 17.8938 61.6201 18.4483 61.6201 19.1323C61.6201 19.8163 62.7617 20.3707 64.1699 20.3707Z" fill="#57B894"/>
<path d="M63.8513 20.1582C65.2595 20.1582 66.4011 19.6037 66.4011 18.9197C66.4011 18.2358 65.2595 17.6813 63.8513 17.6813C62.4431 17.6813 61.3015 18.2358 61.3015 18.9197C61.3015 19.6037 62.4431 20.1582 63.8513 20.1582Z" stroke="#3F3D56" stroke-miterlimit="10"/>
<path d="M69.6946 19.3083C71.1028 19.3083 72.2444 18.7538 72.2444 18.0698C72.2444 17.3858 71.1028 16.8313 69.6946 16.8313C68.2864 16.8313 67.1448 17.3858 67.1448 18.0698C67.1448 18.7538 68.2864 19.3083 69.6946 19.3083Z" fill="#57B894"/>
<path d="M69.3758 19.0958C70.7841 19.0958 71.9256 18.5414 71.9256 17.8574C71.9256 17.1734 70.7841 16.6189 69.3758 16.6189C67.9676 16.6189 66.826 17.1734 66.826 17.8574C66.826 18.5414 67.9676 19.0958 69.3758 19.0958Z" stroke="#3F3D56" stroke-miterlimit="10"/>
<path d="M70.5444 23.9829C71.9526 23.9829 73.0942 23.4285 73.0942 22.7445C73.0942 22.0605 71.9526 21.506 70.5444 21.506C69.1362 21.506 67.9946 22.0605 67.9946 22.7445C67.9946 23.4285 69.1362 23.9829 70.5444 23.9829Z" fill="#57B894"/>
<path d="M70.2258 23.7704C71.634 23.7704 72.7756 23.2159 72.7756 22.5319C72.7756 21.8479 71.634 21.2935 70.2258 21.2935C68.8176 21.2935 67.676 21.8479 67.676 22.5319C67.676 23.2159 68.8176 23.7704 70.2258 23.7704Z" stroke="#3F3D56" stroke-miterlimit="10"/>
<path d="M70.0133 12.2964C71.4215 12.2964 72.5631 11.7419 72.5631 11.0579C72.5631 10.3739 71.4215 9.8194 70.0133 9.8194C68.6051 9.8194 67.4635 10.3739 67.4635 11.0579C67.4635 11.7419 68.6051 12.2964 70.0133 12.2964Z" fill="#57B894"/>
<path d="M69.6946 12.0838C71.1028 12.0838 72.2444 11.5293 72.2444 10.8453C72.2444 10.1614 71.1028 9.60687 69.6946 9.60687C68.2864 9.60687 67.1448 10.1614 67.1448 10.8453C67.1448 11.5293 68.2864 12.0838 69.6946 12.0838Z" stroke="#3F3D56" stroke-miterlimit="10"/>
<path d="M63.6388 11.5526C65.047 11.5526 66.1886 10.9982 66.1886 10.3142C66.1886 9.63017 65.047 9.07568 63.6388 9.07568C62.2306 9.07568 61.089 9.63017 61.089 10.3142C61.089 10.9982 62.2306 11.5526 63.6388 11.5526Z" fill="#57B894"/>
<path d="M63.3201 11.3402C64.7283 11.3402 65.8699 10.7857 65.8699 10.1017C65.8699 9.41771 64.7283 8.86322 63.3201 8.86322C61.9118 8.86322 60.7703 9.41771 60.7703 10.1017C60.7703 10.7857 61.9118 11.3402 63.3201 11.3402Z" stroke="#3F3D56" stroke-miterlimit="10"/>
<path d="M66.5073 8.89663C67.9155 8.89663 69.0571 8.34214 69.0571 7.65815C69.0571 6.97416 67.9155 6.41968 66.5073 6.41968C65.0991 6.41968 63.9575 6.97416 63.9575 7.65815C63.9575 8.34214 65.0991 8.89663 66.5073 8.89663Z" fill="#57B894"/>
<path d="M66.1885 8.6841C67.5967 8.6841 68.7383 8.12962 68.7383 7.44563C68.7383 6.76164 67.5967 6.20715 66.1885 6.20715C64.7803 6.20715 63.6387 6.76164 63.6387 7.44563C63.6387 8.12962 64.7803 8.6841 66.1885 8.6841Z" stroke="#3F3D56" stroke-miterlimit="10"/>
<path d="M72.7756 9.42782C74.1838 9.42782 75.3254 8.87333 75.3254 8.18934C75.3254 7.50535 74.1838 6.95087 72.7756 6.95087C71.3674 6.95087 70.2258 7.50535 70.2258 8.18934C70.2258 8.87333 71.3674 9.42782 72.7756 9.42782Z" fill="#57B894"/>
<path d="M72.4568 9.21529C73.865 9.21529 75.0066 8.66081 75.0066 7.97682C75.0066 7.29283 73.865 6.73834 72.4568 6.73834C71.0486 6.73834 69.907 7.29283 69.907 7.97682C69.907 8.66081 71.0486 9.21529 72.4568 9.21529Z" stroke="#3F3D56" stroke-miterlimit="10"/>
<path d="M77.4502 12.9338C78.8584 12.9338 80 12.3793 80 11.6953C80 11.0113 78.8584 10.4568 77.4502 10.4568C76.042 10.4568 74.9004 11.0113 74.9004 11.6953C74.9004 12.3793 76.042 12.9338 77.4502 12.9338Z" fill="#57B894"/>
<path d="M77.1315 12.7213C78.5397 12.7213 79.6813 12.1668 79.6813 11.4828C79.6813 10.7988 78.5397 10.2443 77.1315 10.2443C75.7232 10.2443 74.5817 10.7988 74.5817 11.4828C74.5817 12.1668 75.7232 12.7213 77.1315 12.7213Z" stroke="#3F3D56" stroke-miterlimit="10"/>
<path d="M60.9828 6.77175C62.391 6.77175 63.5326 6.21727 63.5326 5.53327C63.5326 4.84928 62.391 4.2948 60.9828 4.2948C59.5746 4.2948 58.433 4.84928 58.433 5.53327C58.433 6.21727 59.5746 6.77175 60.9828 6.77175Z" fill="#57B894"/>
<path d="M60.6641 6.55929C62.0723 6.55929 63.2139 6.0048 63.2139 5.32081C63.2139 4.63682 62.0723 4.08234 60.6641 4.08234C59.2558 4.08234 58.1143 4.63682 58.1143 5.32081C58.1143 6.0048 59.2558 6.55929 60.6641 6.55929Z" stroke="#3F3D56" stroke-miterlimit="10"/>
<path d="M62.5764 2.73458C63.9846 2.73458 65.1262 2.1801 65.1262 1.4961C65.1262 0.812114 63.9846 0.257629 62.5764 0.257629C61.1682 0.257629 60.0266 0.812114 60.0266 1.4961C60.0266 2.1801 61.1682 2.73458 62.5764 2.73458Z" fill="#57B894"/>
<path d="M62.2577 2.52211C63.6659 2.52211 64.8075 1.96763 64.8075 1.28364C64.8075 0.59965 63.6659 0.045166 62.2577 0.045166C60.8495 0.045166 59.7079 0.59965 59.7079 1.28364C59.7079 1.96763 60.8495 2.52211 62.2577 2.52211Z" stroke="#3F3D56" stroke-miterlimit="10"/>
<path d="M77.344 5.70931C78.7522 5.70931 79.8938 5.15483 79.8938 4.47084C79.8938 3.78685 78.7522 3.23236 77.344 3.23236C75.9358 3.23236 74.7942 3.78685 74.7942 4.47084C74.7942 5.15483 75.9358 5.70931 77.344 5.70931Z" fill="#57B894"/>
<path d="M77.0253 5.49685C78.4335 5.49685 79.5751 4.94237 79.5751 4.25837C79.5751 3.57438 78.4335 3.0199 77.0253 3.0199C75.617 3.0199 74.4755 3.57438 74.4755 4.25837C74.4755 4.94237 75.617 5.49685 77.0253 5.49685Z" stroke="#3F3D56" stroke-miterlimit="10"/>
<path d="M53.8645 15.4836C55.2727 15.4836 56.4143 14.9291 56.4143 14.2451C56.4143 13.5611 55.2727 13.0067 53.8645 13.0067C52.4563 13.0067 51.3147 13.5611 51.3147 14.2451C51.3147 14.9291 52.4563 15.4836 53.8645 15.4836Z" fill="#57B894"/>
<path d="M53.5458 15.2711C54.954 15.2711 56.0956 14.7166 56.0956 14.0327C56.0956 13.3487 54.954 12.7942 53.5458 12.7942C52.1376 12.7942 50.996 13.3487 50.996 14.0327C50.996 14.7166 52.1376 15.2711 53.5458 15.2711Z" stroke="#3F3D56" stroke-miterlimit="10"/>
<path d="M62.6826 14.8462C64.0908 14.8462 65.2324 14.2917 65.2324 13.6077C65.2324 12.9237 64.0908 12.3692 62.6826 12.3692C61.2744 12.3692 60.1328 12.9237 60.1328 13.6077C60.1328 14.2917 61.2744 14.8462 62.6826 14.8462Z" fill="#57B894"/>
<path d="M62.3639 14.6336C63.7721 14.6336 64.9137 14.0791 64.9137 13.3952C64.9137 12.7112 63.7721 12.1567 62.3639 12.1567C60.9557 12.1567 59.8141 12.7112 59.8141 13.3952C59.8141 14.0791 60.9557 14.6336 62.3639 14.6336Z" stroke="#3F3D56" stroke-miterlimit="10"/>
<path d="M74.2629 15.8023C75.6711 15.8023 76.8127 15.2478 76.8127 14.5639C76.8127 13.8799 75.6711 13.3254 74.2629 13.3254C72.8547 13.3254 71.7131 13.8799 71.7131 14.5639C71.7131 15.2478 72.8547 15.8023 74.2629 15.8023Z" fill="#57B894"/>
<path d="M73.9442 15.5898C75.3524 15.5898 76.494 15.0353 76.494 14.3513C76.494 13.6673 75.3524 13.1129 73.9442 13.1129C72.536 13.1129 71.3944 13.6673 71.3944 14.3513C71.3944 15.0353 72.536 15.5898 73.9442 15.5898Z" stroke="#3F3D56" stroke-miterlimit="10"/>
<path d="M68.1009 16.2273C69.5092 16.2273 70.6507 15.6728 70.6507 14.9888C70.6507 14.3049 69.5092 13.7504 68.1009 13.7504C66.6927 13.7504 65.5511 14.3049 65.5511 14.9888C65.5511 15.6728 66.6927 16.2273 68.1009 16.2273Z" fill="#57B894"/>
<path d="M67.7822 16.0148C69.1904 16.0148 70.332 15.4603 70.332 14.7763C70.332 14.0923 69.1904 13.5378 67.7822 13.5378C66.374 13.5378 65.2324 14.0923 65.2324 14.7763C65.2324 15.4603 66.374 16.0148 67.7822 16.0148Z" stroke="#3F3D56" stroke-miterlimit="10"/>
<path d="M68.5259 5.60311C69.9341 5.60311 71.0757 5.04863 71.0757 4.36464C71.0757 3.68064 69.9341 3.12616 68.5259 3.12616C67.1177 3.12616 65.9761 3.68064 65.9761 4.36464C65.9761 5.04863 67.1177 5.60311 68.5259 5.60311Z" fill="#57B894"/>
<path d="M68.2072 5.39065C69.6154 5.39065 70.757 4.83616 70.757 4.15217C70.757 3.46818 69.6154 2.9137 68.2072 2.9137C66.7989 2.9137 65.6573 3.46818 65.6573 4.15217C65.6573 4.83616 66.7989 5.39065 68.2072 5.39065Z" stroke="#3F3D56" stroke-miterlimit="10"/>
<path d="M57.583 12.1901C58.9912 12.1901 60.1328 11.6356 60.1328 10.9516C60.1328 10.2676 58.9912 9.71313 57.583 9.71313C56.1748 9.71313 55.0332 10.2676 55.0332 10.9516C55.0332 11.6356 56.1748 12.1901 57.583 12.1901Z" fill="#57B894"/>
<path d="M57.2643 11.9776C58.6725 11.9776 59.8141 11.4231 59.8141 10.7392C59.8141 10.0552 58.6725 9.50067 57.2643 9.50067C55.8561 9.50067 54.7145 10.0552 54.7145 10.7392C54.7145 11.4231 55.8561 11.9776 57.2643 11.9776Z" stroke="#3F3D56" stroke-miterlimit="10"/>
<path d="M59.0704 16.971C60.4786 16.971 61.6202 16.4165 61.6202 15.7325C61.6202 15.0485 60.4786 14.494 59.0704 14.494C57.6622 14.494 56.5206 15.0485 56.5206 15.7325C56.5206 16.4165 57.6622 16.971 59.0704 16.971Z" fill="#57B894"/>
<path d="M58.7517 16.7585C60.1599 16.7585 61.3015 16.204 61.3015 15.52C61.3015 14.836 60.1599 14.2816 58.7517 14.2816C57.3435 14.2816 56.2019 14.836 56.2019 15.52C56.2019 16.204 57.3435 16.7585 58.7517 16.7585Z" stroke="#3F3D56" stroke-miterlimit="10"/>
<g opacity="0.3">
<path opacity="0.3" d="M59.1297 24.1889C59.4896 23.5449 59.5553 22.8964 59.2764 22.7406C58.9975 22.5847 58.4797 22.9804 58.1197 23.6244C57.7598 24.2684 57.6941 24.9168 57.973 25.0727C58.2519 25.2286 58.7698 24.8329 59.1297 24.1889Z" fill="#57B894"/>
<path opacity="0.3" d="M58.9616 24.2862C59.3215 23.6422 59.3872 22.9937 59.1083 22.8379C58.8294 22.682 58.3116 23.0777 57.9516 23.7217C57.5917 24.3657 57.526 25.0141 57.8049 25.17C58.0838 25.3259 58.6017 24.9302 58.9616 24.2862Z" stroke="#3F3D56" stroke-miterlimit="10"/>
</g>
<g opacity="0.3">
<path opacity="0.3" d="M72.4204 27.2761C72.6335 27.038 72.3605 26.4461 71.8108 25.9541C71.2611 25.4621 70.6427 25.2563 70.4296 25.4943C70.2165 25.7324 70.4895 26.3243 71.0392 26.8163C71.589 27.3083 72.2073 27.5141 72.4204 27.2761Z" fill="#57B894"/>
<path opacity="0.3" d="M72.3621 27.0908C72.5752 26.8527 72.3023 26.2609 71.7526 25.7689C71.2028 25.2769 70.5845 25.071 70.3714 25.3091C70.1583 25.5472 70.4312 26.139 70.981 26.631C71.5307 27.123 72.1491 27.3289 72.3621 27.0908Z" stroke="#3F3D56" stroke-miterlimit="10"/>
</g>
<g opacity="0.3">
<path opacity="0.3" d="M60.5214 20.5828C60.7344 20.3447 60.4615 19.7529 59.9118 19.2609C59.362 18.7689 58.7436 18.563 58.5306 18.8011C58.3175 19.0392 58.5904 19.631 59.1402 20.123C59.6899 20.615 60.3083 20.8209 60.5214 20.5828Z" fill="#57B894"/>
<path opacity="0.3" d="M60.4631 20.3975C60.6762 20.1594 60.4033 19.5676 59.8535 19.0756C59.3038 18.5836 58.6854 18.3777 58.4723 18.6158C58.2593 18.8539 58.5322 19.4457 59.0819 19.9377C59.6317 20.4297 60.25 20.6356 60.4631 20.3975Z" stroke="#3F3D56" stroke-miterlimit="10"/>
</g>
</g>
</svg>
